<svg width="120" height="112" viewBox="0 0 120 112" fill="none" xmlns="http://www.w3.org/2000/svg">
<path d="M53.7834 56.1142C54.5184 51.9362 52.6743 49.0637 48.5718 47.7947C49.5679 51.0986 50.6264 54.0818 53.7834 56.1142ZM34.5775 73.6758C35.8512 68.986 34.1866 64.996 30.2581 63.1471C30.9787 66.9676 31.5379 70.5582 34.5775 73.6758ZM101.077 61.3194C101.247 60.7912 101.389 60.5851 101.363 60.4024C99.2438 45.5777 92.5534 33.4059 80.2733 24.6012C77.1537 22.3651 73.5511 21.0038 69.7047 20.4154C61.41 19.1458 53.6228 23.1904 49.9244 30.707C48.01 34.598 46.7905 38.6227 47.5115 43.06C49.2587 44.1219 51.0476 45.0578 52.6681 46.2273C55.2243 48.0724 56.9094 50.5421 57.2647 53.7627C57.5324 56.186 56.7715 58.0822 55.227 58.6901C53.2782 59.4572 51.5189 58.6887 50.3881 57.2601C48.8069 55.2626 47.505 53.0115 46.3119 50.7493C45.5373 49.2811 45.1704 47.599 44.6326 46.0468C36.9077 44.0742 30.8816 49.6378 30.4322 59.2042C31.335 59.9055 32.3476 60.5968 33.2504 61.4097C36.5008 64.3352 38.4413 67.9106 38.1462 72.3835C38.035 74.0645 37.5352 75.7647 35.6824 76.4804C34.2523 77.0332 32.4199 76.2544 31.0711 74.4514C28.9286 71.5875 27.9841 68.2423 27.4133 64.7744C27.2141 63.5663 27.0972 62.3451 26.9497 61.1838C15.1281 57.6909 2.87318 64.4594 3.17469 76.3318C2.39213 75.8893 1.6302 75.7078 1.36588 75.2431C1.07352 74.7279 1.0882 73.9222 1.22379 73.2981C2.50263 67.4164 5.27913 62.5886 11.0428 60.0535C15.3385 58.1647 19.8715 57.5229 24.5466 57.8554C25.2131 57.9033 25.8807 57.9357 26.5486 57.9584C26.6464 57.9624 26.7465 57.8763 27.0496 57.7413C27.2309 57.16 27.4979 56.4349 27.6828 55.6903C29.965 46.4911 34.2006 42.9508 43.9503 42.3246C44.0297 41.4087 44.124 40.4504 44.1946 39.4905C44.6131 33.821 46.6042 28.7896 50.3441 24.4904C56.4942 17.4191 65.7877 15.1064 74.8958 18.3178C79.8537 20.0654 84.1895 22.8144 87.9381 26.4642C97.0342 35.3213 102.654 45.9177 103.871 58.682C103.936 59.3525 104.01 60.0226 104.096 60.6901C104.108 60.7816 104.217 60.8608 104.542 61.2958C105.974 59.334 106.648 57.1674 107.43 55.072C108.2 53.0109 108.885 50.918 109.667 48.6649C111.274 49.5621 111.564 50.7279 111.456 51.9878C111.331 53.4361 111.285 54.9614 110.781 56.2928C109.428 59.8587 108.008 63.4176 106.31 66.828C104.958 69.542 103.133 69.6745 101.403 67.4683C97.7301 62.7865 94.0927 58.077 90.4759 53.3527C89.9091 52.6131 89.5221 51.7352 88.9053 50.6655C90.8307 50.0313 91.633 51.0107 92.4305 51.8734C95.248 54.9231 98.0398 57.9962 101.077 61.3194Z" fill="#71C0DD"/>
</svg>
