<svg width="61" height="62" viewBox="0 0 61 62" fill="none" xmlns="http://www.w3.org/2000/svg">
<g clip-path="url(#clip0_325_436)">
<path d="M9.0614 29.0597C10.4507 29.0503 11.7813 28.4977 12.7691 27.5197L18.0614 30.1993C18.0199 30.4178 17.9942 30.6392 17.9845 30.8615C17.979 31.6725 18.157 32.4743 18.5051 33.2067C18.8532 33.9391 19.3624 34.5832 19.9945 35.0906C20.6266 35.5981 21.3652 35.9557 22.1551 36.1367C22.9449 36.3178 23.7654 36.3176 24.5551 36.1361C25.3449 35.9545 26.0833 35.5965 26.7151 35.0887C27.3469 34.5809 27.8558 33.9365 28.2034 33.2039C28.5511 32.4713 28.7286 31.6694 28.7227 30.8583C28.7167 30.0473 28.5275 29.2481 28.1691 28.5207L35.3845 21.2519C36.0972 21.6052 36.8815 21.7896 37.6768 21.7909C38.3898 21.7909 39.0958 21.6496 39.754 21.3751C40.4122 21.1005 41.0095 20.6983 41.5116 20.1914C42.0136 19.6846 42.4104 19.0832 42.6791 18.4221C42.9477 17.7609 43.0829 17.0531 43.0768 16.3393C43.0629 15.8162 42.9748 15.2977 42.8152 14.7994L48.9691 10.0408C49.8432 10.6412 50.8782 10.9632 51.9383 10.9648C53.3827 10.9648 54.768 10.3904 55.7893 9.36805C56.8107 8.34568 57.3845 6.95906 57.3845 5.51321C57.3845 4.06737 56.8107 2.68074 55.7893 1.65837C54.768 0.636005 53.3827 0.0616455 51.9383 0.0616455C51.2292 0.0676867 50.5282 0.213491 49.8753 0.490732C49.2225 0.767973 48.6306 1.17122 48.1334 1.67745C47.6363 2.18368 47.2436 2.78298 46.9778 3.44112C46.712 4.09926 46.5784 4.80336 46.5845 5.51321C46.5998 6.0362 46.6879 6.55451 46.846 7.0532L40.6152 11.8118C39.7377 11.2203 38.704 10.904 37.646 10.9032C36.2192 10.9194 34.8568 11.5003 33.8565 12.5189C32.8562 13.5375 32.2993 14.911 32.3076 16.3393C32.3111 17.1482 32.4896 17.9468 32.8306 18.6801L25.6614 25.9797C24.9518 25.6162 24.1662 25.4263 23.3691 25.4253C22.6801 25.4241 21.9977 25.5596 21.3613 25.8239C20.7249 26.0882 20.1472 26.4762 19.6614 26.9653L14.3537 24.2703C14.3537 24.0547 14.3537 23.8391 14.3537 23.6081C14.3598 22.8982 14.2261 22.1941 13.9604 21.536C13.6946 20.8779 13.3019 20.2786 12.8048 19.7723C12.3076 19.2661 11.7157 18.8629 11.0629 18.5856C10.41 18.3084 9.70901 18.1626 8.99986 18.1565C7.55545 18.1565 6.1702 18.7309 5.14885 19.7533C4.1275 20.7756 3.55371 22.1623 3.55371 23.6081C3.55371 25.0539 4.1275 26.4406 5.14885 27.4629C6.1702 28.4853 7.55545 29.0597 8.99986 29.0597" fill="#01204C"/>
<path d="M59.2154 58.3656H57.3077V20.0198C57.3097 19.7832 57.2652 19.5485 57.1766 19.3291C57.088 19.1097 56.9571 18.91 56.7914 18.7412C56.6257 18.5725 56.4284 18.4381 56.2108 18.3457C55.9931 18.2533 55.7595 18.2047 55.5231 18.2026H48.3692C48.1329 18.2047 47.8992 18.2533 47.6816 18.3457C47.464 18.4381 47.2666 18.5725 47.1009 18.7412C46.9352 18.91 46.8043 19.1097 46.7157 19.3291C46.6271 19.5485 46.5826 19.7832 46.5846 20.0198V58.3656H43.0769V30.8768C43.079 30.6401 43.0344 30.4054 42.9458 30.1861C42.8572 29.9667 42.7263 29.7669 42.5606 29.5982C42.3949 29.4294 42.1976 29.295 41.98 29.2026C41.7624 29.1102 41.5287 29.0616 41.2923 29.0596H34.0769C33.6022 29.0677 33.1499 29.2632 32.8186 29.6035C32.4872 29.9439 32.3036 30.4015 32.3077 30.8768V58.3656H28.7077V45.3989C28.7097 45.1622 28.6652 44.9275 28.5766 44.7082C28.488 44.4888 28.3571 44.289 28.1914 44.1203C28.0257 43.9515 27.8284 43.8171 27.6108 43.7247C27.3931 43.6323 27.1595 43.5837 26.9231 43.5817H19.7692C19.5329 43.5837 19.2992 43.6323 19.0816 43.7247C18.864 43.8171 18.6667 43.9515 18.5009 44.1203C18.3352 44.289 18.2043 44.4888 18.1157 44.7082C18.0271 44.9275 17.9826 45.1622 17.9846 45.3989V58.3656H14.4154V38.1455C14.4174 37.9089 14.3729 37.6742 14.2843 37.4548C14.1957 37.2354 14.0648 37.0357 13.8991 36.8669C13.7334 36.6982 13.5361 36.5638 13.3184 36.4714C13.1008 36.3789 12.8672 36.3303 12.6308 36.3283H5.47693C5.24055 36.3303 5.00688 36.3789 4.78926 36.4714C4.57164 36.5638 4.37434 36.6982 4.20862 36.8669C4.04291 37.0357 3.91202 37.2354 3.82343 37.4548C3.73484 37.6742 3.69029 37.9089 3.69232 38.1455V58.3656H1.78462C1.30315 58.3656 0.841403 58.557 0.500952 58.8978C0.160501 59.2386 -0.0307617 59.7008 -0.0307617 60.1828C-0.0307617 60.6647 0.160501 61.1269 0.500952 61.4677C0.841403 61.8085 1.30315 62 1.78462 62H59.2154C59.6969 62 60.1586 61.8085 60.4991 61.4677C60.8395 61.1269 61.0308 60.6647 61.0308 60.1828C61.0308 59.7008 60.8395 59.2386 60.4991 58.8978C60.1586 58.557 59.6969 58.3656 59.2154 58.3656Z" fill="#01204C"/>
</g>
<defs>
<clipPath id="clip0_325_436">
<rect width="61" height="62" fill="white"/>
</clipPath>
</defs>
</svg>
