<svg width="88" height="88" viewBox="0 0 88 88" fill="none" xmlns="http://www.w3.org/2000/svg">
<g clip-path="url(#clip0_497_137)" filter="url(#filter0_i_497_137)">
<path d="M55.1955 0H32.8045C14.6871 0 0 14.6871 0 32.8045V55.1955C0 73.3129 14.6871 88 32.8045 88H55.1955C73.3129 88 88 73.3129 88 55.1955V32.8045C88 14.6871 73.3129 0 55.1955 0Z" fill="#ECF9FE"/>
<g clip-path="url(#clip1_497_137)">
<path d="M43.8605 56.3364C42.1878 56.3364 40.515 56.197 38.7726 55.9879C37.5878 55.8485 36.2635 55.5698 34.9393 55.2213C34.7999 55.2213 34.6605 55.2213 34.4514 55.1516C33.2665 54.8728 32.4302 53.7576 32.4302 52.5728V48.0425C32.4302 46.9273 33.1271 45.8819 34.1726 45.5334L36.5423 44.4879C38.9817 43.5819 41.4211 43.094 43.7908 43.094H43.8605C46.2302 43.094 48.5999 43.5122 50.7605 44.4182L53.5484 45.5334C54.5938 45.9516 55.2908 46.9273 55.2908 47.9728V52.5031C55.2908 53.7576 54.4544 54.8031 53.2696 55.1516C53.1302 55.2213 53.0605 55.2213 52.9211 55.2213H52.8514C52.3635 55.3607 51.9453 55.5001 51.5968 55.5698C51.3878 55.6394 51.1787 55.6394 51.0393 55.7091C50.3423 55.8485 49.5756 55.9879 48.8787 56.0576C47.2059 56.197 45.5332 56.3364 43.8605 56.3364ZM43.8605 44.4182C41.6302 44.4182 39.3999 44.8364 37.1696 45.6728L34.7302 46.7182C34.2423 46.9273 33.8938 47.4152 33.8938 47.9728V52.5031C33.8938 53.1304 34.312 53.6182 34.8696 53.7576C34.9393 53.7576 35.009 53.7576 35.009 53.8273H35.2181C36.5423 54.1758 37.7968 54.4546 38.912 54.594C42.1181 55.0819 45.3938 55.0819 48.5999 54.594C49.2968 54.5243 49.9938 54.3849 50.6908 54.2455C50.8999 54.1758 51.109 54.1758 51.3181 54.1061C51.6665 54.0364 52.015 53.9667 52.2938 53.8273C52.4332 53.7576 52.5726 53.7576 52.6423 53.6879H52.712C52.7817 53.6879 52.7817 53.6879 52.8514 53.6182C53.409 53.4788 53.8271 52.9213 53.8271 52.3637V47.8334C53.8271 47.4152 53.5484 46.9273 52.9211 46.6485L50.1332 45.5334C48.112 44.7667 46.0211 44.3485 43.7908 44.3485H43.8605V44.4182Z" fill="black"/>
<path d="M56.0575 50.1334C55.7787 50.1334 55.4999 50.1334 55.2211 50.1334C54.803 50.1334 54.5242 49.7849 54.5242 49.4364C54.5242 49.0879 54.8727 48.7394 55.2211 48.7394C57.7302 48.8091 61.4939 48.5303 64.0727 47.7637C64.4908 47.6243 64.7696 47.2758 64.7696 46.9273V43.3728C64.7696 43.0243 64.4908 42.6758 64.212 42.5364L61.9817 41.7C60.4484 41.0728 58.706 40.794 57.103 40.794H57.0333C55.2211 40.794 53.4787 41.1424 51.8757 41.7697L49.9242 42.5364C49.6454 42.6061 49.3666 42.9546 49.3666 43.4424C49.3666 43.8606 49.0878 44.1394 48.6696 44.1394C48.2514 44.1394 47.9727 43.8606 47.9727 43.4424C47.9727 42.4667 48.5302 41.5606 49.3666 41.2818L51.3181 40.5152C53.1302 39.8182 55.0121 39.4 57.0333 39.4H57.103C58.9151 39.4 60.7969 39.7485 62.5393 40.4455L64.7696 41.2818C65.606 41.5606 66.2333 42.4667 66.2333 43.3728V46.9273C66.2333 47.9031 65.5363 48.8091 64.5605 49.1576C61.8424 49.8546 58.4969 50.1334 56.0575 50.1334Z" fill="black"/>
<path d="M32.2907 50.4122C29.7816 50.4122 26.2271 50.0637 23.6483 49.4364C22.6029 49.1576 21.9756 48.2516 21.9756 47.2061V43.6516C21.9756 42.6758 22.5332 41.8394 23.4392 41.5607L25.3907 40.794C27.2029 40.097 29.1544 39.6788 31.1059 39.6788H31.1756C32.9877 39.6788 34.7998 40.0273 36.6119 40.7243L38.8423 41.5607C39.6786 41.9091 40.1665 42.5364 40.2362 43.3031C40.3059 43.6516 40.0271 44 39.6089 44.0697C39.2604 44.1394 38.9119 43.8607 38.8423 43.4425C38.7726 43.0243 38.4241 42.8849 38.2847 42.8152L36.0544 41.9788C34.3816 41.3516 32.7786 41.0728 31.1756 41.0728H31.1059C29.2938 41.0728 27.5513 41.4213 25.9483 42.0485L23.9968 42.8152C23.6483 42.9546 23.4392 43.3031 23.4392 43.6516V47.2061C23.4392 47.6243 23.718 47.9728 24.1362 48.0425C26.7847 48.7394 30.618 49.0879 33.0574 49.0182C33.4756 49.0182 33.7544 49.297 33.7544 49.7152C33.7544 50.1334 33.4756 50.4122 33.0574 50.4122C32.7089 50.4122 32.4998 50.4122 32.2907 50.4122Z" fill="black"/>
<path d="M50.9694 55.7788C50.5512 55.7788 50.2725 55.5001 50.2725 55.0819V50.3425C50.2725 49.9243 50.5512 49.6455 50.9694 49.6455C51.3876 49.6455 51.6664 49.9243 51.6664 50.3425V55.0819C51.6664 55.5001 51.3876 55.7788 50.9694 55.7788Z" fill="black"/>
<path d="M37.1696 55.5697C36.7514 55.5697 36.4727 55.291 36.4727 54.8728V50.3425C36.4727 49.9243 36.7514 49.6455 37.1696 49.6455C37.5878 49.6455 37.8666 49.9243 37.8666 50.3425V54.8728C37.8666 55.291 37.5878 55.5697 37.1696 55.5697Z" fill="black"/>
<path d="M43.9303 40.3061C41.4909 40.3061 39.4697 38.2849 39.4697 35.8455C39.4697 33.4061 41.4909 31.3849 43.9303 31.3849C46.3697 31.3849 48.3909 33.4061 48.3909 35.8455C48.3909 38.2849 46.3697 40.3061 43.9303 40.3061ZM43.9303 32.7788C42.2576 32.7788 40.8637 34.1728 40.8637 35.8455C40.8637 37.5182 42.2576 38.9122 43.9303 38.9122C45.6031 38.9122 46.997 37.5182 46.997 35.8455C46.997 34.1728 45.6031 32.7788 43.9303 32.7788Z" fill="black"/>
<path d="M57.0332 37.7273C54.9423 37.7273 53.2695 36.0546 53.2695 33.9637C53.2695 31.8728 54.9423 30.2001 57.0332 30.2001C59.1241 30.2001 60.7968 31.8728 60.7968 33.9637C60.7968 36.0546 59.1241 37.7273 57.0332 37.7273ZM57.0332 31.594C55.7089 31.594 54.6635 32.6395 54.6635 33.9637C54.6635 35.288 55.7089 36.3334 57.0332 36.3334C58.3574 36.3334 59.4029 35.288 59.4029 33.9637C59.4029 32.6395 58.3574 31.594 57.0332 31.594Z" fill="black"/>
<path d="M30.9663 37.7273C28.8754 37.7273 27.2026 36.0546 27.2026 33.9637C27.2026 31.8728 28.8754 30.2001 30.9663 30.2001C33.0572 30.2001 34.7299 31.8728 34.7299 33.9637C34.7299 36.0546 33.0572 37.7273 30.9663 37.7273ZM30.9663 31.594C29.642 31.594 28.5966 32.6395 28.5966 33.9637C28.5966 35.288 29.642 36.3334 30.9663 36.3334C32.2905 36.3334 33.336 35.288 33.336 33.9637C33.336 32.6395 32.2905 31.594 30.9663 31.594Z" fill="black"/>
<path d="M45.8817 66.303C45.6029 66.303 45.3938 66.1636 45.2544 65.8849C44.9756 65.1879 44.418 64.7697 43.9302 64.7697C43.512 64.7697 42.8847 65.1879 42.5362 65.8849C42.3968 66.1636 42.0483 66.3727 41.7695 66.303C40.6544 66.0939 39.6089 65.6061 38.6332 65.0485C38.4241 64.8394 38.2847 64.4909 38.4241 64.2121C38.7029 63.4455 38.6332 62.8182 38.2847 62.4697C37.9362 62.1212 37.2392 62.1212 36.4726 62.3303C36.1938 62.4697 35.8453 62.3303 35.6362 62.0515C35.0089 61.1455 34.5908 60.0303 34.3817 58.9152C34.312 58.5667 34.5211 58.2879 34.7999 58.1485C35.218 57.9394 35.915 57.5909 35.915 56.8242C35.915 56.3364 35.4968 55.8485 34.7999 55.5C34.5211 55.3606 34.3817 55.1515 34.3817 54.8727C34.3817 54.7333 34.4514 54.5939 34.4514 54.5242C34.5211 54.1758 34.7999 53.897 35.1483 53.897C35.4968 53.897 35.7756 54.1758 35.8453 54.5242C36.7514 55.0818 37.3089 55.9182 37.3089 56.8242C37.3089 57.8 36.8211 58.5667 35.915 59.1242C36.0544 59.6818 36.3332 60.2394 36.612 60.797C37.6574 60.5879 38.6332 60.797 39.3302 61.4242C39.9574 62.0515 40.1665 62.9576 39.9574 64.0727C40.515 64.3515 41.0726 64.6303 41.6302 64.7697C42.1877 63.8636 43.0938 63.3061 43.9999 63.3061C44.8362 63.3061 45.7423 63.8636 46.2999 64.7697C46.8574 64.6303 47.415 64.3515 47.9726 64.0727C47.6938 62.9576 47.9029 61.9818 48.5999 61.3545C49.2271 60.7273 50.2029 60.5182 51.2483 60.797C51.5271 60.2394 51.8059 59.6818 51.9453 59.1242C51.0392 58.5667 50.4817 57.7303 50.4817 56.8242C50.4817 55.8485 51.0392 55.0121 51.9453 54.4545C52.015 54.1758 52.2938 53.9667 52.6423 53.9667C52.9908 53.9667 53.2696 54.1758 53.3392 54.5242C53.4089 54.5939 53.4089 54.7333 53.4089 54.8727C53.4089 55.1515 53.2696 55.4303 52.9908 55.5C52.5726 55.7091 51.8756 56.0576 51.8756 56.8242C51.8756 57.3121 52.2938 57.8 52.9908 58.1485C53.2696 58.2879 53.4786 58.6364 53.4089 58.9152C53.1999 60.0303 52.712 61.0758 52.1544 62.0515C51.9453 62.3303 51.6665 62.4 51.318 62.3303C50.5514 62.0515 49.8544 62.1212 49.5059 62.4697C48.9483 62.9576 49.2968 63.9333 49.3665 64.2818C49.5059 64.5606 49.3665 64.9091 49.0877 65.1182C47.9726 65.8152 46.9968 66.1636 46.0211 66.3727C45.9514 66.303 45.9514 66.303 45.8817 66.303Z" fill="black"/>
<path d="M43.8604 62.6091C40.6543 62.6091 38.0059 60.0303 38.0059 56.8243C38.0059 56.2667 38.0756 55.7091 38.215 55.1515C38.3543 54.8031 38.7028 54.594 39.0513 54.6637C39.3998 54.8031 39.6089 55.1515 39.5392 55.5C39.3998 55.9182 39.3301 56.3364 39.3301 56.7546C39.3301 59.194 41.3513 61.1455 43.7907 61.1455C46.2301 61.1455 48.2513 59.194 48.2513 56.7546C48.2513 56.3364 48.1816 55.9182 48.1119 55.5697C47.9725 55.2212 48.1816 54.8031 48.5301 54.6637C48.8786 54.5243 49.2968 54.7334 49.4362 55.0818C49.5756 55.5697 49.715 56.1273 49.715 56.6849C49.715 60.0303 47.0665 62.6091 43.8604 62.6091Z" fill="black"/>
<path d="M47.4844 30.8273C47.3451 30.8273 47.2057 30.7576 47.136 30.6879C46.8572 30.5485 46.7875 30.3394 46.7875 30.0607L46.9966 27.691L45.1844 26.0182C44.9754 25.8091 44.9057 25.6001 44.9754 25.3213C45.0451 25.0425 45.2541 24.9031 45.5329 24.8334L47.9026 24.3455L48.8087 22.1152C48.8784 21.9061 49.1572 21.697 49.3663 21.697C49.6451 21.697 49.8541 21.8364 49.9935 22.0455L51.1784 24.1364L53.6178 24.3455C53.8966 24.3455 54.1057 24.5546 54.2451 24.7637C54.3147 25.0425 54.3147 25.3213 54.1057 25.4607L52.5026 27.2728L53.1299 29.6425C53.1996 29.9213 53.1299 30.2001 52.9208 30.3394C52.7117 30.4788 52.4329 30.5485 52.2238 30.4788L49.9935 29.5031L47.9026 30.6879C47.7632 30.8273 47.6238 30.8273 47.4844 30.8273ZM47.136 25.9485L48.1814 26.9243C48.3208 27.0637 48.4602 27.2728 48.3905 27.4819L48.2511 28.8061L49.436 28.1091C49.6451 27.9697 49.8541 27.9697 50.0632 28.0394L51.3178 28.597L51.039 27.2728C50.9693 27.0637 51.039 26.7849 51.1784 26.6455L52.0844 25.6001L50.6905 25.5304C50.4814 25.5304 50.2723 25.391 50.1329 25.1819L49.436 23.997L48.9481 25.2516C48.8784 25.4607 48.6693 25.6001 48.4602 25.6697L47.136 25.9485Z" fill="black"/>
<path d="M35.0089 30.8273C34.8695 30.8273 34.7301 30.7576 34.6604 30.6879C34.4513 30.5485 34.3119 30.2697 34.3119 30.0607L34.521 27.691L32.7089 26.0182C32.4998 25.8091 32.4301 25.6001 32.4998 25.3213C32.5695 25.0425 32.7786 24.9031 33.0573 24.8334L35.427 24.3455L36.3331 22.1152C36.4028 21.9061 36.6816 21.697 36.8907 21.697C37.1695 21.697 37.3786 21.8364 37.518 22.0455L38.7028 24.1364L41.2119 24.3455C41.4907 24.3455 41.6998 24.5546 41.7695 24.7637C41.8392 24.9728 41.8392 25.3213 41.6301 25.4607L40.027 27.2728L40.5846 29.6425C40.6543 29.9213 40.5846 30.2001 40.3755 30.3394C40.1664 30.4788 39.8876 30.5485 39.6786 30.4091L37.4483 29.4334L35.3573 30.6182C35.2876 30.8273 35.1483 30.8273 35.0089 30.8273ZM34.6604 25.9485L35.7058 26.9243C35.8452 27.0637 35.9846 27.2728 35.9149 27.4819L35.7755 28.8061L36.9604 28.1091C37.1695 27.9697 37.3786 27.9697 37.5876 28.0394L38.9119 28.597L38.5634 27.2031C38.4937 26.994 38.5634 26.7849 38.7028 26.5758L39.6089 25.5304L38.2149 25.391C38.0058 25.391 37.7967 25.2516 37.6573 25.0425L36.9604 23.8576L36.4725 25.1122C36.4028 25.3213 36.1937 25.4607 35.9846 25.5304L34.6604 25.9485Z" fill="black"/>
<path d="M43.8603 52.0849C43.6512 52.0849 43.4421 52.0152 43.3027 51.8061L41.2815 49.4364C41.1421 49.2273 41.0724 49.0182 41.1421 48.8091L42.7451 43.5818C42.8845 43.2334 43.233 43.0243 43.5815 43.094C43.6512 43.094 43.7209 43.1637 43.7906 43.2333C43.8603 43.1637 43.93 43.1637 43.9997 43.094C44.3481 42.9546 44.7663 43.1637 44.9057 43.5121L46.5785 48.7394C46.6481 48.9485 46.5785 49.2273 46.4391 49.4364L44.3481 51.8061C44.2785 52.0152 44.0694 52.0849 43.8603 52.0849ZM42.6057 48.8788L43.8603 50.3424L45.1845 48.8788L43.8603 44.8364L42.6057 48.8788Z" fill="black"/>
</g>
</g>
<defs>
<filter id="filter0_i_497_137" x="0" y="0" width="88" height="88" filterUnits="userSpaceOnUse" color-interpolation-filters="sRGB">
<feFlood flood-opacity="0" result="BackgroundImageFix"/>
<feBlend mode="normal" in="SourceGraphic" in2="BackgroundImageFix" result="shape"/>
<feColorMatrix in="SourceAlpha" type="matrix" values="0 0 0 0 0 0 0 0 0 0 0 0 0 0 0 0 0 0 127 0" result="hardAlpha"/>
<feOffset/>
<feGaussianBlur stdDeviation="1"/>
<feComposite in2="hardAlpha" operator="arithmetic" k2="-1" k3="1"/>
<feColorMatrix type="matrix" values="0 0 0 0 0 0 0 0 0 0 0 0 0 0 0 0 0 0 0.36 0"/>
<feBlend mode="normal" in2="shape" result="effect1_innerShadow_497_137"/>
</filter>
<clipPath id="clip0_497_137">
<rect width="88" height="88" fill="white"/>
</clipPath>
<clipPath id="clip1_497_137">
<rect width="46" height="46" fill="white" transform="translate(21 21)"/>
</clipPath>
</defs>
</svg>
