<svg width="88" height="88" viewBox="0 0 88 88" fill="none" xmlns="http://www.w3.org/2000/svg">
<g clip-path="url(#clip0_497_133)" filter="url(#filter0_i_497_133)">
<path d="M55.1955 0H32.8045C14.6871 0 0 14.6871 0 32.8045V55.1955C0 73.3129 14.6871 88 32.8045 88H55.1955C73.3129 88 88 73.3129 88 55.1955V32.8045C88 14.6871 73.3129 0 55.1955 0Z" fill="#ECF9FE"/>
<path d="M44 32.3203C43.5041 32.3203 43.1016 32.7229 43.1016 33.2188C43.1016 33.7146 43.5041 34.1172 44 34.1172C44.4959 34.1172 44.8984 33.7146 44.8984 33.2188C44.8984 32.7229 44.4959 32.3203 44 32.3203Z" fill="black"/>
<path d="M29.0859 48.4922C29.5818 48.4922 29.9844 48.0896 29.9844 47.5938C29.9844 47.0979 29.5818 46.6953 29.0859 46.6953C28.59 46.6953 28.1875 47.0979 28.1875 47.5938C28.1875 48.0896 28.59 48.4922 29.0859 48.4922Z" fill="black"/>
<path d="M51.1875 23.3359C43.0991 23.3359 36.4605 28.9126 35.9471 35.9369C28.244 36.3233 21 41.8778 21 49.3906C21 52.5302 22.2424 55.5723 24.5039 57.9826C24.9514 59.8272 24.4081 61.7824 23.0601 63.1304C22.8032 63.3873 22.7263 63.7737 22.8653 64.1096C23.0043 64.4451 23.3317 64.6641 23.6953 64.6641C26.2576 64.6641 28.7269 63.6593 30.5617 61.8887C32.3491 62.498 34.6812 62.8672 36.8125 62.8672C44.8998 62.8672 51.5378 57.292 52.0526 50.2691C53.9337 50.1855 55.8903 49.8381 57.4383 49.3106C59.2731 51.0812 61.7424 52.0859 64.3047 52.0859C64.6683 52.0859 64.9957 51.8669 65.1347 51.5314C65.2737 51.1956 65.1968 50.8092 64.9399 50.5523C63.5919 49.2043 63.0486 47.2491 63.4961 45.4045C65.7576 42.9942 67 39.9521 67 36.8125C67 29.0063 59.198 23.3359 51.1875 23.3359ZM36.8125 61.0703C34.692 61.0703 32.2757 60.6541 30.6572 60.0101C30.3104 59.8718 29.9142 59.9627 29.6618 60.2382C28.5771 61.4241 27.1666 62.2509 25.6298 62.631C26.4766 61.0085 26.6928 59.0959 26.1776 57.2835C26.1369 57.1407 26.0614 57.0101 25.9579 56.9038C23.9196 54.8044 22.7969 52.1361 22.7969 49.3906C22.7969 43.0594 29.2151 37.7109 36.8125 37.7109C43.9867 37.7109 50.2891 42.6997 50.2891 49.3906C50.2891 55.8309 44.2436 61.0703 36.8125 61.0703ZM62.0421 44.3257C61.9386 44.4324 61.8631 44.5629 61.8224 44.7054C61.3072 46.5177 61.5234 48.4304 62.3702 50.0529C60.8334 49.6731 59.4229 48.8459 58.3382 47.6601C58.0858 47.3849 57.6896 47.2937 57.3428 47.432C55.9401 47.99 53.939 48.3764 52.0498 48.4697C51.7873 45.0722 50.0925 41.8788 47.1951 39.5078H58.9141C59.4103 39.5078 59.8125 39.1056 59.8125 38.6094C59.8125 38.1131 59.4103 37.7109 58.9141 37.7109H44.4348C42.3954 36.6728 40.1055 36.0674 37.7485 35.9404C38.2647 29.9061 44.0951 25.1328 51.1875 25.1328C58.7849 25.1328 65.2031 30.4813 65.2031 36.8125C65.2031 39.558 64.0804 42.2263 62.0421 44.3257Z" fill="black"/>
<path d="M44 46.6953H32.6797C32.1834 46.6953 31.7812 47.0975 31.7812 47.5938C31.7812 48.09 32.1834 48.4922 32.6797 48.4922H44C44.4962 48.4922 44.8984 48.09 44.8984 47.5938C44.8984 47.0975 44.4962 46.6953 44 46.6953Z" fill="black"/>
<path d="M44 52.0859H29.0859C28.5897 52.0859 28.1875 52.4881 28.1875 52.9844C28.1875 53.4806 28.5897 53.8828 29.0859 53.8828H44C44.4962 53.8828 44.8984 53.4806 44.8984 52.9844C44.8984 52.4881 44.4962 52.0859 44 52.0859Z" fill="black"/>
<path d="M58.9141 32.3203H47.5938C47.0975 32.3203 46.6953 32.7225 46.6953 33.2188C46.6953 33.715 47.0975 34.1172 47.5938 34.1172H58.9141C59.4103 34.1172 59.8125 33.715 59.8125 33.2188C59.8125 32.7225 59.4103 32.3203 58.9141 32.3203Z" fill="black"/>
</g>
<defs>
<filter id="filter0_i_497_133" x="0" y="0" width="88" height="88" filterUnits="userSpaceOnUse" color-interpolation-filters="sRGB">
<feFlood flood-opacity="0" result="BackgroundImageFix"/>
<feBlend mode="normal" in="SourceGraphic" in2="BackgroundImageFix" result="shape"/>
<feColorMatrix in="SourceAlpha" type="matrix" values="0 0 0 0 0 0 0 0 0 0 0 0 0 0 0 0 0 0 127 0" result="hardAlpha"/>
<feOffset/>
<feGaussianBlur stdDeviation="1"/>
<feComposite in2="hardAlpha" operator="arithmetic" k2="-1" k3="1"/>
<feColorMatrix type="matrix" values="0 0 0 0 0 0 0 0 0 0 0 0 0 0 0 0 0 0 0.36 0"/>
<feBlend mode="normal" in2="shape" result="effect1_innerShadow_497_133"/>
</filter>
<clipPath id="clip0_497_133">
<rect width="88" height="88" fill="white"/>
</clipPath>
</defs>
</svg>
