<svg width="40" height="40" viewBox="0 0 40 40" fill="none" xmlns="http://www.w3.org/2000/svg">
<rect x="1" y="1" width="38" height="38" rx="19" stroke="#01204C" stroke-width="2"/>
<path d="M20.227 25.3333L20.227 26.5404L21.0805 25.6869L24.4909 22.2765L24.1374 21.9229L24.4909 22.2765C24.5795 22.1879 24.723 22.1879 24.8116 22.2765C24.9001 22.365 24.9001 22.5086 24.8116 22.5971L20.1606 27.2481C20.072 27.3367 19.9285 27.3367 19.8399 27.2481L19.4864 27.6017L19.8399 27.2481L15.1891 22.5974C15.1446 22.5528 15.1226 22.4956 15.1226 22.4369C15.1226 22.3783 15.1446 22.321 15.189 22.2766C15.2775 22.188 15.421 22.188 15.5096 22.2766L15.5096 22.2766L18.92 25.6869L19.7735 26.5404L19.7735 25.3333L19.7735 12.9121C19.7735 12.7869 19.8751 12.6854 20.0003 12.6854C20.1254 12.6854 20.227 12.7869 20.227 12.9121L20.227 25.3333Z" fill="#01204C" stroke="#01204C"/>
</svg>
