<svg width="89" height="88" viewBox="0 0 89 88" fill="none" xmlns="http://www.w3.org/2000/svg">
<g clip-path="url(#clip0_497_135)" filter="url(#filter0_i_497_135)">
<path d="M56.0705 0H33.6795C15.5621 0 0.875 14.6871 0.875 32.8045V55.1955C0.875 73.3129 15.5621 88 33.6795 88H56.0705C74.1879 88 88.875 73.3129 88.875 55.1955V32.8045C88.875 14.6871 74.1879 0 56.0705 0Z" fill="#ECF9FE"/>
<g clip-path="url(#clip1_497_135)">
<path d="M31.3392 38.9819C36.0786 38.9819 39.9816 35.1485 39.9816 30.3394C39.9816 25.6001 36.0786 21.697 31.3392 21.697C26.5998 21.697 22.6968 25.6001 22.6968 30.3394C22.6968 35.0788 26.5998 38.9819 31.3392 38.9819ZM26.5301 35.7758C27.1574 34.5213 28.4119 33.7546 29.8059 33.7546H32.8725C34.2665 33.7546 35.521 34.5213 36.1483 35.7758C34.8937 36.891 33.221 37.5879 31.3392 37.5879C29.4574 37.5879 27.7847 36.891 26.5301 35.7758ZM31.3392 23.0213C35.3816 23.0213 38.5877 26.297 38.5877 30.2697C38.5877 31.9425 38.0301 33.4758 37.0544 34.7304C36.1483 33.2667 34.5453 32.3607 32.8028 32.3607H32.4544C34.0574 31.8728 35.1725 30.4091 35.1725 28.6667C35.1725 26.5061 33.4301 24.7637 31.1998 24.7637C29.0392 24.7637 27.2271 26.5061 27.2271 28.6667C27.2271 30.4091 28.4119 31.8728 29.9453 32.3607H29.5968C27.8544 32.3607 26.2513 33.2667 25.3453 34.7304C24.3695 33.4758 23.8119 31.9425 23.8119 30.2697C24.021 26.297 27.2968 23.0213 31.3392 23.0213ZM31.3392 31.2455C29.9453 31.2455 28.7604 30.1304 28.7604 28.6667C28.7604 27.2031 29.9453 26.0879 31.3392 26.0879C32.7331 26.0879 33.918 27.2031 33.918 28.6667C33.918 30.1304 32.7331 31.2455 31.3392 31.2455Z" fill="black"/>
<path d="M67.3029 30.3394C67.3029 25.6001 63.3999 21.697 58.6605 21.697C53.9211 21.697 50.0181 25.6001 50.0181 30.3394C50.0181 35.1485 53.9211 38.9819 58.6605 38.9819C63.3999 38.9819 67.3029 35.0788 67.3029 30.3394ZM58.6605 23.0213C62.7029 23.0213 65.909 26.297 65.909 30.2697C65.909 31.9425 65.3514 33.4758 64.3756 34.7304C63.4696 33.2667 61.8666 32.3607 60.1241 32.3607H59.7756C61.3787 31.8728 62.4938 30.4091 62.4938 28.6667C62.4938 26.5061 60.7514 24.7637 58.5211 24.7637C56.4999 24.7637 54.7575 26.5061 54.7575 28.6667C54.7575 30.4091 55.9423 31.8728 57.4756 32.3607H57.1272C55.3847 32.3607 53.7817 33.2667 52.8756 34.7304C51.8999 33.4758 51.3423 31.9425 51.3423 30.2697C51.412 26.297 54.6878 23.0213 58.6605 23.0213ZM58.6605 31.2455C57.2666 31.2455 56.0817 30.1304 56.0817 28.6667C56.0817 27.2031 57.2666 26.0879 58.6605 26.0879C60.0544 26.0879 61.2393 27.2031 61.2393 28.6667C61.2393 30.1304 60.1241 31.2455 58.6605 31.2455ZM53.8514 35.7758C54.4787 34.5213 55.7332 33.7546 57.1272 33.7546H60.1938C61.5878 33.7546 62.8423 34.5213 63.4696 35.7758C62.215 36.891 60.5423 37.5879 58.6605 37.5879C56.8484 37.5879 55.1756 36.891 53.8514 35.7758Z" fill="black"/>
<path d="M48.4148 40.5153H41.5845C39.2148 40.5153 37.333 42.6062 37.333 45.185V56.5456C37.333 56.894 37.6118 57.2425 38.03 57.2425H40.33V64.2819C40.33 65.3971 41.236 66.2334 42.3512 66.2334H47.7179C48.833 66.2334 49.7391 65.3274 49.7391 64.2819V57.2425H51.9694C52.3179 57.2425 52.6663 56.9637 52.6663 56.5456V45.185C52.6663 42.6759 50.7845 40.5153 48.4148 40.5153ZM51.2724 55.9183H49.6694V50.2728C49.6694 49.9244 49.3906 49.5759 48.9724 49.5759C48.6239 49.5759 48.2754 49.8547 48.2754 50.2728V64.3516C48.2754 64.7001 47.9966 64.9789 47.6482 64.9789H45.6966V56.9637C45.6966 56.6153 45.4179 56.2668 44.9997 56.2668C44.6512 56.2668 44.3027 56.5456 44.3027 56.9637V64.9789H42.2815C41.933 64.9789 41.6542 64.7001 41.6542 64.3516V50.2728C41.6542 49.9244 41.3754 49.5759 40.9573 49.5759C40.5391 49.5759 40.2603 49.8547 40.2603 50.2728V55.9183H38.6573V45.185C38.6573 43.3728 39.9815 41.8395 41.5148 41.8395H48.3451C49.9482 41.8395 51.2724 43.3031 51.2724 45.185V55.9183Z" fill="black"/>
<path d="M44.9998 40.097C47.5786 40.097 49.6695 38.0061 49.6695 35.497C49.6695 32.9879 47.5786 30.897 44.9998 30.897C42.421 30.897 40.3301 32.9879 40.3301 35.497C40.3301 38.0061 42.421 40.097 44.9998 40.097ZM44.9998 32.2212C46.8119 32.2212 48.3452 33.6849 48.3452 35.497C48.3452 37.3091 46.8119 38.7727 44.9998 38.7727C43.1877 38.7727 41.6543 37.3091 41.6543 35.497C41.6543 33.6849 43.1877 32.2212 44.9998 32.2212Z" fill="black"/>
<path d="M34.8939 56.3364C34.8939 56.6849 34.6152 57.0334 34.197 57.0334H28.9697C28.6212 57.0334 28.2727 56.7546 28.2727 56.3364V44.4879L26.4606 46.4394C26.1818 46.7182 25.7636 46.7182 25.4849 46.5091C25.2061 46.2303 25.2061 45.8122 25.4152 45.5334L28.3424 42.2576C28.6909 41.9788 28.6212 42.0485 28.8303 42.0485C29.7364 42.3273 28.9697 42.1879 32.3849 45.5334C32.6636 45.8122 32.5939 46.2303 32.3849 46.5091C32.1061 46.7879 31.6879 46.7182 31.4091 46.4394L29.6667 44.4182V55.6394H34.197C34.6152 55.6394 34.8939 55.9182 34.8939 56.3364Z" fill="black"/>
<path d="M61.5182 42.2576C61.0303 41.7697 60.5424 42.2576 60.5424 42.2576L57.4758 45.5334C57.197 45.8122 57.2667 46.2303 57.5455 46.5091C57.8243 46.7879 58.2424 46.7182 58.5212 46.4394L60.4031 44.4182V55.6394H55.8728C55.5243 55.6394 55.1758 55.9182 55.1758 56.3364C55.1758 56.6849 55.4546 57.0334 55.8728 57.0334H61.0303C61.3788 57.0334 61.7273 56.7546 61.7273 56.3364V44.4879L63.5394 46.4394C63.8182 46.7182 64.2364 46.7182 64.5152 46.5091C64.794 46.2303 64.794 45.8122 64.5849 45.5334L61.5182 42.2576Z" fill="black"/>
</g>
</g>
<defs>
<filter id="filter0_i_497_135" x="0.875" y="0" width="88" height="88" filterUnits="userSpaceOnUse" color-interpolation-filters="sRGB">
<feFlood flood-opacity="0" result="BackgroundImageFix"/>
<feBlend mode="normal" in="SourceGraphic" in2="BackgroundImageFix" result="shape"/>
<feColorMatrix in="SourceAlpha" type="matrix" values="0 0 0 0 0 0 0 0 0 0 0 0 0 0 0 0 0 0 127 0" result="hardAlpha"/>
<feOffset/>
<feGaussianBlur stdDeviation="1"/>
<feComposite in2="hardAlpha" operator="arithmetic" k2="-1" k3="1"/>
<feColorMatrix type="matrix" values="0 0 0 0 0 0 0 0 0 0 0 0 0 0 0 0 0 0 0.36 0"/>
<feBlend mode="normal" in2="shape" result="effect1_innerShadow_497_135"/>
</filter>
<clipPath id="clip0_497_135">
<rect width="88" height="88" fill="white" transform="translate(0.875)"/>
</clipPath>
<clipPath id="clip1_497_135">
<rect width="46" height="46" fill="white" transform="translate(22 21)"/>
</clipPath>
</defs>
</svg>
