<svg width="89" height="88" viewBox="0 0 89 88" fill="none" xmlns="http://www.w3.org/2000/svg">
<g clip-path="url(#clip0_497_134)" filter="url(#filter0_i_497_134)">
<path d="M55.8205 0H33.4295C15.3121 0 0.625 14.6871 0.625 32.8045V55.1955C0.625 73.3129 15.3121 88 33.4295 88H55.8205C73.9379 88 88.625 73.3129 88.625 55.1955V32.8045C88.625 14.6871 73.9379 0 55.8205 0Z" fill="#ECF9FE"/>
<g clip-path="url(#clip1_497_134)">
<path fill-rule="evenodd" clip-rule="evenodd" d="M39.7882 55.9312C39.7629 55.7436 39.8127 55.5535 39.9267 55.4023C40.0407 55.2511 40.2098 55.1511 40.3972 55.1238C40.5846 55.0966 40.7752 55.1444 40.9275 55.2569C41.0798 55.3694 41.1816 55.5375 41.2107 55.7246C41.3534 56.7314 41.236 57.758 40.8697 58.7067C40.5034 59.6553 39.9004 60.4944 39.1181 61.1441C38.9711 61.2654 38.7819 61.3234 38.5921 61.3052C38.4023 61.2871 38.2275 61.1943 38.1062 61.0472C37.9848 60.9002 37.9269 60.711 37.945 60.5212C37.9632 60.3314 38.056 60.1567 38.203 60.0353C38.7955 59.5434 39.2522 58.9079 39.5297 58.1896C39.8072 57.4712 39.8962 56.6937 39.7882 55.9312ZM43.5886 58.6788C43.398 58.6788 43.2152 58.603 43.0804 58.4682C42.9456 58.3335 42.8699 58.1506 42.8699 57.96V55.285C42.8699 55.0944 42.9456 54.9116 43.0804 54.7768C43.2152 54.642 43.398 54.5663 43.5886 54.5663C43.7793 54.5663 43.9621 54.642 44.0969 54.7768C44.2317 54.9116 44.3074 55.0944 44.3074 55.285V57.96C44.3074 58.1506 44.2317 58.3335 44.0969 58.4682C43.9621 58.603 43.7793 58.6788 43.5886 58.6788ZM46.5192 59.2424C46.3286 59.2424 46.1458 59.1667 46.011 59.0319C45.8762 58.8971 45.8005 58.7143 45.8005 58.5237V56.1746C45.8005 55.984 45.8762 55.8012 46.011 55.6664C46.1458 55.5316 46.3286 55.4559 46.5192 55.4559C46.7099 55.4559 46.8927 55.5316 47.0275 55.6664C47.1623 55.8012 47.238 55.984 47.238 56.1746V58.5237C47.238 58.7143 47.1623 58.8971 47.0275 59.0319C46.8927 59.1667 46.7099 59.2424 46.5192 59.2424ZM50.2197 56.2277C50.145 56.9082 50.2183 57.5968 50.4348 58.2462C50.6513 58.8956 51.0058 59.4905 51.4739 59.9899C51.5405 60.0584 51.5927 60.1395 51.6275 60.2283C51.6624 60.3172 51.6791 60.4121 51.6769 60.5076C51.6747 60.603 51.6534 60.697 51.6145 60.7842C51.5755 60.8713 51.5195 60.9498 51.4499 61.0151C51.3802 61.0804 51.2983 61.1312 51.2088 61.1644C51.1193 61.1977 51.0241 61.2128 50.9287 61.2088C50.8333 61.2049 50.7397 61.182 50.6533 61.1415C50.5668 61.101 50.4893 61.0436 50.4253 60.9728C49.8153 60.3222 49.3534 59.5473 49.0712 58.7013C48.7889 57.8553 48.693 56.9583 48.7901 56.0718C48.8108 55.8822 48.906 55.7086 49.0546 55.5892C49.2033 55.4697 49.3933 55.4143 49.5829 55.435C49.7725 55.4556 49.9461 55.5508 50.0655 55.6995C50.1849 55.8481 50.2404 56.0382 50.2197 56.2277ZM49.3413 65.5625C49.3607 65.4048 49.3719 65.2462 49.3748 65.0873C49.6911 65.0119 50.021 65.0158 50.3354 65.0987C50.6498 65.1816 50.9387 65.3409 51.1767 65.5625H49.3413ZM47.8866 65.5625H43.5047C43.3466 64.8003 42.9326 64.1151 42.3314 63.6206C42.6646 62.9916 43.2123 62.5028 43.875 62.2429C44.5377 61.9831 45.2716 61.9693 45.9435 62.2042C46.6155 62.4391 47.181 62.9071 47.5375 63.5232C47.894 64.1394 48.0178 64.8629 47.8866 65.5625ZM38.317 65.5625C38.457 65.1851 38.7092 64.8595 39.0396 64.6296C39.37 64.3997 39.7629 64.2765 40.1655 64.2765C40.568 64.2765 40.9609 64.3997 41.2914 64.6296C41.6218 64.8595 41.874 65.1851 42.0139 65.5625H38.317ZM57.4011 65.5625H52.9209C52.5981 64.8705 52.0522 64.3069 51.3708 63.9623C50.6894 63.6177 49.9119 63.5121 49.1633 63.6623C48.897 62.8348 48.3924 62.1043 47.7127 61.5623C47.033 61.0204 46.2084 60.6912 45.3424 60.616C44.4764 60.5408 43.6074 60.7229 42.8444 61.1395C42.0815 61.5561 41.4585 62.1886 41.0535 62.9578C40.7641 62.8789 40.4655 62.8389 40.1655 62.8387C39.3811 62.8413 38.6214 63.1134 38.0136 63.6092C37.4058 64.105 36.9868 64.7946 36.8267 65.5625H32.5982C32.4076 65.5625 32.2248 65.6382 32.09 65.773C31.9552 65.9078 31.8795 66.0906 31.8795 66.2812C31.8795 66.4719 31.9552 66.6547 32.09 66.7895C32.2248 66.9243 32.4076 67 32.5982 67H57.4011C57.5917 67 57.7746 66.9243 57.9094 66.7895C58.0441 66.6547 58.1199 66.4719 58.1199 66.2812C58.1199 66.0906 58.0441 65.9078 57.9094 65.773C57.7746 65.6382 57.5917 65.5625 57.4011 65.5625ZM59.4988 56.284C57.659 54.1049 55.0997 52.6566 52.2843 52.2014C53.294 49.615 53.9751 47.3588 54.2053 45.1826C55.3949 45.4648 56.5028 46.0196 57.4414 46.8031C58.38 47.5866 59.1237 48.5775 59.6139 49.6976C60.0766 50.7373 60.306 51.8657 60.2861 53.0036C60.2662 54.1414 59.9974 55.2611 59.4986 56.284H59.4988ZM51.6349 49.7955C53.7851 43.5064 53.0132 40.4298 50.0195 33.3322C47.9629 28.4543 45.8936 24.2213 44.9941 22.7969C44.0892 24.2402 41.9851 28.5488 39.8802 33.519C36.825 40.7335 36.3092 43.9499 38.3726 49.8949C40.3643 48.842 42.6867 48.3041 45.1162 48.333C47.3668 48.3652 49.5863 48.8633 51.6349 49.7957V49.7955ZM50.2593 53.3712C47.0562 52.0505 42.9291 52.0505 39.7218 53.3712C39.4102 52.627 39.1274 51.9259 38.8723 51.2599C42.3887 49.3216 47.13 49.2873 51.1449 51.1521C50.8809 51.8497 50.5863 52.5865 50.259 53.3712H50.2593ZM30.5001 56.284C30.0013 55.2611 29.7326 54.1413 29.7129 53.0035C29.6931 51.8656 29.9227 50.7372 30.3856 49.6976C30.8752 48.5787 31.6178 47.5886 32.555 46.8054C33.4922 46.0222 34.5985 45.4673 35.7866 45.1843C36.0087 47.3634 36.6856 49.6141 37.6974 52.2039C34.8886 52.6625 32.3361 54.1095 30.5001 56.284ZM60.9291 49.1195C60.3331 47.7565 59.4195 46.556 58.2648 45.6182C57.11 44.6804 55.7476 44.0326 54.2914 43.7289C54.2922 43.6365 54.2931 43.5441 54.2922 43.4521C54.2652 40.288 53.2347 37.2578 51.3447 32.7737C50.2168 30.0996 48.9108 27.2237 47.8497 25.0806C47.2809 23.9315 46.7986 23.0223 46.4166 22.378C45.8623 21.4445 45.5079 21 44.9908 21C44.4697 21 44.1261 21.4361 43.5522 22.4135C43.1644 23.074 42.6731 24.006 42.092 25.1844C41.0175 27.363 39.6959 30.269 38.557 32.9585C36.7835 37.1466 35.6879 40.4125 35.7069 43.7297C34.2509 44.0335 32.8887 44.6813 31.734 45.6189C30.5794 46.5565 29.6658 47.7568 29.0696 49.1195C28.4374 50.5386 28.1744 52.0945 28.3051 53.6425C28.4357 55.1906 28.9558 56.6804 29.8168 57.9735C29.8817 58.071 29.9695 58.1512 30.0725 58.207C30.1755 58.2628 30.2906 58.2925 30.4077 58.2935H30.4149C30.5309 58.2936 30.6452 58.2655 30.7481 58.2118C30.8509 58.1581 30.9392 58.0802 31.0054 57.985C31.8397 56.7864 32.9151 55.7751 34.1627 55.0159C35.4102 54.2567 36.8025 53.7662 38.2505 53.5759C38.3903 53.915 38.5353 54.2602 38.6854 54.6114C38.7238 54.7014 38.7801 54.7826 38.8509 54.8501C38.9217 54.9175 39.0056 54.9698 39.0973 55.0038C39.189 55.0377 39.2867 55.0526 39.3844 55.0474C39.4821 55.0423 39.5777 55.0172 39.6653 54.9739C42.7536 53.4446 47.2326 53.4446 50.3153 54.9739C50.4146 55.0234 50.524 55.0491 50.6349 55.0489C50.7758 55.0489 50.9136 55.0075 51.0312 54.9298C51.1488 54.8521 51.2409 54.7415 51.2961 54.6119C51.4459 54.2596 51.5911 53.9138 51.7319 53.5743C53.1831 53.7625 54.5788 54.2522 55.8295 55.0119C57.0802 55.7716 58.1581 56.7845 58.994 57.9856C59.0602 58.0809 59.1485 58.1587 59.2513 58.2124C59.3541 58.2661 59.4684 58.2942 59.5844 58.2941H59.5916C59.7089 58.2931 59.8242 58.2633 59.9274 58.2074C60.0306 58.1515 60.1185 58.0712 60.1834 57.9735C61.0446 56.6804 61.5646 55.1905 61.6951 53.6425C61.8256 52.0944 61.5624 50.5385 60.9298 49.1195H60.9291ZM48.4318 41.5687L43.2442 44.5638C43.1497 44.6189 43.0423 44.6481 42.9329 44.6483C42.8235 44.6486 42.716 44.6199 42.6213 44.5651C42.5266 44.5104 42.4481 44.4315 42.3937 44.3366C42.3393 44.2417 42.311 44.1341 42.3117 44.0247V38.035C42.3101 37.9255 42.338 37.8175 42.3925 37.7225C42.4469 37.6274 42.5259 37.5487 42.6211 37.4946C42.7163 37.4401 42.8238 37.4109 42.9335 37.4098C43.0429 37.4106 43.1501 37.4404 43.2442 37.4962L48.4318 40.4912C48.5259 40.5463 48.6039 40.6249 48.6581 40.7194C48.7123 40.814 48.7409 40.921 48.7409 41.03C48.7409 41.139 48.7123 41.246 48.6581 41.3405C48.6039 41.435 48.5259 41.5137 48.4318 41.5687ZM49.1506 39.2464C49.4631 39.4275 49.7225 39.6876 49.9029 40.0006C50.0832 40.3136 50.1782 40.6685 50.1782 41.0298C50.1782 41.391 50.0832 41.7459 49.9029 42.0589C49.7225 42.3719 49.4631 42.632 49.1506 42.8132L43.963 45.8082C43.6507 45.9916 43.2952 46.0884 42.9331 46.0888C42.5709 46.0892 42.2152 45.9931 41.9025 45.8104C41.588 45.6308 41.327 45.3708 41.1462 45.0571C40.9654 44.7433 40.8714 44.3871 40.8738 44.025V38.035C40.8732 37.6732 40.9679 37.3177 41.1485 37.0042C41.3291 36.6908 41.5892 36.4305 41.9025 36.2496C42.2158 36.0687 42.5712 35.9736 42.933 35.9739C43.2947 35.9742 43.65 36.0699 43.963 36.2513L49.1506 39.2464Z" fill="black"/>
</g>
</g>
<defs>
<filter id="filter0_i_497_134" x="0.625" y="0" width="88" height="88" filterUnits="userSpaceOnUse" color-interpolation-filters="sRGB">
<feFlood flood-opacity="0" result="BackgroundImageFix"/>
<feBlend mode="normal" in="SourceGraphic" in2="BackgroundImageFix" result="shape"/>
<feColorMatrix in="SourceAlpha" type="matrix" values="0 0 0 0 0 0 0 0 0 0 0 0 0 0 0 0 0 0 127 0" result="hardAlpha"/>
<feOffset/>
<feGaussianBlur stdDeviation="1"/>
<feComposite in2="hardAlpha" operator="arithmetic" k2="-1" k3="1"/>
<feColorMatrix type="matrix" values="0 0 0 0 0 0 0 0 0 0 0 0 0 0 0 0 0 0 0.36 0"/>
<feBlend mode="normal" in2="shape" result="effect1_innerShadow_497_134"/>
</filter>
<clipPath id="clip0_497_134">
<rect width="88" height="88" fill="white" transform="translate(0.625)"/>
</clipPath>
<clipPath id="clip1_497_134">
<rect width="46" height="46" fill="white" transform="translate(22 21)"/>
</clipPath>
</defs>
</svg>
