<svg width="68" height="60" viewBox="0 0 68 60" fill="none" xmlns="http://www.w3.org/2000/svg">
<g clip-path="url(#clip0_325_407)">
<path d="M66.4657 45.4313C66.0983 45.3163 65.7793 45.0829 65.5585 44.7677C65.3378 44.4525 65.2276 44.073 65.2452 43.6886C65.2452 43.4272 65.2452 43.1659 65.2452 42.9044C65.2452 42.6431 65.2452 42.3816 65.2452 42.1202C65.2265 41.7381 65.3342 41.3603 65.5516 41.0454C65.769 40.7304 66.0841 40.4958 66.4483 40.3776C66.9943 40.226 67.4607 39.8694 67.7498 39.3823C68.039 38.8952 68.1287 38.3152 68.0001 37.7636C67.9408 37.4679 67.8197 37.1881 67.6448 36.9424C67.4699 36.6967 67.2452 36.4906 66.9852 36.3377C66.7252 36.1847 66.4358 36.0883 66.136 36.0547C65.8361 36.0212 65.5326 36.0512 65.2452 36.1429C64.9408 36.2332 64.6176 36.2387 64.3103 36.1589C64.003 36.079 63.7234 35.9168 63.5016 35.6898V3.48533C63.5016 2.56097 63.1342 1.67446 62.4802 1.02083C61.8263 0.367204 60.9393 0 60.0144 0L3.74877 0C2.75295 0.00460789 1.79949 0.403221 1.09696 1.10864C0.39444 1.81406 4.43431e-05 2.76885 5.50151e-05 3.76416V42.7128C-0.0522483 43.7611 0.312634 44.7876 1.01501 45.5679C1.71739 46.3483 2.70019 46.8192 3.74877 46.8777H15.6924C15.6139 47.0975 15.6139 47.3376 15.6924 47.5574L16.2329 49.5789C16.2941 49.8061 16.4355 50.0036 16.631 50.1349C16.8264 50.2662 17.0628 50.3225 17.2965 50.2934L19.319 50.032C19.5054 50.305 19.7218 50.5564 19.9642 50.7813C20.1871 51.0191 20.4323 51.235 20.6965 51.4261L20.4524 53.465C20.4232 53.6986 20.4795 53.9348 20.6109 54.1301C20.7423 54.3255 20.9399 54.4668 21.1672 54.528L23.1724 55.0857C23.4037 55.1427 23.6477 55.1163 23.8614 55.0111C24.0751 54.9059 24.2448 54.7286 24.3406 54.5106L25.1426 52.6111C25.7867 52.5498 26.4167 52.385 27.0083 52.1232L28.6472 53.3605C28.8366 53.4987 29.0694 53.5642 29.3031 53.545C29.5368 53.5258 29.7558 53.4232 29.9201 53.2559L31.4021 51.7746C31.5578 51.5993 31.6437 51.373 31.6437 51.1385C31.6437 50.9041 31.5578 50.6778 31.4021 50.5025L30.2513 48.7947C30.5035 48.2413 30.6738 47.6543 30.757 47.052L30.9837 46.9649H35.4647C35.3251 47.3834 35.3251 47.8359 35.4647 48.2544C35.6016 48.6883 35.8731 49.0673 36.2398 49.3368C36.6065 49.6062 37.0495 49.752 37.5047 49.7531C37.7297 49.7538 37.9534 49.7185 38.1672 49.6486C38.5488 49.5107 38.9664 49.5101 39.3483 49.6469C39.7302 49.7836 40.0525 50.0492 40.2595 50.3979C40.5068 50.7991 40.7806 51.1833 41.079 51.5481C41.3266 51.8572 41.4615 52.2413 41.4615 52.6372C41.4615 53.0332 41.3266 53.4173 41.079 53.7264C40.7521 54.1658 40.6013 54.7115 40.6561 55.2564C40.7109 55.8012 40.9675 56.306 41.3754 56.6715C41.757 57.0187 42.2543 57.2113 42.7703 57.2117C43.1109 57.2139 43.447 57.1344 43.7505 56.9797C44.0539 56.825 44.3157 56.5998 44.5139 56.323C44.7439 56.0019 45.0762 55.7684 45.4563 55.6608C45.8364 55.5531 46.2419 55.5777 46.6062 55.7305C47.0913 55.9192 47.586 56.082 48.0883 56.2184C48.4784 56.3104 48.8248 56.5339 49.0694 56.8513C49.3139 57.1687 49.4415 57.5606 49.4308 57.9611C49.4217 58.4985 49.6101 59.0207 49.9603 59.4286C50.3106 59.8365 50.7984 60.1018 51.3313 60.1743C51.6314 60.2062 51.9349 60.1744 52.2218 60.081C52.5088 59.9877 52.7728 59.8349 52.9966 59.6325C53.2204 59.4302 53.399 59.183 53.5206 58.907C53.6423 58.631 53.7043 58.3324 53.7026 58.0308C53.7132 57.628 53.8552 57.2397 54.107 56.9251C54.3588 56.6105 54.7067 56.3868 55.0975 56.2881C55.5683 56.1487 56.039 56.0093 56.4749 55.835C56.8545 55.6809 57.2745 55.6572 57.669 55.7676C58.0635 55.878 58.4101 56.1162 58.6544 56.445V56.5321C58.8535 56.8068 59.116 57.0294 59.4195 57.1811C59.723 57.3328 60.0587 57.4091 60.398 57.4034C60.916 57.4024 61.4167 57.2171 61.8103 56.8806C62.2169 56.5098 62.4707 56.0009 62.5223 55.4532C62.5739 54.9055 62.4195 54.3582 62.0893 53.9181C61.8433 53.5983 61.7099 53.2062 61.7099 52.8028C61.7099 52.3994 61.8433 52.0073 62.0893 51.6875C62.382 51.3244 62.6555 50.9463 62.9088 50.5548C63.1158 50.2061 63.4381 49.9405 63.82 49.8037C64.2019 49.6669 64.6196 49.6675 65.0011 49.8054C65.2156 49.8727 65.4389 49.9079 65.6637 49.91C66.1195 49.9116 66.5638 49.7668 66.931 49.497C67.2983 49.2272 67.5692 48.8466 67.7037 48.4113C67.8729 47.8613 67.8176 47.2667 67.5497 46.7573C67.2818 46.248 66.8232 45.8652 66.2739 45.6927M16.1457 2.30032C16.3281 2.30031 16.5086 2.33648 16.6769 2.40676C16.8451 2.47703 16.9978 2.58 17.1259 2.70969C17.254 2.83938 17.3551 2.99321 17.4233 3.16226C17.4915 3.3313 17.5254 3.5122 17.5231 3.69445C17.5231 4.05958 17.378 4.40975 17.1197 4.66793C16.8614 4.92611 16.511 5.07116 16.1457 5.07116C15.7804 5.07116 15.43 4.92611 15.1717 4.66793C14.9134 4.40975 14.7683 4.05958 14.7683 3.69445C14.766 3.5122 14.7999 3.3313 14.8681 3.16226C14.9363 2.99321 15.0373 2.83938 15.1655 2.70969C15.2936 2.58 15.4463 2.47703 15.6145 2.40676C15.7828 2.33648 15.9633 2.30031 16.1457 2.30032ZM10.4616 2.30032C10.644 2.30031 10.8245 2.33648 10.9928 2.40676C11.161 2.47703 11.3137 2.58 11.4418 2.70969C11.5699 2.83938 11.671 2.99321 11.7392 3.16226C11.8074 3.3313 11.8413 3.5122 11.839 3.69445C11.839 4.05958 11.6939 4.40975 11.4356 4.66793C11.1773 4.92611 10.8269 5.07116 10.4616 5.07116C10.0963 5.07116 9.74592 4.92611 9.4876 4.66793C9.22928 4.40975 9.08416 4.05958 9.08416 3.69445C9.08185 3.5122 9.11577 3.3313 9.18396 3.16226C9.25215 2.99321 9.35325 2.83938 9.48138 2.70969C9.60952 2.58 9.76215 2.47703 9.93041 2.40676C10.0987 2.33648 10.2792 2.30031 10.4616 2.30032ZM4.77749 2.30032C5.1444 2.3049 5.49473 2.45381 5.75256 2.71476C6.01039 2.97572 6.15496 3.32771 6.15493 3.69445C6.15149 3.96597 6.06779 4.23041 5.91436 4.4545C5.76093 4.6786 5.54462 4.85234 5.29264 4.95387C5.04067 5.0554 4.76428 5.08019 4.49824 5.02512C4.2322 4.97005 3.9884 4.83757 3.7975 4.64436C3.6066 4.45115 3.47714 4.20583 3.42539 3.93926C3.37363 3.67269 3.40191 3.39678 3.50666 3.14624C3.61141 2.89569 3.78795 2.6817 4.01407 2.53118C4.2402 2.38066 4.50581 2.30034 4.77749 2.30032ZM26.8688 48.7947C26.2194 49.4177 25.3541 49.7656 24.4539 49.7656C23.5537 49.7656 22.6884 49.4177 22.039 48.7947C21.5417 48.2956 21.2074 47.6576 21.0801 46.9649V46.808C21.0152 46.2862 21.0694 45.7564 21.2385 45.2585C21.4076 44.7605 21.6872 44.3072 22.0565 43.9326C22.7059 43.3096 23.5712 42.9617 24.4713 42.9617C25.3715 42.9617 26.2368 43.3096 26.8862 43.9326C27.5199 44.5833 27.8745 45.4556 27.8745 46.3636C27.8745 47.2717 27.5199 48.1439 26.8862 48.7947M41.5498 29.0503C41.3231 29.2173 41.1316 29.4274 40.9861 29.6684C40.8406 29.9094 40.7441 30.1768 40.702 30.4551C40.6599 30.7334 40.6731 31.0173 40.7408 31.2906C40.8084 31.5638 40.9293 31.8211 41.0965 32.0476V32.1522C41.3529 32.464 41.4931 32.8551 41.4931 33.2588C41.4931 33.6624 41.3529 34.0536 41.0965 34.3654C40.8001 34.7313 40.5385 35.1147 40.277 35.4981C40.0726 35.8499 39.7515 36.1192 39.3694 36.2592C38.9873 36.3992 38.5681 36.4013 38.1847 36.2649C37.909 36.1742 37.6177 36.1403 37.3285 36.1654C37.0393 36.1905 36.7583 36.274 36.5023 36.4109C36.2464 36.5478 36.0209 36.7351 35.8395 36.9617C35.6582 37.1882 35.5247 37.4491 35.4472 37.7287C35.3048 38.2737 35.3774 38.8526 35.65 39.3456C35.9226 39.8386 36.3744 40.2081 36.9119 40.3776C37.2793 40.4926 37.5982 40.726 37.819 41.0412C38.0398 41.3564 38.15 41.7359 38.1324 42.1202C38.1324 42.3816 38.1324 42.6256 38.1324 42.887V43.3575H32.7621L32.6749 43.009C32.6137 42.7817 32.4723 42.5843 32.2768 42.453C32.0814 42.3217 31.845 42.2654 31.6113 42.2945L29.6411 42.5036C29.4265 42.2595 29.1933 42.0322 28.9436 41.824C28.7108 41.5901 28.4601 41.3745 28.1939 41.1792L28.438 39.1403C28.4679 38.9045 28.4122 38.6658 28.281 38.4676C28.1499 38.2693 27.9519 38.1247 27.7231 38.0598L25.718 37.5196C25.489 37.4598 25.2461 37.4851 25.0345 37.5909C24.8228 37.6967 24.6567 37.8757 24.5672 38.0947L23.7652 39.9768C23.1166 40.0544 22.4824 40.2246 21.8821 40.4821L20.2431 39.2449C20.0538 39.1066 19.821 39.0411 19.5872 39.0603C19.3535 39.0795 19.1346 39.1821 18.9703 39.3494L17.4883 40.8132C17.3411 40.996 17.2608 41.2235 17.2608 41.458C17.2608 41.6926 17.3411 41.9201 17.4883 42.1028L18.4472 43.375H3.76621C3.66913 43.2958 3.59294 43.194 3.54431 43.0785C3.49568 42.9631 3.47608 42.8375 3.48723 42.7128V7.85943H59.7878V28.7191C59.3713 28.8665 59.0074 29.1332 58.7416 29.4859C58.5125 29.8031 58.1833 30.034 57.8069 30.1415C57.4305 30.249 57.0289 30.2268 56.6667 30.0784C56.1817 29.8897 55.687 29.7268 55.1847 29.5905C54.7946 29.4985 54.4481 29.275 54.2036 28.9576C53.9591 28.6402 53.8314 28.2483 53.8421 27.8478C53.847 27.3133 53.6567 26.7954 53.3068 26.3912C52.9569 25.9869 52.4715 25.7241 51.9416 25.6521C51.6313 25.6136 51.3164 25.6434 51.0188 25.7394C50.7213 25.8353 50.4484 25.9952 50.2191 26.2077C49.9899 26.4202 49.8099 26.6802 49.6918 26.9696C49.5737 27.2589 49.5204 27.5705 49.5354 27.8827C49.5232 28.2824 49.3826 28.6675 49.1346 28.9813C48.8866 29.2951 48.5442 29.5209 48.158 29.6253C47.6735 29.75 47.1962 29.9013 46.7283 30.0784C46.3579 30.2385 45.9434 30.2652 45.5555 30.154C45.1675 30.0428 44.8303 29.8005 44.6011 29.4685V29.3814C44.4354 29.1529 44.2259 28.9597 43.9848 28.8129C43.7437 28.6662 43.4757 28.5689 43.1966 28.5268C42.9175 28.4846 42.6327 28.4984 42.359 28.5673C42.0852 28.6362 41.8279 28.7589 41.6021 28.9283M51.6626 50.8859C50.0707 50.8962 48.5115 50.4339 47.1828 49.5574C45.8541 48.681 44.8157 47.43 44.1993 45.9629C43.5829 44.4959 43.4163 42.879 43.7205 41.3172C44.0247 39.7554 44.7861 38.319 45.9081 37.1902C47.0301 36.0615 48.4622 35.2911 50.0229 34.9769C51.5835 34.6626 53.2023 34.8186 54.6741 35.4251C56.1459 36.0316 57.4044 37.0613 58.2899 38.3835C59.1755 39.7057 59.6482 41.261 59.6483 42.8522C59.6529 43.9041 59.4498 44.9465 59.0508 45.9199C58.6517 46.8932 58.0645 47.7784 57.3227 48.5246C56.581 49.2708 55.6992 49.8635 54.728 50.2687C53.7567 50.6738 52.7151 50.8836 51.6626 50.8859Z" fill="#01204C"/>
</g>
<defs>
<clipPath id="clip0_325_407">
<rect width="68" height="60" fill="white"/>
</clipPath>
</defs>
</svg>
