<svg width="102" height="79" viewBox="0 0 102 79" fill="none" xmlns="http://www.w3.org/2000/svg">
<path d="M45.6238 34.4586C43.3557 41.9559 46.4901 47.9711 53.1274 49.0679C54.6924 49.3265 56.8375 48.8558 58.0381 47.8834C59.7459 46.4989 59.1831 44.352 58.1515 42.4975C55.4776 37.688 51.2167 35.4007 45.6238 34.4586ZM79.823 13.9853C78.3512 9.7511 72.8811 8.23552 73.7956 2.5633C74.8754 3.1756 75.6258 3.43866 76.1654 3.93202C82.1137 9.37605 88.0715 14.8132 93.915 20.3695C94.8718 21.2798 95.9858 22.873 95.8069 23.9469C95.4773 25.9224 93.5111 25.8359 91.7787 25.6718C86.393 25.163 81.0009 24.722 75.5758 24.2513C76.5515 21.1422 76.5515 21.1422 85.6905 20.6153C72.0966 10.7254 54.1587 15.0445 47.4145 30.026C48.9395 30.6135 50.472 31.1505 51.9614 31.7891C56.3471 33.6696 59.784 36.5684 61.8329 40.9874C63.3411 44.2423 63.4153 47.4324 61.1312 50.2816C58.7799 53.2144 55.5267 53.4055 52.1148 52.5907C44.7235 50.825 40.4691 45.0805 40.8439 37.4236C40.8902 36.479 40.7874 35.5269 40.7423 34.2449C31.1364 34.8124 22.7387 37.8385 16.1086 44.5416C5.88722 54.8759 10.2435 66.6668 17.3957 73.9225C18.2802 74.8195 19.3317 75.5513 20.9071 76.8588C17.6921 76.9728 15.8941 75.5585 14.1607 74.1784C7.31555 68.7278 4.42986 58.2889 7.43595 50.0429C9.36023 44.7659 12.6952 40.5611 17.3453 37.4486C24.1861 32.8705 31.6654 30.1268 39.97 29.8843C40.7871 29.8603 41.6022 29.784 42.6845 29.7155C46.2537 23.0184 50.5737 16.9506 57.9859 13.7912C65.2218 10.7064 72.4272 12.7118 79.823 13.9853Z" fill="#71C0DD"/>
</svg>
