<svg width="65" height="60" viewBox="0 0 65 60" fill="none" xmlns="http://www.w3.org/2000/svg">
<g clip-path="url(#clip0_325_576)">
<path d="M51.5502 56.2573H45.3002L44.0335 52.4979H20.9668L19.7002 56.2573H13.4502C12.9551 56.2573 12.4803 56.4545 12.1302 56.8054C11.7802 57.1564 11.5835 57.6324 11.5835 58.1287C11.5835 58.625 11.7802 59.101 12.1302 59.4519C12.4803 59.8029 12.9551 60 13.4502 60H51.5502C52.0452 60 52.52 59.8029 52.8701 59.4519C53.2202 59.101 53.4168 58.625 53.4168 58.1287C53.4168 57.6324 53.2202 57.1564 52.8701 56.8054C52.52 56.4545 52.0452 56.2573 51.5502 56.2573Z" fill="#01204C"/>
<path d="M59.1667 0.000238248H5.71667C4.9725 -0.00637341 4.23432 0.134029 3.54429 0.413427C2.85425 0.692825 2.22587 1.10575 1.69502 1.62862C1.16417 2.15149 0.741258 2.77406 0.450425 3.46079C0.159592 4.14752 0.0065372 4.88495 0 5.63098L0 37.5107H11.55V31.8799C11.5716 31.3909 11.7818 30.9294 12.1362 30.5927C12.4907 30.2561 12.9617 30.0706 13.45 30.0754H16.4C16.5906 29.5039 16.8189 28.9458 17.0833 28.4046L15 26.3494C14.8231 26.1766 14.6825 25.9701 14.5865 25.742C14.4905 25.5138 14.4411 25.2687 14.4411 25.0211C14.4411 24.7735 14.4905 24.5284 14.5865 24.3003C14.6825 24.0722 14.8231 23.8656 15 23.6928L20.3833 18.3795C20.7416 18.0275 21.2233 17.8303 21.725 17.8303C22.2267 17.8303 22.7084 18.0275 23.0667 18.3795L25.15 20.4179C25.6833 20.1673 26.2333 19.9501 26.8167 19.7496V16.8758C26.8297 16.3838 27.0339 15.9163 27.3857 15.573C27.7374 15.2297 28.2091 15.0377 28.7 15.0378H36.3167C36.564 15.0356 36.8093 15.0823 37.0387 15.1751C37.268 15.268 37.4769 15.4052 37.6533 15.579C37.8297 15.7528 37.9703 15.9597 38.0669 16.1879C38.1636 16.4161 38.2145 16.6612 38.2167 16.9092V19.7997C38.7667 20.0002 39.3167 20.2174 39.8833 20.4681L41.9333 18.3795C42.2916 18.0275 42.7733 17.8303 43.275 17.8303C43.7767 17.8303 44.2584 18.0275 44.6167 18.3795L50 23.6928C50.1769 23.8656 50.3175 24.0722 50.4135 24.3003C50.5095 24.5284 50.5589 24.7735 50.5589 25.0211C50.5589 25.2687 50.5095 25.5138 50.4135 25.742C50.3175 25.9701 50.1769 26.1766 50 26.3494L47.9167 28.4046C48.1811 28.9458 48.4093 29.5039 48.6 30.0754H51.55C51.7973 30.0732 52.0427 30.1199 52.272 30.2127C52.5013 30.3056 52.7102 30.4428 52.8866 30.6166C53.0631 30.7904 53.2036 30.9973 53.3003 31.2255C53.3969 31.4537 53.4478 31.6988 53.45 31.9468V37.5775H65V5.63098C64.9564 4.11373 64.3211 2.67412 63.2304 1.62131C62.1397 0.568511 60.6807 -0.0135133 59.1667 0.000238248Z" fill="#01204C"/>
<path d="M26.7832 35.6224C26.7955 36.2682 26.9196 36.9071 27.1499 37.5104H37.8499C38.0802 36.9071 38.2042 36.2682 38.2165 35.6224C38.2165 34.1024 37.6142 32.6447 36.5422 31.5699C35.4701 30.4952 34.016 29.8914 32.4999 29.8914C30.9837 29.8914 29.5297 30.4952 28.4576 31.5699C27.3855 32.6447 26.7832 34.1024 26.7832 35.6224Z" fill="#01204C"/>
<path d="M19.65 32.3475C19.5371 32.752 19.295 33.1083 18.9609 33.3617C18.6268 33.6152 18.219 33.7519 17.8 33.751H15.3667V37.5104H23.2334C23.0837 36.8917 22.9999 36.2588 22.9834 35.6223C22.9834 33.092 23.986 30.6654 25.7707 28.8762C27.5555 27.087 29.9761 26.0818 32.5 26.0818C35.024 26.0818 37.4446 27.087 39.2293 28.8762C41.0141 30.6654 42.0167 33.092 42.0167 35.6223C42.0002 36.2588 41.9164 36.8917 41.7667 37.5104H49.6334V33.751H47.2C46.781 33.7519 46.3733 33.6152 46.0391 33.3617C45.705 33.1083 45.463 32.752 45.35 32.3475C45.0426 31.1704 44.5653 30.0446 43.9334 29.0058C43.7221 28.6481 43.6369 28.2297 43.6913 27.8176C43.7457 27.4055 43.9366 27.0237 44.2334 26.7335L45.9 25.0626L43.3334 22.3726L41.6667 24.0434C41.3642 24.3373 40.9741 24.5241 40.5559 24.5754C40.1378 24.6267 39.7143 24.5396 39.35 24.3274C38.3068 23.7159 37.1854 23.2493 36.0167 22.9406C35.6111 22.8377 35.2507 22.6033 34.9916 22.274C34.7324 21.9447 34.5889 21.5388 34.5834 21.1194V18.7468H30.6V21.1528C30.5973 21.573 30.4549 21.9803 30.1953 22.3102C29.9357 22.64 29.5737 22.8737 29.1667 22.9741C27.998 23.2827 26.8766 23.7493 25.8334 24.3609C25.4691 24.573 25.0456 24.6601 24.6275 24.6088C24.2093 24.5576 23.8192 24.3707 23.5167 24.0768L21.85 22.406L19.0334 25.0626L20.7 26.7335C20.9968 27.0237 21.1877 27.4055 21.2421 27.8176C21.2965 28.2297 21.2113 28.6481 21 29.0058C20.3681 30.0446 19.8908 31.1704 19.5834 32.3475" fill="#01204C"/>
<path d="M65 41.2532H0V48.7553H65V41.2532Z" fill="#01204C"/>
</g>
<defs>
<clipPath id="clip0_325_576">
<rect width="65" height="60" fill="white"/>
</clipPath>
</defs>
</svg>
