<svg width="88" height="88" viewBox="0 0 88 88" fill="none" xmlns="http://www.w3.org/2000/svg">
<g clip-path="url(#clip0_497_136)" filter="url(#filter0_i_497_136)">
<path d="M55.1955 0H32.8045C14.6871 0 0 14.6871 0 32.8045V55.1955C0 73.3129 14.6871 88 32.8045 88H55.1955C73.3129 88 88 73.3129 88 55.1955V32.8045C88 14.6871 73.3129 0 55.1955 0Z" fill="#ECF9FE"/>
<g clip-path="url(#clip1_497_136)">
<path fill-rule="evenodd" clip-rule="evenodd" d="M31.5659 53.2402H28.2436C28.0389 53.2402 27.8438 53.1532 27.707 53.0009C27.5701 52.8487 27.5044 52.6454 27.5262 52.4418C27.8459 49.4567 28.958 46.7086 30.6483 44.4123L30.6118 44.0614C30.5384 43.3553 30.7679 42.6511 31.2432 42.1238C31.7185 41.5965 32.3952 41.2954 33.1051 41.2954H33.6376C35.4829 39.8145 37.6521 38.7203 40.022 38.1361C37.2019 36.6845 35.2665 33.7424 35.2665 30.3635C35.2665 25.5536 39.1885 21.6313 44.0013 21.6313C48.8113 21.6313 52.7335 25.5535 52.7335 30.3635C52.7335 33.7423 50.7981 36.6844 47.9791 38.1361C50.3486 38.7202 52.5175 39.8144 54.3627 41.2954H54.8952C55.6051 41.2954 56.2816 41.5964 56.757 42.1236C57.2323 42.6508 57.4618 43.3549 57.3886 44.0609L57.3652 44.2862C57.8628 44.2996 58.3575 44.4662 58.7864 44.786L58.7878 44.7871L59.8481 45.5817C60.0191 45.7096 60.1979 45.7749 60.412 45.7867L61.7343 45.8598H61.7349C62.85 45.9223 63.7586 46.6849 64.0112 47.7704L64.3147 49.0615L64.315 49.063C64.3631 49.2697 64.4579 49.4348 64.6139 49.5804L64.6152 49.5817L65.5809 50.4875C66.3962 51.2528 66.6019 52.4211 66.0964 53.4164C66.0964 53.4164 65.4995 54.597 65.4988 54.5984C65.4041 54.7886 65.3698 54.9762 65.3958 55.1886C65.3959 55.1893 65.396 55.1902 65.3961 55.1909L65.5533 56.5063L65.5534 56.5071C65.6845 57.6153 65.0942 58.6422 64.0645 59.0822L63.4279 59.3547C64.0314 60.6513 65.2967 63.3703 65.295 63.3667C65.4452 63.6802 65.4045 64.0178 65.1994 64.2787C64.9963 64.5476 64.6853 64.6707 64.3497 64.6101L62.4728 64.2827C62.4728 64.2827 61.5134 65.9302 61.5143 65.9285C61.3513 66.2136 61.0559 66.3804 60.72 66.368C60.3862 66.3556 60.1094 66.1774 59.9611 65.8684C59.9599 65.8659 59.9586 65.8632 59.9575 65.8607L58.1062 61.8846L57.5995 61.7315C57.5983 61.7312 57.597 61.7308 57.5959 61.7304C57.3946 61.6686 57.205 61.6686 57.0038 61.7304C57.0026 61.7308 57.0014 61.7312 57.0002 61.7315L56.4935 61.8846C56.045 62.8477 54.6444 65.8561 54.6447 65.8553C54.5043 66.1661 54.2178 66.3554 53.8797 66.368C53.5441 66.3804 53.2488 66.2137 53.0862 65.9299L52.1287 64.2827L50.2499 64.6101C49.9126 64.6708 49.6007 64.5464 49.401 64.2795C49.1957 64.0158 49.1555 63.6817 49.3024 63.3714L50.8978 59.9434H29.3244C28.9259 59.9434 28.6028 59.6203 28.6028 59.2218V55.2205C28.6028 54.822 28.9259 54.4989 29.3244 54.4989H31.6968L31.5659 53.2402ZM30.8846 46.6853C29.9907 48.2367 29.3643 49.9616 29.0682 51.7971H31.4159L30.8846 46.6853ZM36.1456 41.2954H51.855C49.5658 39.9014 46.8772 39.0984 44.0013 39.0984C41.1244 39.0984 38.4352 39.9014 36.1456 41.2954ZM55.8665 44.7474L55.9532 43.912C55.9842 43.6124 55.8868 43.3137 55.6852 43.09C55.4835 42.8663 55.1964 42.7386 54.8952 42.7386H33.1051C32.8038 42.7386 32.5168 42.8663 32.3151 43.0901C32.1134 43.3139 32.0161 43.6126 32.0472 43.9122L33.1477 54.4989H49.0506C48.9074 54.2156 48.5034 53.4166 48.5039 53.4175C47.9978 52.4211 48.2036 51.2528 49.0188 50.4875L49.9845 49.5817L49.9858 49.5804C50.1418 49.4348 50.2366 49.2697 50.2847 49.063L50.285 49.0615C50.285 49.0615 50.5884 47.7704 50.5881 47.7719C50.8411 46.6849 51.7497 45.9223 52.8648 45.8598H52.8654L54.1877 45.7867C54.4009 45.7749 54.5805 45.7107 54.7495 45.5833C54.7501 45.5829 54.7506 45.5825 54.7512 45.5821L55.8119 44.7871L55.8133 44.786C55.8309 44.7729 55.8487 44.7601 55.8665 44.7474ZM44.0013 37.6552C48.0165 37.6552 51.2903 34.3787 51.2903 30.3635C51.2903 26.3484 48.0164 23.0745 44.0013 23.0745C39.9837 23.0745 36.7096 26.3484 36.7096 30.3635C36.7096 34.3788 39.9836 37.6552 44.0013 37.6552ZM62.2378 60.2177L61.663 61.0966C61.2388 61.7459 60.5747 62.1389 59.8505 62.2117C60.1553 62.8664 60.5248 63.6602 60.8094 64.2714L61.4784 63.1224C61.6303 62.8616 61.9285 62.7229 62.2259 62.7747L63.534 63.0029L62.2378 60.2177ZM54.7493 62.2118C54.025 62.139 53.3609 61.746 52.9369 61.0969L52.3619 60.2177L51.0656 63.0031L52.376 62.7747C52.6736 62.7229 52.972 62.8619 53.1238 63.123L53.7908 64.2704L54.7493 62.2118ZM49.696 58.5003C49.2041 57.9805 48.9569 57.2627 49.0463 56.5071L49.0464 56.5063L49.1138 55.942H30.0459V58.5003H49.696ZM57.9234 45.9427C57.5478 45.6628 57.0519 45.6628 56.6763 45.9427C56.6763 45.9427 55.6167 46.7369 55.6182 46.7357C55.2115 47.0423 54.7799 47.1995 54.2671 47.2276L52.9455 47.3007C52.4796 47.3269 52.0994 47.6449 51.9936 48.0991L51.9933 48.1006C51.9933 48.1006 51.6899 49.3916 51.6903 49.3901C51.5745 49.8876 51.346 50.2849 50.9718 50.6342L50.0065 51.5397C49.6657 51.8596 49.5791 52.3477 49.7906 52.7641L49.7912 52.7652L50.3891 53.9478C50.3896 53.9487 50.3901 53.9497 50.3906 53.9507C50.6183 54.4063 50.6987 54.8557 50.6366 55.3622L50.4794 56.6769C50.4246 57.1411 50.6731 57.5712 51.1034 57.7556C51.1034 57.7556 52.3189 58.2759 52.3165 58.2749C52.7881 58.4748 53.1386 58.7707 53.4197 59.1986L53.4205 59.1998L54.1449 60.3073C54.401 60.6995 54.8666 60.8675 55.315 60.7329L56.5824 60.3502C57.07 60.2007 57.5297 60.2007 58.0173 60.3502L59.2847 60.7329C59.7331 60.8675 60.1987 60.6995 60.4548 60.3073L61.1792 59.1998L61.18 59.1986C61.461 58.7707 61.8115 58.4748 62.2808 58.2759L63.4966 57.7555L63.497 57.7553C63.9284 57.5711 64.1751 57.1408 64.1203 56.6769C64.1203 56.6769 63.9632 55.3622 63.9634 55.3644C63.901 54.8557 63.9814 54.4063 64.2091 53.9507C64.2097 53.9497 64.2101 53.9487 64.2106 53.9478L64.8085 52.7652L64.8091 52.7641C65.0205 52.3477 64.9339 51.8596 64.5932 51.5397C64.5932 51.5397 63.6279 50.6342 63.6292 50.6354C63.2537 50.2849 63.0252 49.8876 62.9098 49.3916L62.6064 48.1006L62.6061 48.0991C62.5004 47.6449 62.1202 47.3269 61.6541 47.3007L60.3329 47.2276C59.8206 47.1995 59.3928 47.0434 58.9835 46.7372L58.983 46.7369L57.9234 45.9427ZM57.3009 58.6045C54.3547 58.6045 51.9511 56.2009 51.9511 53.2547C51.9511 50.3085 54.3547 47.9048 57.3009 47.9048C60.2447 47.9048 62.6486 50.3084 62.6486 53.2547C62.6486 56.2011 60.2447 58.6045 57.3009 58.6045ZM57.3009 57.1614C59.4505 57.1614 61.2054 55.4061 61.2054 53.2547C61.2054 51.1033 59.4505 49.348 57.3009 49.348C55.1495 49.348 53.3943 51.1032 53.3943 53.2547C53.3943 55.4062 55.1495 57.1614 57.3009 57.1614ZM54.3846 53.7462C54.1028 53.4649 54.1024 53.0076 54.3837 52.7258C54.6651 52.444 55.1223 52.4436 55.4042 52.7249C55.4042 52.7249 56.4253 53.7443 56.4254 53.7443L59.2235 51.2348C59.52 50.9689 59.9766 50.9938 60.2425 51.2903C60.5084 51.5867 60.4835 52.0433 60.187 52.3092L56.8805 55.2746C56.5954 55.5303 56.16 55.5186 55.889 55.2481L54.3846 53.7462ZM44.0013 51.5611C42.1023 51.5611 40.6306 50.2585 40.6306 48.7888C40.6306 47.3156 42.1023 46.0164 44.0013 46.0164C45.9006 46.0164 47.3693 47.3154 47.3693 48.7888C47.3693 50.2587 45.9006 51.5611 44.0013 51.5611ZM44.0013 50.118C44.5568 50.118 45.0637 49.9502 45.429 49.6669C45.7234 49.4387 45.9262 49.1351 45.9262 48.7888C45.9262 48.4416 45.7237 48.1378 45.4293 47.9098C45.0638 47.6267 44.5568 47.4595 44.0013 47.4595C43.4455 47.4595 42.9377 47.6269 42.5716 47.9101C42.2769 48.1381 42.0737 48.4417 42.0737 48.7888C42.0737 49.135 42.2771 49.4384 42.5718 49.6666C42.9379 49.95 43.4455 50.118 44.0013 50.118ZM29.9832 22.7345C30.3196 22.839 30.6454 22.974 30.9573 23.1382L31.5839 22.8595C31.8568 22.7382 32.1762 22.7975 32.3873 23.0086L33.5178 24.1392C33.7287 24.35 33.7882 24.669 33.6674 24.9416L33.3896 25.5687C33.5542 25.8811 33.6894 26.2076 33.7939 26.5451L34.4328 26.791C34.7113 26.8983 34.8951 27.166 34.8951 27.4645V29.0636C34.8951 29.3621 34.7113 29.6298 34.4328 29.7371C34.4328 29.7371 33.7934 29.9831 33.7935 29.9831C33.6888 30.3194 33.5533 30.6453 33.3893 30.9572L33.6674 31.5848C33.7882 31.8575 33.7287 32.1764 33.5178 32.3873L32.3873 33.5178C32.1764 33.7287 31.8575 33.7882 31.5848 33.6674L30.9582 33.3898C30.6464 33.5541 30.3198 33.6892 29.9831 33.7937L29.7371 34.4328C29.6298 34.7113 29.3621 34.8951 29.0636 34.8951H27.4645C27.166 34.8951 26.8983 34.7113 26.791 34.4328L26.5451 33.7937C26.2078 33.689 25.8815 33.5534 25.5693 33.3893L24.9416 33.6674C24.669 33.7882 24.35 33.7287 24.1392 33.5178L23.0086 32.3873C22.7975 32.1762 22.7382 31.8568 22.8595 31.5839C22.8595 31.5839 23.138 30.9576 23.1381 30.9576C22.9738 30.6462 22.8387 30.3198 22.7337 29.9834L22.0938 29.7371C21.8152 29.6298 21.6313 29.3621 21.6313 29.0636V27.4645C21.6313 27.166 21.8152 26.8983 22.0938 26.791C22.0938 26.791 22.7335 26.5448 22.7335 26.5449C22.8385 26.2076 22.9738 25.8814 23.1382 25.5692L22.8595 24.9425C22.7382 24.6697 22.7975 24.3503 23.0086 24.1392L24.1392 23.0086C24.3503 22.7975 24.6697 22.7382 24.9425 22.8595L25.5692 23.1382C25.8813 22.9738 26.2074 22.8388 26.5439 22.7344L26.7913 22.0932C26.8986 21.8149 27.1662 21.6313 27.4645 21.6313H29.0636C29.3623 21.6313 29.6301 21.8153 29.7372 22.0941L29.9832 22.7345ZM28.7669 23.5925L28.5679 23.0745H27.9594L27.7592 23.5935C27.6736 23.8153 27.4842 23.9807 27.2528 24.0357C26.8059 24.142 26.3795 24.3186 25.9877 24.5599C25.7851 24.6848 25.5337 24.7017 25.316 24.605L24.8091 24.3796L24.3796 24.8091L24.605 25.316C24.7017 25.5337 24.6848 25.7851 24.5599 25.9877C24.3182 26.3801 24.1415 26.8071 24.0337 27.256C23.9783 27.4869 23.8128 27.6757 23.5912 27.7611L23.0745 27.96V28.5681L23.5912 28.767C23.8126 28.8523 23.9781 29.041 24.0336 29.2716C24.1413 29.719 24.3177 30.147 24.5594 30.5378C24.6848 30.7406 24.7019 30.9924 24.605 31.2104L24.3796 31.7173L24.8097 32.1474L25.317 31.9227C25.5339 31.8267 25.784 31.8433 25.9862 31.9672C26.3785 32.2075 26.8051 32.386 27.254 32.4923C27.4857 32.5472 27.6755 32.7129 27.7611 32.9353L27.96 33.452H28.5681L28.767 32.9353C28.8525 32.7131 29.0421 32.5474 29.2737 32.4924C29.7202 32.3862 30.1477 32.21 30.5378 31.9687C30.7403 31.8434 30.9917 31.8262 31.2095 31.9227L31.7168 32.1474L32.1474 31.7168L31.9227 31.2094C31.8267 30.9927 31.8433 30.7425 31.9672 30.5403C32.2076 30.1479 32.3861 29.7212 32.4924 29.2737C32.5474 29.0421 32.7131 28.8525 32.9353 28.767L33.452 28.5681V27.96L32.9353 27.7611C32.7129 27.6755 32.5472 27.4857 32.4923 27.254C32.3861 26.8057 32.2095 26.3794 31.9682 25.9877C31.8434 25.7853 31.8264 25.5344 31.9227 25.317L32.1474 24.8097L31.7173 24.3796L31.2104 24.605C30.9928 24.7017 30.7415 24.6848 30.5388 24.5599C30.1469 24.3186 29.7207 24.142 29.2737 24.0357C29.0419 23.9806 28.8524 23.8148 28.7669 23.5925ZM28.2633 24.7524C30.203 24.7524 31.7757 26.3234 31.7757 28.2633C31.7757 30.203 30.203 31.7757 28.2633 31.7757C26.3234 31.7757 24.7524 30.203 24.7524 28.2633C24.7524 26.3233 26.3233 24.7524 28.2633 24.7524ZM28.2633 26.1955C27.1208 26.1955 26.1955 27.1208 26.1955 28.2633C26.1955 29.4059 27.1206 30.3326 28.2633 30.3326C29.406 30.3326 30.3326 29.406 30.3326 28.2633C30.3326 27.1206 29.4059 26.1955 28.2633 26.1955ZM61.4567 22.7345C61.793 22.839 62.1188 22.974 62.4307 23.1382L63.0574 22.8595C63.3303 22.7382 63.6496 22.7975 63.8608 23.0086L64.9913 24.1392C65.2022 24.35 65.2616 24.669 65.1409 24.9416L64.8631 25.5687C65.0276 25.8811 65.1629 26.2076 65.2674 26.5451L65.9062 26.791C66.1848 26.8983 66.3686 27.166 66.3686 27.4645V29.0636C66.3686 29.3621 66.1848 29.6298 65.9062 29.7371C65.9062 29.7371 65.2669 29.9831 65.2669 29.9831C65.1622 30.3194 65.0268 30.6453 64.8628 30.9572L65.1409 31.5848C65.2616 31.8575 65.2022 32.1764 64.9913 32.3873L63.8608 33.5178C63.6499 33.7287 63.331 33.7882 63.0583 33.6674L62.4316 33.3898C62.1198 33.5541 61.7933 33.6892 61.4564 33.7937L61.2105 34.4328C61.1033 34.7113 60.8356 34.8951 60.5371 34.8951H58.9379C58.6394 34.8951 58.3717 34.7113 58.2645 34.4328C58.2645 34.4328 58.0185 33.7937 58.0186 33.7937C57.6813 33.689 57.355 33.5534 57.0428 33.3893L56.4151 33.6674C56.1424 33.7882 55.8235 33.7287 55.6126 33.5178L54.4821 32.3873C54.271 32.1762 54.2117 31.8568 54.333 31.5839L54.6115 30.9576C54.4473 30.6462 54.3122 30.3198 54.2072 29.9834L53.5672 29.7371C53.2886 29.6298 53.1048 29.3621 53.1048 29.0636V27.4645C53.1048 27.166 53.2886 26.8983 53.5672 26.791C53.5672 26.791 54.207 26.5448 54.2069 26.5449C54.312 26.2076 54.4472 25.8814 54.6116 25.5692L54.333 24.9425C54.2117 24.6697 54.271 24.3503 54.4821 24.1392L55.6126 23.0086C55.8238 22.7975 56.1432 22.7382 56.416 22.8595L57.0427 23.1382C57.3548 22.9738 57.6808 22.8388 58.0174 22.7344L58.2648 22.0932C58.3721 21.8149 58.6396 21.6313 58.9379 21.6313H60.5371C60.8357 21.6313 61.1035 21.8153 61.2107 22.0941L61.4567 22.7345ZM60.2404 23.5925L60.0414 23.0745H59.4329L59.2327 23.5935C59.1471 23.8153 58.9576 23.9807 58.7263 24.0357C58.2793 24.142 57.853 24.3186 57.4612 24.5599C57.2584 24.6848 57.0072 24.7017 56.7895 24.605L56.2826 24.3796L55.853 24.8091L56.0784 25.316C56.1752 25.5337 56.1583 25.7851 56.0334 25.9877C55.7917 26.3801 55.6149 26.8071 55.5072 27.256C55.4517 27.4869 55.2863 27.6757 55.0647 27.7611L54.548 27.96V28.5681L55.0647 28.767C55.2861 28.8523 55.4515 29.041 55.507 29.2716C55.6147 29.719 55.7912 30.147 56.0329 30.5378C56.1583 30.7406 56.1754 30.9924 56.0784 31.2104L55.853 31.7173L56.2832 32.1474L56.7905 31.9227C57.0072 31.8267 57.2575 31.8433 57.4597 31.9672C57.8519 32.2075 58.2786 32.386 58.7275 32.4923C58.9592 32.5472 59.149 32.7129 59.2345 32.9353L59.4333 33.452H60.0416L60.2405 32.9353C60.326 32.7131 60.5155 32.5474 60.7471 32.4924C61.1937 32.3862 61.6211 32.21 62.0112 31.9687C62.2138 31.8434 62.4652 31.8262 62.6829 31.9227L63.1903 32.1474L63.6209 31.7168L63.3962 31.2094C63.3001 30.9927 63.3167 30.7425 63.4407 30.5403C63.681 30.1479 63.8595 29.7212 63.9659 29.2737C64.0209 29.0421 64.1866 28.8525 64.4087 28.767L64.9255 28.5681V27.96L64.4087 27.7611C64.1864 27.6755 64.0207 27.4857 63.9658 27.254C63.8595 26.8057 63.683 26.3794 63.4417 25.9877C63.3168 25.7853 63.2999 25.5344 63.3962 25.317L63.6209 24.8097L63.1908 24.3796L62.6839 24.605C62.4663 24.7017 62.2149 24.6848 62.0122 24.5599C61.6204 24.3186 61.1941 24.142 60.7471 24.0357C60.5154 23.9806 60.3258 23.8148 60.2404 23.5925ZM59.7367 24.7524C61.6765 24.7524 63.2492 26.3234 63.2492 28.2633C63.2492 30.203 61.6763 31.7757 59.7367 31.7757C57.7969 31.7757 56.2259 30.203 56.2259 28.2633C56.2259 26.3233 57.7968 24.7524 59.7367 24.7524ZM59.7367 26.1955C58.5942 26.1955 57.669 27.1208 57.669 28.2633C57.669 29.4059 58.5941 30.3326 59.7367 30.3326C60.8795 30.3326 61.806 29.406 61.806 28.2633C61.806 27.1206 60.8794 26.1955 59.7367 26.1955Z" fill="black"/>
</g>
</g>
<defs>
<filter id="filter0_i_497_136" x="0" y="0" width="88" height="88" filterUnits="userSpaceOnUse" color-interpolation-filters="sRGB">
<feFlood flood-opacity="0" result="BackgroundImageFix"/>
<feBlend mode="normal" in="SourceGraphic" in2="BackgroundImageFix" result="shape"/>
<feColorMatrix in="SourceAlpha" type="matrix" values="0 0 0 0 0 0 0 0 0 0 0 0 0 0 0 0 0 0 127 0" result="hardAlpha"/>
<feOffset/>
<feGaussianBlur stdDeviation="1"/>
<feComposite in2="hardAlpha" operator="arithmetic" k2="-1" k3="1"/>
<feColorMatrix type="matrix" values="0 0 0 0 0 0 0 0 0 0 0 0 0 0 0 0 0 0 0.36 0"/>
<feBlend mode="normal" in2="shape" result="effect1_innerShadow_497_136"/>
</filter>
<clipPath id="clip0_497_136">
<rect width="88" height="88" fill="white"/>
</clipPath>
<clipPath id="clip1_497_136">
<rect width="46" height="46" fill="white" transform="translate(21 21)"/>
</clipPath>
</defs>
</svg>
