<svg width="362" height="298" viewBox="0 0 362 298" fill="none" xmlns="http://www.w3.org/2000/svg">
<path d="M208.121 74.7245C210.154 72.5218 215.136 68.6246 218.796 70.6579C223.371 73.1995 225.912 83.8743 208.629 87.4326C207.612 95.0575 198.971 132.674 208.121 139.282" stroke="#1D1E22" stroke-width="1.5" stroke-linecap="round"/>
<path d="M192.769 61.7299C193.118 59.9312 192.436 58.2866 191.246 58.0556C190.057 57.8262 188.809 59.0961 188.462 60.8947C188.113 62.6917 188.796 64.3363 189.985 64.5673C191.174 64.7966 192.422 63.5268 192.769 61.7299Z" fill="#1D1E22"/>
<path d="M165.008 57.6221C165.357 55.8217 164.676 54.1737 163.483 53.9426C162.292 53.7116 161.043 54.9831 160.692 56.7835C160.343 58.5856 161.024 60.2319 162.217 60.4647C163.408 60.6957 164.657 59.4242 165.008 57.6221Z" fill="#1D1E22"/>
<path d="M167.963 109.799C167.963 119.458 165.421 136.741 155.255 139.282" stroke="#1D1E22" stroke-width="1.5"/>
<path d="M155.53 139.212C155.53 139.212 153.87 286.486 156.41 291.81C158.462 296.109 126.418 295.816 114.059 295.522C113.487 295.513 112.926 295.373 112.416 295.113C111.908 294.853 111.464 294.481 111.12 294.024C110.776 293.567 110.542 293.037 110.432 292.477C110.325 291.916 110.345 291.336 110.494 290.785L117.528 264.602C117.528 264.602 111.617 284.141 99.2097 277.645C88.1214 271.831 60.083 221.763 54.1236 211.016C53.8149 210.441 53.7145 209.777 53.839 209.137C53.9636 208.495 54.3057 207.917 54.8075 207.499L78.6938 187.618C79.0157 187.344 79.3958 187.147 79.8053 187.041C80.2149 186.937 80.6431 186.925 81.0574 187.011C81.4717 187.094 81.8614 187.272 82.1966 187.531C82.5319 187.789 82.804 188.119 82.9924 188.498C87.3398 197.291 99.6494 221.176 104.778 220.249C111.031 219.027 124.904 144.584 155.53 139.212Z" stroke="#1D1E22" stroke-width="1.5" stroke-linecap="round"/>
<path d="M184.563 148.062C184.563 148.062 199.365 136.046 201.952 142.787C204.542 149.527 207.326 166.722 201.952 167.455C196.581 168.187 185.785 156.465 185.785 156.465L184.563 148.062Z" fill="#1D1E22"/>
<path d="M179.434 149.138C179.434 149.138 164.145 136.047 161.557 142.787C158.968 149.528 156.184 166.722 161.557 167.456C166.929 168.189 177.677 156.758 177.677 156.758L179.434 149.138Z" fill="#1D1E22"/>
<path d="M181.634 162.082C184.521 162.082 186.86 158.649 186.86 154.413C186.86 150.177 184.521 146.743 181.634 146.743C178.747 146.743 176.407 150.177 176.407 154.413C176.407 158.649 178.747 162.082 181.634 162.082Z" fill="#1D1E22"/>
<path d="M185.719 182.441C187.446 182.441 188.844 181.041 188.844 179.315C188.844 177.588 187.446 176.188 185.719 176.188C183.992 176.188 182.592 177.588 182.592 179.315C182.592 181.041 183.992 182.441 185.719 182.441Z" fill="#1D1E22"/>
<path d="M185.719 202.371C187.446 202.371 188.844 200.971 188.844 199.246C188.844 197.519 187.446 196.119 185.719 196.119C183.992 196.119 182.592 197.519 182.592 199.246C182.592 200.971 183.992 202.371 185.719 202.371Z" fill="#1D1E22"/>
<path d="M185.719 222.349C187.446 222.349 188.844 220.949 188.844 219.224C188.844 217.497 187.446 216.097 185.719 216.097C183.992 216.097 182.592 217.497 182.592 219.224C182.592 220.949 183.992 222.349 185.719 222.349Z" fill="#1D1E22"/>
<path d="M207.797 138.479C207.797 138.479 206.038 285.217 206.917 291.078C208.334 300.554 235.932 295.035 248.731 294.79C249.37 294.776 249.998 294.617 250.568 294.323C251.136 294.03 251.63 293.609 252.012 293.096C252.394 292.582 252.652 291.989 252.77 291.359C252.886 290.731 252.859 290.082 252.686 289.466L245.8 263.871C245.8 263.871 251.711 283.36 264.117 276.863C275.206 271.052 303.244 220.982 309.155 210.284C309.488 209.719 309.608 209.054 309.49 208.409C309.374 207.763 309.03 207.18 308.52 206.767L284.632 186.838C284.304 186.575 283.92 186.388 283.511 186.291C283.101 186.195 282.675 186.19 282.264 186.279C281.851 186.368 281.465 186.548 281.131 186.804C280.797 187.063 280.525 187.391 280.335 187.766C275.987 196.559 263.678 220.445 258.549 219.467C252.296 218.295 238.424 143.804 207.797 138.479Z" stroke="#1D1E22" stroke-width="1.5" stroke-linecap="round"/>
<path d="M210.287 44.0072C210.287 44.0072 175.019 43.1293 179.66 38.0979C179.66 38.0979 144.685 44.4967 145.32 34.5314C145.955 24.566 155.53 26.0327 155.53 26.0327C155.53 26.0327 131.448 21.5866 142.927 13.0879C154.406 4.58751 166.276 4.5875 170.085 6.10206C170.085 6.10206 164.956 -0.882045 178.39 0.0934367C191.823 1.07063 217.761 18.0697 217.761 18.0697C217.761 18.0697 213.267 9.57101 217.761 9.57101C222.255 9.57101 238.619 21.5866 232.415 42.0049C232.415 42.0049 236.714 43.0318 236.714 46.499C236.714 46.499 236.859 71.5586 222.01 76.3453C222.01 76.3453 221.034 70.4839 217.273 69.7514C215.416 69.3595 211.362 72.6333 208.87 74.7811C208.695 74.9351 208.48 75.0378 208.25 75.0772C208.021 75.1183 207.785 75.0926 207.568 75.007C207.35 74.9214 207.16 74.7777 207.02 74.5912C206.88 74.4046 206.794 74.1839 206.77 73.9511C206.135 67.797 205.11 51.628 210.287 44.0072Z" fill="#1D1E22"/>
<path d="M69.4117 216.048C71.7048 216.048 73.5637 214.19 73.5637 211.896C73.5637 209.603 71.7048 207.745 69.4117 207.745C67.1185 207.745 65.2596 209.603 65.2596 211.896C65.2596 214.19 67.1185 216.048 69.4117 216.048Z" fill="#1D1E22"/>
<path d="M77.7162 229.677C80.0093 229.677 81.8682 227.819 81.8682 225.526C81.8682 223.232 80.0093 221.372 77.7162 221.372C75.423 221.372 73.5641 223.232 73.5641 225.526C73.5641 227.819 75.423 229.677 77.7162 229.677Z" fill="#1D1E22"/>
<path d="M293.913 215.316C296.207 215.316 298.067 213.457 298.067 211.164C298.067 208.871 296.207 207.012 293.913 207.012C291.622 207.012 289.761 208.871 289.761 211.164C289.761 213.457 291.622 215.316 293.913 215.316Z" fill="#1D1E22"/>
<path d="M285.61 228.945C287.903 228.945 289.762 227.085 289.762 224.792C289.762 222.499 287.903 220.64 285.61 220.64C283.317 220.64 281.458 222.499 281.458 224.792C281.458 227.085 283.317 228.945 285.61 228.945Z" fill="#1D1E22"/>
<path d="M143.563 145.382C142.038 150.465 138.785 161.242 137.971 163.682C136.955 166.732 135.43 169.782 137.971 170.798C140.513 171.815 149.155 172.832 148.138 175.882C147.121 178.931 136.447 184.523 135.938 187.065C135.532 189.098 148.308 216.717 154.746 230.273" stroke="#1D1E22" stroke-width="1.5"/>
<path d="M154.238 37.1079C153.221 40.1579 119.672 130.132 188.296 105.732" stroke="#1D1E22" stroke-width="1.5" stroke-linecap="round"/>
<path d="M10.3811 156.058C10.5505 154.702 14.5494 152.805 29.1892 156.058C47.489 160.124 57.6207 167.591 72.9054 158.6C90.1886 148.433 98.3219 145.892 98.3219 150.975C98.3219 156.058 89.1719 167.75 78.4971 176.391C69.9498 183.31 70.8721 186.049 74.9388 190.116" stroke="#1D1E22" stroke-width="1.5" stroke-linecap="round"/>
<path d="M31.2226 164.19C26.9865 164.19 17.4977 164.19 13.4311 164.19C8.34779 164.19 -1.81875 163.682 1.73955 169.782M33.7642 175.882C25.4615 174.018 7.63616 171.917 2.75621 178.423C-3.34373 186.557 24.106 189.098 28.1726 188.59C32.2392 188.082 42.4058 196.723 47.4891 196.215C52.5724 195.706 53.589 194.181 55.6223 198.248C56.4587 199.921 57.331 202.203 58.0732 204.348" stroke="#1D1E22" stroke-width="1.5" stroke-linecap="round"/>
<path d="M219.812 144.365C221.507 149.787 224.997 161.038 225.404 162.665C225.912 164.698 228.454 168.765 224.387 170.29C220.321 171.815 211.171 172.832 216.254 177.407C221.337 181.982 229.471 184.523 226.929 189.606C224.896 193.673 212.865 218.412 207.104 230.273" stroke="#1D1E22" stroke-width="1.5"/>
<path d="M286.912 188.081C287.589 185.201 289.25 178.626 290.47 175.373C291.995 171.306 293.52 171.306 285.387 158.598C277.253 145.89 286.403 147.415 290.978 149.956C295.553 152.498 298.095 161.648 300.128 164.698C302.161 167.748 310.803 171.306 327.07 170.29C343.336 169.273 351.978 173.848 350.961 177.406C350.148 180.253 338.422 179.609 332.661 178.931M355.028 183.506C356.553 185.031 358.484 188.386 354.011 189.606C349.538 190.826 340.625 189.437 336.728 188.59M360.111 195.198C361.975 198.078 362.144 203.941 347.911 204.348C330.119 204.856 315.886 199.264 311.82 201.298C308.566 202.924 307.753 203.67 307.245 204.348" stroke="#1D1E22" stroke-width="1.5" stroke-linecap="round"/>
<path d="M156.78 46.7662L169.488 45.7495M188.804 47.2745L199.988 53.8828M174.571 65.066C171.691 67.2687 165.93 72.6909 173.554 74.2159" stroke="#1D1E22" stroke-width="1.5" stroke-linecap="round"/>
<circle cx="186.263" cy="85.9075" r="4.57495" stroke="#1D1E22" stroke-width="1.5" stroke-linecap="round"/>
</svg>
