<svg width="56" height="56" viewBox="0 0 56 56" fill="none" xmlns="http://www.w3.org/2000/svg">
<path d="M13.2788 37.3248C16.24 37.3248 18.6497 39.7345 18.6497 42.7042C18.6497 45.6654 16.24 48.0751 13.2788 48.0751C10.3091 48.0751 7.89939 45.6654 7.89939 42.7042C7.89939 39.7345 10.3176 37.3248 13.2788 37.3248ZM13.2788 46.8024C15.5358 46.8024 17.377 44.9612 17.377 42.7042C17.377 40.4388 15.5358 38.5976 13.2788 38.5976C11.0133 38.5976 9.17211 40.4388 9.17211 42.7042C9.17211 44.9612 11.0133 46.8024 13.2788 46.8024Z" fill="#01204C"/>
<path d="M1.61212 39.9552L3.41939 39.7006C3.61454 39.0558 3.86909 38.4364 4.18303 37.8594L3.08848 36.4C2.90181 36.1455 2.92727 35.7891 3.14787 35.5685L6.15151 32.5649C6.37212 32.3442 6.72848 32.3188 6.98303 32.5055L8.44242 33.6C9.01939 33.2945 9.63878 33.04 10.2836 32.8364L10.5382 31.0291C10.5806 30.7152 10.8521 30.4776 11.1661 30.4776H13.2618V5.09939C13.2618 2.87636 15.0691 1.06909 17.2921 1.06909H50.9091C53.1321 1.06909 54.9394 2.87636 54.9394 5.09939V38.7248C54.9394 40.9479 53.1321 42.7552 50.9091 42.7552H25.497V44.817C25.497 45.1309 25.2679 45.4024 24.9539 45.4449L23.1467 45.6994C22.9515 46.3358 22.697 46.9467 22.383 47.5406L23.4776 49C23.6642 49.2546 23.6388 49.6109 23.4182 49.8315L20.4145 52.8352C20.1939 53.0558 19.8376 53.0812 19.583 52.8946L18.1236 51.8C17.5382 52.1139 16.9188 52.3685 16.2824 52.5636L16.0279 54.3709C15.9855 54.6849 15.7139 54.9139 15.4 54.9139H11.1576C10.8436 54.9139 10.5721 54.6849 10.5297 54.3624L10.2752 52.5552C9.63879 52.36 9.02787 52.1055 8.43393 51.7915L6.97454 52.8861C6.72 53.0727 6.37212 53.0473 6.14303 52.8267L3.13939 49.823C2.91879 49.6024 2.89333 49.2461 3.08 48.9915L4.17454 47.5321C3.86909 46.9552 3.61454 46.3442 3.41939 45.6909L1.61212 45.4364C1.29818 45.3939 1.06909 45.1224 1.06909 44.8085V40.5661C1.0606 40.2691 1.29818 39.9976 1.61212 39.9552ZM53.6667 5.10788C53.6667 3.58909 52.4279 2.3503 50.9091 2.3503H17.2836C15.7648 2.3503 14.5261 3.58909 14.5261 5.10788V7.87394H53.6667V5.10788ZM50.9091 41.4909C52.4279 41.4909 53.6667 40.2521 53.6667 38.7333V9.14667H14.5261V30.4861H15.4C15.7139 30.4861 15.9855 30.7152 16.0279 31.0291L16.2824 32.8364C16.4012 32.8703 16.52 32.9212 16.6388 32.9636V11.9042C16.6388 11.5564 16.9273 11.2679 17.2752 11.2679H50.9091C51.257 11.2679 51.5455 11.5564 51.5455 11.9042V38.7333C51.5455 39.0812 51.257 39.3697 50.9091 39.3697H23.0279C23.0618 39.48 23.1127 39.5903 23.1467 39.7006L24.9539 39.9552C25.2679 39.9976 25.497 40.2691 25.497 40.583V41.4909H50.9091ZM23.4776 36.4L22.383 37.8594C22.4255 37.9358 22.4594 38.0206 22.4933 38.097H50.2727V12.5406H17.92V33.4982C17.9879 33.5321 18.0642 33.5576 18.1321 33.6L19.5915 32.5055C19.8461 32.3188 20.2024 32.3442 20.423 32.5649L23.4267 35.5685C23.6473 35.7891 23.6727 36.1455 23.4776 36.4ZM2.33333 44.2739L4.00484 44.5115C4.25939 44.5455 4.46303 44.7321 4.53091 44.9782C4.75151 45.8097 5.06545 46.5818 5.48121 47.2776C5.61697 47.4982 5.59999 47.7782 5.44727 47.9818L4.43757 49.3309L6.6606 51.5539L8.00969 50.5442C8.21333 50.3915 8.49333 50.3745 8.71394 50.5018C9.43515 50.9261 10.2158 51.2485 11.0133 51.4521C11.2594 51.52 11.4461 51.7236 11.48 51.9782L11.7176 53.6412H14.857L15.0945 51.9697C15.1285 51.7152 15.3151 51.5115 15.5612 51.4436C16.3673 51.2315 17.1479 50.9091 17.8606 50.4933C18.0812 50.3661 18.3612 50.383 18.5648 50.5358L19.9139 51.5455L22.137 49.3224L21.1273 47.9733C20.9745 47.7697 20.9576 47.4897 21.0848 47.2691C21.5091 46.5479 21.823 45.7758 22.0351 44.9697C22.103 44.7236 22.3067 44.537 22.5612 44.503L24.2327 44.2655V41.1261L22.5612 40.8885C22.3067 40.8545 22.103 40.6679 22.0351 40.4218C21.8315 39.6242 21.5091 38.8521 21.0848 38.1224C20.9576 37.9018 20.9745 37.6218 21.1273 37.4182L22.137 36.0691L19.9139 33.8461L18.5648 34.8558C18.3612 35.0085 18.0812 35.0255 17.8606 34.8897C17.1733 34.4824 16.4012 34.16 15.5612 33.9394C15.3151 33.8715 15.1285 33.6679 15.0945 33.4133L14.857 31.7418H11.7176L11.48 33.4049C11.4461 33.6594 11.2594 33.863 11.0133 33.9309C10.1903 34.143 9.41818 34.4655 8.71394 34.8812C8.49333 35.0085 8.21333 35 8.00969 34.8473L6.6606 33.8376L4.43757 36.0606L5.44727 37.4097C5.59999 37.6133 5.61697 37.8933 5.48121 38.1139C5.06545 38.8097 4.74303 39.5818 4.53091 40.4049C4.46303 40.6509 4.25939 40.8376 4.00484 40.8715L2.33333 41.1091V44.2739Z" fill="#01204C"/>
<path d="M28.8909 23.4266C30.9103 23.4266 32.5564 25.0727 32.5564 27.1006C32.5564 29.12 30.9103 30.766 28.8909 30.766C26.8715 30.766 25.217 29.12 25.217 27.1006C25.217 25.0727 26.863 23.4266 28.8909 23.4266ZM28.8909 29.4848C30.2061 29.4848 31.2836 28.4157 31.2836 27.0921C31.2836 25.7685 30.2145 24.6909 28.8909 24.6909C27.5673 24.6909 26.4897 25.7685 26.4897 27.0921C26.4897 28.4157 27.5673 29.4848 28.8909 29.4848Z" fill="#01204C"/>
<path d="M22.1794 30.9951L22.7903 30.1806C22.6376 29.8836 22.5103 29.5612 22.4 29.2303L21.3903 29.086C21.0764 29.0436 20.8473 28.7721 20.8473 28.4582V25.743C20.8473 25.4291 21.0764 25.1576 21.3903 25.1151L22.4 24.9709C22.5103 24.64 22.6376 24.326 22.7903 24.0206L22.1794 23.206C21.9927 22.9515 22.0182 22.5951 22.2388 22.3745L24.1564 20.4569C24.377 20.2363 24.7333 20.2109 24.9879 20.3976L25.8024 21.0085C26.1079 20.8557 26.4218 20.7285 26.7527 20.6182L26.897 19.6085C26.9394 19.2945 27.2109 19.0654 27.5248 19.0654H30.24C30.5539 19.0654 30.8254 19.2945 30.8679 19.6169L31.0121 20.6266C31.343 20.7369 31.657 20.8642 31.9624 21.0169L32.777 20.406C33.0315 20.2194 33.3794 20.2448 33.6085 20.4654L35.5261 22.383C35.7467 22.6036 35.7721 22.96 35.5855 23.2145L34.9745 24.0291C35.1273 24.3345 35.263 24.6485 35.3648 24.9794L36.3745 25.1236C36.6885 25.166 36.9176 25.4376 36.9176 25.7515V28.4666C36.9176 28.7806 36.68 29.0521 36.3745 29.0945L35.3648 29.2388C35.2545 29.5612 35.1273 29.8836 34.9745 30.1891L35.5855 31.0036C35.7721 31.2582 35.7467 31.6145 35.5261 31.8351L33.6085 33.7527C33.3879 33.9733 33.0315 33.9988 32.777 33.8121L31.9539 33.2012C31.6485 33.3539 31.3345 33.4897 31.0036 33.5915L30.8594 34.6012C30.817 34.9151 30.5454 35.1527 30.2315 35.1527H27.5164C27.2024 35.1527 26.9309 34.9236 26.8885 34.6097L26.7442 33.6C26.4218 33.4897 26.1079 33.3624 25.7939 33.2097L24.9794 33.8206C24.7248 34.0072 24.377 33.9818 24.1479 33.7612L22.2303 31.8436C22.0182 31.5976 21.9927 31.2412 22.1794 30.9951ZM23.5115 28.4921C23.6473 29.0012 23.8424 29.4763 24.097 29.9006C24.2327 30.1212 24.2158 30.4012 24.063 30.6048L23.537 31.3091L24.6739 32.4545L25.3782 31.9285C25.5818 31.7757 25.8618 31.7588 26.0824 31.886C26.5321 32.1491 27.0073 32.3442 27.4994 32.4715C27.7455 32.5394 27.9321 32.743 27.9661 32.9976L28.0933 33.863H29.7055L29.8327 32.9976C29.8667 32.743 30.0533 32.5394 30.2994 32.4715C30.8 32.3442 31.2751 32.1406 31.7164 31.886C31.937 31.7588 32.217 31.7757 32.4206 31.9285L33.1248 32.4545L34.2618 31.3091L33.7358 30.6048C33.583 30.4012 33.5661 30.1212 33.6933 29.9006C33.9564 29.4594 34.1515 28.9842 34.2788 28.4836C34.3467 28.2376 34.5503 28.0509 34.8048 28.0169L35.6788 27.8897V26.2776L34.7879 26.1672C34.5333 26.1333 34.3297 25.9466 34.2618 25.6921C34.1345 25.2 33.9394 24.7248 33.6764 24.2836C33.5491 24.063 33.5661 23.783 33.7188 23.5794L34.2448 22.8751L33.1079 21.7297L32.4036 22.2557C32.2 22.4085 31.92 22.4254 31.6994 22.2897C31.2751 22.0351 30.8 21.84 30.2909 21.7042C30.0448 21.6363 29.8582 21.4327 29.8242 21.1782L29.697 20.3127H28.0848L27.9576 21.1782C27.9236 21.4327 27.737 21.6363 27.4909 21.7042C26.9818 21.8315 26.5067 22.0351 26.0824 22.2897C25.8618 22.4169 25.5818 22.4085 25.3782 22.2557L24.6739 21.7297L23.537 22.8751L24.063 23.5794C24.2158 23.783 24.2327 24.063 24.097 24.2836C23.8424 24.7079 23.6473 25.183 23.5115 25.6921C23.4436 25.9382 23.24 26.1248 22.9854 26.1588L22.1115 26.286V27.8982L22.9854 28.0254C23.24 28.0594 23.4436 28.246 23.5115 28.4921Z" fill="#01204C"/>
<path d="M50.0606 5.95637C49.592 5.95637 49.2121 5.57649 49.2121 5.10788C49.2121 4.63928 49.592 4.2594 50.0606 4.2594C50.5292 4.2594 50.9091 4.63928 50.9091 5.10788C50.9091 5.57649 50.5292 5.95637 50.0606 5.95637Z" fill="#01204C"/>
<path d="M46.9806 5.95637C46.512 5.95637 46.1321 5.57649 46.1321 5.10788C46.1321 4.63928 46.512 4.2594 46.9806 4.2594C47.4492 4.2594 47.8291 4.63928 47.8291 5.10788C47.8291 5.57649 47.4492 5.95637 46.9806 5.95637Z" fill="#01204C"/>
<path d="M43.9006 5.95637C43.432 5.95637 43.0521 5.57649 43.0521 5.10788C43.0521 4.63928 43.432 4.2594 43.9006 4.2594C44.3692 4.2594 44.7491 4.63928 44.7491 5.10788C44.7491 5.57649 44.3692 5.95637 43.9006 5.95637Z" fill="#01204C"/>
<path d="M47.3539 28.6957H41.7454C41.3976 28.6957 41.1091 28.4072 41.1091 28.0593C41.1091 27.7115 41.3976 27.423 41.7454 27.423H47.3539C47.7018 27.423 47.9903 27.7115 47.9903 28.0593C47.9903 28.4072 47.7018 28.6957 47.3539 28.6957Z" fill="#01204C"/>
<path d="M38.3515 30.9358H47.3539C47.7018 30.9358 47.9903 31.2243 47.9903 31.5722C47.9903 31.92 47.7018 32.2085 47.3539 32.2085H38.3515C38.0036 32.2085 37.7151 31.92 37.7151 31.5722C37.7151 31.2243 38.0036 30.9358 38.3515 30.9358Z" fill="#01204C"/>
<path d="M38.3515 34.457H47.3539C47.7018 34.457 47.9903 34.7455 47.9903 35.0934C47.9903 35.4413 47.7018 35.7298 47.3539 35.7298H38.3515C38.0036 35.7298 37.7151 35.4413 37.7151 35.0934C37.7151 34.7455 38.0036 34.457 38.3515 34.457Z" fill="#01204C"/>
<path d="M9.79151 25.3188C9.66424 25.446 9.50303 25.5054 9.34181 25.5054C9.1806 25.5054 9.01939 25.446 8.89212 25.3188C8.64606 25.0727 8.64606 24.6654 8.89212 24.4194L9.74909 23.5624C6.47394 24.0121 3.62303 26.1333 2.27394 29.2218C2.17212 29.4594 1.93454 29.6036 1.68848 29.6036C1.60363 29.6036 1.51879 29.5867 1.43394 29.5527C1.11151 29.4085 0.967272 29.0351 1.10303 28.7127C2.67273 25.1067 6.05818 22.6715 9.90181 22.2642L8.88363 21.2461C8.63757 21 8.63757 20.5927 8.88363 20.3467C9.12969 20.1006 9.53697 20.1006 9.78303 20.3467L11.8194 22.383C12.0655 22.6291 12.0655 23.0364 11.8194 23.2824L9.79151 25.3188Z" fill="#01204C"/>
<path d="M27.3467 48.6521C27.5927 48.406 28 48.406 28.2461 48.6521C28.4921 48.8981 28.4921 49.3054 28.2461 49.5515L27.3891 50.4084C30.8339 49.9248 33.8206 47.583 35.0509 44.2654C35.1697 43.9345 35.543 43.7733 35.8655 43.8921C36.1964 44.0109 36.3661 44.3842 36.2388 44.7066C34.7964 48.5672 31.2582 51.2654 27.2109 51.7066L28.2291 52.7248C28.4752 52.9709 28.4752 53.3781 28.2291 53.6242C28.1018 53.7515 27.9406 53.8109 27.7794 53.8109C27.6182 53.8109 27.457 53.7515 27.3297 53.6242L25.2933 51.5878C25.0473 51.3418 25.0473 50.9345 25.2933 50.6884L27.3467 48.6521Z" fill="#01204C"/>
</svg>
