<svg width="51" height="52" viewBox="0 0 51 52" fill="none" xmlns="http://www.w3.org/2000/svg">
<path d="M30.9291 0.00259519C30.9632 0.037485 31.0024 0.0672143 31.0452 0.0908331C32.2736 0.543961 32.81 1.28153 32.8414 2.5672C32.8581 3.19006 32.6582 3.95462 32.9518 4.39736C33.2287 4.81571 34.0278 4.88682 34.5899 5.12714C36.6394 6.00381 38.5271 7.1452 40.217 8.59074C40.5541 8.87881 40.788 8.89127 41.1366 8.65458C41.5499 8.38564 41.9782 8.13992 42.4193 7.91857C43.6842 7.25523 45.0246 7.58016 45.7473 8.80095C47.407 11.5979 49.043 14.4087 50.6553 17.2334C51.3467 18.4448 50.9693 19.7456 49.7803 20.494C49.3056 20.793 48.8152 21.0691 48.318 21.3292C48.0658 21.461 47.9836 21.6173 48.0375 21.8949C48.5656 24.5922 48.5656 27.3649 48.0375 30.0621C47.9757 30.3798 48.0741 30.5537 48.363 30.6995C48.8341 30.9367 49.2878 31.2072 49.7363 31.4838C50.9793 32.2504 51.353 33.5517 50.6292 34.8166C49.0315 37.6094 47.4128 40.391 45.773 43.1613C45.0282 44.4226 43.6733 44.761 42.3712 44.0603C41.7881 43.7489 41.2198 43.4063 40.7634 43.1452C39.298 44.107 37.941 45.0766 36.5049 45.9107C35.4969 46.4962 34.3905 46.9223 33.3061 47.364C32.9398 47.513 32.8178 47.6791 32.8351 48.059C32.8669 48.6501 32.8552 49.2427 32.8001 49.8321C32.6614 51.1401 31.6942 51.9825 30.3403 51.9929C28.5656 52.0064 26.7909 51.9965 25.0162 51.9965C23.5995 51.9965 22.1833 52.0017 20.7671 51.9965C19.197 51.9893 18.2142 51.0399 18.1624 49.4823C18.1451 48.958 18.1482 48.4328 18.1624 47.9085C18.1697 47.6537 18.0943 47.5161 17.8358 47.4258C15.1906 46.504 12.7432 45.0986 10.6203 43.2823C10.411 43.1047 10.2602 43.1079 10.0394 43.2459C9.59244 43.5246 9.13137 43.7826 8.66924 44.0359C7.3258 44.7719 5.97135 44.4262 5.19784 43.112C3.59114 40.3822 1.997 37.6447 0.415428 34.8997C-0.369603 33.5403 -0.000114795 32.2302 1.35433 31.422C1.76359 31.1786 2.16866 30.9232 2.59781 30.7187C2.93485 30.5583 2.98719 30.3523 2.9516 29.9988C2.80192 28.5045 2.61247 27.006 2.59886 25.508C2.58839 24.35 2.79878 23.1879 2.95317 22.033C3.00237 21.6608 2.94794 21.4413 2.58682 21.2695C2.13029 21.0409 1.68638 20.7882 1.25698 20.5127C0.012969 19.743 -0.355472 18.4448 0.36728 17.1794C1.96665 14.3869 3.58556 11.6054 5.22401 8.83469C5.97031 7.57185 7.32422 7.23655 8.62581 7.93985C9.20778 8.25388 9.77719 8.59385 10.2309 8.8539C11.6995 7.89106 13.057 6.92201 14.4916 6.08634C15.4859 5.50864 16.574 5.08666 17.6448 4.65377C18.0467 4.49131 18.1932 4.29978 18.1597 3.88403C18.1247 3.44699 18.144 3.00165 18.154 2.56461C18.1833 1.27893 18.7229 0.540327 19.9507 0.0882379C19.9936 0.0644957 20.0329 0.034782 20.0674 0L30.9291 0.00259519ZM25.5233 1.52703C23.97 1.52703 22.4174 1.52703 20.8655 1.52703C20.0109 1.52703 19.7052 1.83535 19.6979 2.69645C19.6916 3.40754 19.6843 4.11863 19.6979 4.82921C19.7089 5.32178 19.4985 5.62802 19.0275 5.77854C16.0931 6.7108 13.3964 8.26092 11.1222 10.3228C10.7412 10.6659 10.3571 10.7095 9.91378 10.4443C9.28576 10.069 8.64883 9.70928 8.01087 9.35062C7.30643 8.95459 6.87362 9.0584 6.47587 9.73835C4.90301 12.4301 3.3347 15.1245 1.77092 17.8215C1.38573 18.4853 1.50924 18.8959 2.1896 19.2924C2.76215 19.6277 3.34098 19.9521 3.91667 20.2823C4.66716 20.7126 4.70693 20.8755 4.57766 21.7195C4.39397 22.9211 4.21132 24.1284 4.13281 25.3399C4.02291 27.0179 4.22283 28.6835 4.56929 30.33C4.72996 31.0904 4.63994 31.3047 4.00564 31.6701C3.40116 32.0184 2.79146 32.3579 2.18907 32.7082C1.50871 33.1053 1.38677 33.5154 1.77039 34.1803C3.33382 36.8772 4.90232 39.5714 6.47587 42.2628C6.87309 42.9433 7.30538 43.0461 8.01087 42.6501C8.63418 42.3002 9.26064 41.955 9.86982 41.5819C10.3298 41.2995 10.7229 41.3363 11.1212 41.6935C13.3997 43.7499 16.0988 45.2946 19.0343 46.2221C19.5053 46.3727 19.7089 46.6862 19.6979 47.1761C19.6822 47.8867 19.6895 48.5978 19.6979 49.3089C19.7057 50.1664 20.0119 50.4705 20.8728 50.471C23.9623 50.4735 27.0519 50.4735 30.1414 50.471C30.9955 50.471 31.3012 50.1627 31.3085 49.3006C31.3143 48.59 31.3221 47.8789 31.3085 47.1684C31.2975 46.6758 31.5089 46.3701 31.9794 46.2195C34.9137 45.2879 37.6105 43.7387 39.8852 41.6779C40.2662 41.3343 40.6509 41.2917 41.0936 41.5569C41.6918 41.9156 42.301 42.2556 42.9071 42.6007C43.7266 43.0679 44.116 42.9698 44.5818 42.1736C46.11 39.5538 47.6364 36.9331 49.1611 34.3116C49.6489 33.4743 49.5484 33.1235 48.6901 32.6293C48.1589 32.3247 47.6256 32.0231 47.0944 31.7184C46.3439 31.2886 46.3042 31.1251 46.4339 30.2812C46.6182 29.0796 46.8003 27.8728 46.8798 26.6613C46.9877 24.9833 46.7898 23.3171 46.4418 21.6707C46.2811 20.9103 46.3717 20.6959 47.006 20.3305C47.6105 19.9823 48.2202 19.6428 48.8225 19.2924C49.5003 18.8964 49.6259 18.4827 49.2412 17.8204C47.6778 15.1214 46.1093 12.4272 44.5357 9.73783C44.1385 9.05892 43.702 8.95459 42.9992 9.3501C42.3617 9.70859 41.7272 10.073 41.0957 10.4432C40.6771 10.6913 40.2955 10.6711 39.9276 10.3394C37.6393 8.26815 34.9266 6.71198 31.9752 5.77751C31.5042 5.6275 31.3001 5.31452 31.3111 4.82454C31.3268 4.11396 31.3195 3.40287 31.3111 2.69178C31.3033 1.83431 30.9971 1.53015 30.1367 1.52859C28.5973 1.52513 27.0596 1.52461 25.5233 1.52703Z" fill="#01204C"/>
<path d="M41.0502 25.9928C41.0659 34.4418 34.0859 41.3747 25.5207 41.4183C17.0099 41.4614 9.91065 34.4216 9.95199 25.9809C9.99334 17.4898 16.9838 10.5678 25.5071 10.5823C34.0477 10.5948 41.0345 17.5225 41.0502 25.9928ZM39.5142 26.0182C39.5518 18.4266 33.2339 12.1426 25.5197 12.1047C17.8635 12.0668 11.5262 18.3332 11.488 25.9814C11.4504 33.5729 17.7688 39.8565 25.4825 39.8949C33.1381 39.9323 39.476 33.6648 39.5142 26.0182Z" fill="#01204C"/>
<path d="M44.4792 21.0764C44.4829 21.4714 44.3007 21.7418 43.9234 21.8321C43.5047 21.9317 43.175 21.775 43.0212 21.365C42.7359 20.6066 42.5041 19.8275 42.1922 19.0811C40.9461 16.0935 39.0034 13.6343 36.406 11.6821C36.1752 11.5083 35.9349 11.3453 35.7151 11.1589C35.3488 10.8506 35.286 10.4136 35.5419 10.0814C35.8072 9.73675 36.2385 9.65163 36.6273 9.95631C37.562 10.6892 38.5271 11.3987 39.3713 12.2266C41.7661 14.5758 43.4294 17.3761 44.3677 20.5916C44.396 20.6886 44.43 20.7841 44.4541 20.8828C44.4663 20.9467 44.4747 21.0114 44.4792 21.0764Z" fill="#01204C"/>
<path d="M23.79 45.401C21.533 45.2045 19.3271 44.6231 17.2695 43.6825C15.3281 42.8038 13.5511 41.6045 12.0145 40.1358C11.8052 39.9339 11.6675 39.5597 11.6733 39.2685C11.677 39.0816 11.9936 38.7645 12.1883 38.7494C12.4683 38.7287 12.809 38.8719 13.0471 39.0469C13.8808 39.6599 14.6449 40.3699 15.5022 40.9455C17.9583 42.5961 20.6881 43.5325 23.6335 43.8595C23.7356 43.8657 23.8373 43.8775 23.9381 43.8948C24.4123 44.0027 24.6577 44.3318 24.596 44.7688C24.5394 45.1716 24.2218 45.4104 23.79 45.401Z" fill="#01204C"/>
<path d="M10.6904 36.7459C10.5795 36.8715 10.4335 37.1814 10.2163 37.2426C9.97343 37.3117 9.54271 37.2494 9.40978 37.0786C8.96013 36.4904 8.56182 35.8653 8.21915 35.2101C8.05063 34.894 8.15373 34.4834 8.51171 34.3484C8.76972 34.2519 9.2601 34.2446 9.38047 34.4003C9.86091 35.0232 10.2393 35.7224 10.6491 36.3971C10.681 36.4485 10.6669 36.5284 10.6904 36.7459Z" fill="#01204C"/>
<path d="M31.1761 7.30188C31.9768 7.62369 32.6844 7.86453 33.3496 8.19464C33.6913 8.36229 33.7264 8.75469 33.5668 9.09103C33.4071 9.42738 33.1057 9.61267 32.7268 9.4907C32.1134 9.29294 31.5037 9.07546 30.9102 8.8258C30.5271 8.66438 30.3811 8.29482 30.5439 7.93927C30.6548 7.68701 30.9505 7.51988 31.1761 7.30188Z" fill="#01204C"/>
<path d="M26.2424 27.5349C26.2424 28.2097 26.2665 28.7806 26.2346 29.349C26.2115 29.7642 25.9258 29.9874 25.516 29.9926C25.08 29.9983 24.8142 29.7658 24.7571 29.3282C24.7396 29.1771 24.7317 29.0251 24.7336 28.873C24.731 28.0099 24.7336 27.1472 24.7336 26.284C24.7336 25.1842 24.7273 24.0843 24.7367 22.9844C24.743 22.2479 24.9895 21.9842 25.7096 21.9822C26.7155 21.9785 27.7251 21.9598 28.7268 22.0341C30.1273 22.1379 31.2132 23.4028 31.1907 24.8042C31.1682 26.2056 30.1032 27.4176 28.7242 27.523C27.9308 27.5842 27.1305 27.5349 26.2424 27.5349ZM26.2712 26.0437C27.0128 26.0437 27.69 26.065 28.3646 26.038C29.1088 26.0084 29.6437 25.467 29.651 24.7923C29.6583 24.1175 29.1319 23.5621 28.3908 23.518C27.7957 23.4856 27.1992 23.4856 26.6041 23.518C26.4884 23.5237 26.29 23.7163 26.2859 23.8294C26.2565 24.5343 26.2712 25.2433 26.2712 26.0437Z" fill="#01204C"/>
<path d="M23.892 29.3391C23.6827 29.5467 23.5121 29.8285 23.2614 29.9505C22.9228 30.115 22.5779 29.9733 22.3926 29.6328C22.2422 29.3489 22.1209 29.0507 22.0305 28.7427C21.9462 28.466 21.7908 28.3825 21.5097 28.3871C20.6232 28.4022 19.7366 28.4043 18.85 28.3871C18.547 28.3809 18.3733 28.4671 18.2963 28.7697C18.2297 28.9966 18.1448 29.2179 18.0425 29.4314C17.8279 29.9193 17.4642 30.1062 17.033 29.9567C16.6237 29.8155 16.4327 29.3993 16.609 28.9082C16.9811 27.8753 17.3826 26.8528 17.7709 25.8256C18.1655 24.7829 18.5559 23.738 18.9537 22.6968C19.1886 22.0828 19.3671 21.9795 20.1338 21.9774C20.9628 21.9774 21.1439 22.0688 21.3768 22.6807C22.1444 24.7019 22.9079 26.7248 23.6675 28.7494C23.7266 28.9051 23.7617 29.0717 23.8078 29.2326C23.8329 29.2679 23.8612 29.3032 23.892 29.3391ZM21.3072 26.8518L20.1673 23.8413C19.756 24.9313 19.4001 25.8708 19.029 26.8518H21.3072Z" fill="#01204C"/>
<path d="M32.1275 26.0006C32.1275 24.9874 32.1223 23.9763 32.1275 22.9611C32.1317 22.3336 32.3824 22.018 32.8602 22.0024C33.3579 21.9858 33.6583 22.3247 33.661 22.959C33.6693 24.9833 33.6641 27.0117 33.661 29.0381C33.6625 29.1057 33.6595 29.1733 33.6521 29.2405C33.5861 29.7352 33.2967 30.0108 32.8597 29.9973C32.4227 29.9838 32.1375 29.6999 32.127 29.1922C32.1113 28.1287 32.1223 27.0642 32.1223 26.0006H32.1275Z" fill="#01204C"/>
</svg>
