<svg width="69" height="32" viewBox="0 0 69 32" fill="none" xmlns="http://www.w3.org/2000/svg">
<g clip-path="url(#clip0_442_1125)">
<path d="M30.877 24.118C31.0634 23.9176 31.2103 23.6805 31.3095 23.4204C31.4087 23.1603 31.4582 22.8821 31.4552 22.6019C31.4521 22.3216 31.3966 22.0448 31.2918 21.7871C31.1869 21.5294 31.0348 21.2959 30.8441 21.1001C30.6535 20.9042 30.428 20.7497 30.1805 20.6454C29.933 20.5411 29.6684 20.4891 29.4018 20.4923C29.1353 20.4955 28.8719 20.5539 28.6267 20.6641C28.3816 20.7743 28.1595 20.9342 27.9732 21.1346C23.8405 25.5752 19.607 27.728 15.2192 27.728C12.259 27.728 9.41999 26.4919 7.3268 24.2915C5.23362 22.0912 4.05769 19.1069 4.05769 15.9951C4.05769 12.8834 5.23362 9.89905 7.3268 7.6987C9.41999 5.49836 12.259 4.26222 15.2192 4.26222C21.3325 4.26222 27.1952 8.47951 32.8195 17.1936C39.1285 26.9681 46.1161 31.9951 53.7792 31.9951C57.816 31.9951 61.6874 30.3094 64.5419 27.3088C67.3963 24.3082 68.9999 20.2386 68.9999 15.9951C68.9999 11.7517 67.3963 7.68199 64.5419 4.68141C61.6874 1.68083 57.816 -0.00487753 53.7792 -0.00487753C48.2145 -0.00487753 42.9753 2.66366 38.1229 7.8674C37.7463 8.27219 37.5381 8.81764 37.5442 9.38377C37.5502 9.9499 37.7699 10.4903 38.155 10.8862C38.54 11.282 39.0589 11.5008 39.5975 11.4945C40.136 11.4882 40.6502 11.2572 41.0267 10.8524C45.1593 6.42308 49.3928 4.27186 53.7792 4.27186C56.7394 4.27186 59.5784 5.508 61.6715 7.70834C63.7647 9.90869 64.9407 12.893 64.9407 16.0048C64.9407 19.1165 63.7647 22.1008 61.6715 24.3012C59.5784 26.5015 56.7394 27.7377 53.7792 27.7377C47.6658 27.7377 41.8031 23.5204 36.1788 14.8062C29.8698 5.03177 22.8823 0.0047616 15.2192 0.0047616C11.1824 0.0047616 7.31091 1.69047 4.45647 4.69105C1.60202 7.69163 -0.00158691 11.7613 -0.00158691 16.0048C-0.00158691 20.2482 1.60202 24.3179 4.45647 27.3185C7.31091 30.3191 11.1824 32.0048 15.2192 32.0048C20.7854 32.0048 26.023 29.3346 30.877 24.1228V24.118Z" fill="#01204C"/>
</g>
<defs>
<clipPath id="clip0_442_1125">
<rect width="69" height="32" fill="white" transform="matrix(1 0 0 -1 0 32)"/>
</clipPath>
</defs>
</svg>
