<?xml version="1.0" encoding="utf-8"?>
<!-- Generator: Adobe Illustrator 19.0.0, SVG Export Plug-In . SVG Version: 6.00 Build 0)  -->
<svg version="1.1" xmlns="http://www.w3.org/2000/svg" xmlns:xlink="http://www.w3.org/1999/xlink" x="0px" y="0px"
	 viewBox="0 0 500 500" style="enable-background:new 0 0 500 500;" xml:space="preserve">
<style type="text/css">
	.st0{display:none;}
	.st1{display:inline;fill:#FFFFFF;}
	.st2{fill:#D1E6EC;}
	.st3{fill:#FA5F2D;}
	.st4{fill:#0172D0;}
	.st5{fill:#0056C5;}
	.st6{fill:#083796;}
	.st7{fill:#0036AC;}
	.st8{fill:#FFA681;}
	.st9{fill:#F97853;}
	.st10{fill:#18315B;}
	.st11{fill:#EA5143;}
	.st12{fill:#FFFFFF;}
	.st13{fill:#1D567E;}
	.st14{fill:#000B29;}
	.st15{fill:#002B5C;}
	.st16{fill:#D33E2F;}
	.st17{fill:#FBAB7F;}
	.st18{display:inline;}
	.st19{fill:#112129;}
</style>
<g id="BACKGROUND" class="st0">
	<rect class="st1" width="500" height="500"/>
</g>
<g id="OBJECTS">
	<g>
		<g>
			<path class="st2" d="M236.6,194.5c-15.5-56.2-85.3-74.3-125.3-32.3c-0.6,0.6-1.1,1.2-1.7,1.8c-57.4,62.4-30.3,216,89.5,255
				s244.3-32.2,251.3-95.8c7-63.6-48.2-83.6-134-65.8C267.9,267.6,246.2,229.5,236.6,194.5z"/>
		</g>
		<g>
			<g>
				<path class="st2" d="M118.4,146.2l-2.8-1.1c0-0.1,0.7-1.6,2-4.3l2.7,1.4C119,144.7,118.4,146.2,118.4,146.2z"/>
			</g>
			<g>
				<path class="st2" d="M122.7,137.7l-2.6-1.5c1.5-2.6,3.2-5.2,5.1-7.8l2.4,1.7C125.9,132.6,124.2,135.2,122.7,137.7z M130.7,126
					l-2.4-1.8c1.9-2.4,3.9-4.8,6-7.1l2.2,2C134.5,121.3,132.6,123.6,130.7,126z M353,123.6c-1.8-2.3-3.9-4.5-6-6.8l2.2-2.1
					c2.2,2.3,4.3,4.6,6.2,6.9L353,123.6z M140.1,115.3l-2.1-2.1c2.2-2.2,4.4-4.3,6.8-6.3l2,2.3C144.4,111.1,142.2,113.2,140.1,115.3
					z M343.3,113.2c-2.2-2-4.5-4.1-6.8-6l1.9-2.3c2.4,2,4.8,4,7,6.1L343.3,113.2z M150.7,105.9l-1.9-2.3c2.4-1.9,4.9-3.8,7.5-5.5
					l1.7,2.5C155.5,102.2,153,104,150.7,105.9z M332.4,104.1c-2.4-1.8-4.9-3.5-7.5-5.2l1.6-2.5c2.6,1.7,5.2,3.4,7.6,5.3L332.4,104.1
					z M162.2,97.7l-1.6-2.5c2.6-1.6,5.3-3.2,8-4.6l1.4,2.7C167.4,94.5,164.8,96.1,162.2,97.7z M320.6,96.2c-2.6-1.5-5.3-3-8-4.3
					l1.3-2.7c2.8,1.4,5.5,2.9,8.2,4.4L320.6,96.2z M174.7,90.8l-1.3-2.7c2.8-1.3,5.6-2.6,8.5-3.7l1.1,2.8
					C180.2,88.3,177.4,89.5,174.7,90.8z M307.9,89.7c-2.7-1.2-5.6-2.4-8.4-3.4l1-2.8c2.9,1.1,5.8,2.3,8.6,3.5L307.9,89.7z
					 M187.8,85.4l-1-2.8c2.9-1,5.8-2,8.8-2.8l0.8,2.9C193.5,83.4,190.6,84.4,187.8,85.4z M294.7,84.6c-2.8-0.9-5.8-1.8-8.7-2.6
					l0.8-2.9c3,0.8,6,1.7,8.9,2.6L294.7,84.6z M201.4,81.3l-0.7-2.9c3-0.7,6-1.4,9-1.9l0.5,3C207.3,79.9,204.3,80.6,201.4,81.3z
					 M281,80.7c-2.9-0.7-5.9-1.3-8.9-1.8l0.5-3c3.1,0.5,6.1,1.1,9.1,1.8L281,80.7z M215.4,78.5l-0.4-3c3-0.5,6.1-0.8,9.2-1.1l0.3,3
					C221.3,77.7,218.3,78.1,215.4,78.5z M267,78.2c-3-0.4-6-0.7-9-1l0.3-3c3.1,0.3,6.2,0.6,9.2,1L267,78.2z M229.5,77l-0.2-3
					c3-0.2,6.1-0.3,9.2-0.4l0.1,3C235.5,76.7,232.5,76.8,229.5,77z M252.8,76.8c-3-0.2-6-0.3-9.1-0.3l0-3c3.1,0,6.2,0.1,9.2,0.3
					L252.8,76.8z"/>
			</g>
			<g>
				<path class="st2" d="M358.6,131.4c0,0-0.8-1.4-2.5-3.7l2.4-1.8c1.8,2.4,2.6,3.9,2.6,4L358.6,131.4z"/>
			</g>
		</g>
		<g>
			<path class="st2" d="M63.7,289.8c-1.8-1.1-4.5-2.9-7.7-5.6l2-2.3c3,2.6,5.6,4.3,7.3,5.3L63.7,289.8z M52.2,280.5
				c-2.2-2.3-4.3-4.7-6.1-7.2l2.4-1.8c1.8,2.4,3.7,4.7,5.9,6.9L52.2,280.5z M43,268.9c-1.6-2.7-3.1-5.5-4.3-8.4l2.8-1.2
				c1.2,2.8,2.5,5.5,4.1,8L43,268.9z M36.9,255.4c-1-3-1.7-6.1-2.2-9.2l3-0.5c0.5,3,1.2,5.9,2.1,8.8L36.9,255.4z M34,240.9
				c-0.2-2.2-0.3-4.4-0.3-6.6c0-0.9,0-1.9,0.1-2.8l3,0.2c0,0.9-0.1,1.8-0.1,2.7c0,2.1,0.1,4.3,0.3,6.4L34,240.9z M37.3,226.6l-3-0.5
				c0.5-3.1,1.3-6.2,2.4-9.2l2.8,1C38.5,220.7,37.8,223.6,37.3,226.6z M41.6,213.2l-2.7-1.3c1.4-2.8,3-5.5,4.9-8.1l2.4,1.7
				C44.4,208,42.8,210.6,41.6,213.2z M49.3,201.5l-2.3-1.9c2-2.4,4.2-4.6,6.6-6.8l2,2.2C53.4,197,51.2,199.2,49.3,201.5z
				 M59.6,191.7l-1.8-2.4c4.5-3.5,7.8-5.2,7.9-5.3l1.4,2.7C67,186.7,63.8,188.4,59.6,191.7z M67.1,186.7l-0.7-1.3L67.1,186.7
				C67.1,186.7,67.1,186.7,67.1,186.7L67.1,186.7z"/>
		</g>
		<g>
			<path class="st2" d="M429.1,282.8l-1.6-2.6c1.7-1,4.3-2.8,7.3-5.3l2,2.3C433.6,279.9,430.9,281.7,429.1,282.8z M440.7,273.5
				l-2.1-2.1c2.1-2.2,4.1-4.5,5.9-6.9l2.4,1.8C445,268.8,442.9,271.2,440.7,273.5z M449.8,261.8l-2.6-1.6c1.6-2.6,2.9-5.3,4.1-8
				l2.8,1.2C452.9,256.3,451.5,259.1,449.8,261.8z M456,248.4l-2.9-0.9c0.9-2.8,1.6-5.8,2.1-8.8l3,0.5
				C457.7,242.3,457,245.4,456,248.4z M458.9,233.9l-3-0.3c0.2-2.1,0.3-4.2,0.3-6.4c0-0.9,0-1.8-0.1-2.7l3-0.2
				c0.1,0.9,0.1,1.9,0.1,2.8C459.2,229.5,459.1,231.7,458.9,233.9z M455.6,219.5c-0.5-2.9-1.2-5.8-2.3-8.6l2.8-1
				c1.1,3,1.9,6.1,2.4,9.2L455.6,219.5z M451.3,206.2c-1.3-2.6-2.8-5.2-4.6-7.7l2.4-1.7c1.9,2.6,3.5,5.4,4.9,8.1L451.3,206.2z
				 M443.5,194.4c-1.9-2.2-4-4.4-6.3-6.5l2-2.2c2.4,2.1,4.6,4.4,6.6,6.8L443.5,194.4z M433.3,184.6c-4.3-3.3-7.4-5-7.5-5l1.4-2.7
				c0.1,0.1,3.4,1.8,7.9,5.3L433.3,184.6z"/>
		</g>
		<g>
			<path class="st2" d="M216.7,123.3l1.1-5.5l-5.2-1c0-1.4-0.2-2.7-0.7-4.1l4.3-2.9l-3.2-4.7l-4.1,2.8c-1.2-1.2-2.7-2.2-4.2-2.8
				l1-5.2l-5.5-1.1l-1.1,5.4c-1.1,0.1-2.3,0.3-3.4,0.7l-2.9-4.3l-4.7,3.2l2.8,4.1c-1.2,1.2-2.2,2.7-2.8,4.2l-4.5-0.9l-1.1,5.5
				l4.7,0.9c0.1,1.5,0.4,2.9,1,4.3l-4.1,2.8l3.2,4.7l4.3-2.9c1.2,1.1,2.6,1.9,4.1,2.4l-1,5.2l5.5,1.1l1.1-5.7
				c1.2-0.1,2.4-0.4,3.6-0.9l2.8,4.1l4.7-3.2l-2.9-4.3c0.8-0.9,1.4-1.8,1.9-2.9L216.7,123.3z M202.8,121.1c-2.4,1.6-5.6,1-7.2-1.4
				c-1.6-2.4-1-5.6,1.4-7.2c2.4-1.6,5.6-1,7.2,1.4C205.8,116.3,205.2,119.5,202.8,121.1z"/>
			<path class="st2" d="M62.6,175.7l1.1-5.5l-5.2-1c0-1.4-0.2-2.7-0.7-4.1l4.3-2.9l-3.2-4.7l-4.1,2.8c-1.2-1.2-2.7-2.2-4.2-2.8
				l1-5.2l-5.5-1.1l-1.1,5.4c-1.1,0.1-2.3,0.3-3.4,0.7l-2.9-4.3l-4.7,3.2l2.8,4.1c-1.2,1.2-2.2,2.7-2.8,4.2l-4.5-0.9l-1.1,5.5
				l4.7,0.9c0.1,1.5,0.4,2.9,1,4.3l-4.1,2.8l3.2,4.7l4.3-2.9c1.2,1.1,2.6,1.9,4.1,2.4l-1,5.2l5.5,1.1l1.1-5.7
				c1.2-0.1,2.4-0.4,3.6-0.9l2.8,4.1l4.7-3.2l-2.9-4.3c0.8-0.9,1.4-1.8,1.9-2.9L62.6,175.7z M48.7,173.5c-2.4,1.6-5.6,1-7.2-1.4
				c-1.6-2.4-1-5.6,1.4-7.2c2.4-1.6,5.6-1,7.2,1.4C51.7,168.6,51,171.9,48.7,173.5z"/>
			<path class="st2" d="M238.3,96.2l0.6-3l-2.8-0.6c0-0.7-0.1-1.5-0.4-2.2l2.3-1.6l-1.7-2.6l-2.2,1.5c-0.7-0.7-1.4-1.2-2.3-1.5
				l0.6-2.8l-3-0.6l-0.6,2.9c-0.6,0-1.2,0.2-1.8,0.4l-1.6-2.3l-2.6,1.7l1.5,2.2c-0.7,0.7-1.2,1.4-1.5,2.3l-2.5-0.5l-0.6,3l2.6,0.5
				c0,0.8,0.2,1.6,0.5,2.3l-2.2,1.5l1.7,2.6l2.3-1.6c0.7,0.6,1.4,1,2.3,1.3l-0.6,2.9l3,0.6l0.6-3.1c0.7-0.1,1.3-0.2,2-0.5l1.5,2.2
				l2.6-1.7l-1.6-2.3c0.4-0.5,0.8-1,1-1.6L238.3,96.2z M230.6,95c-1.3,0.9-3.1,0.5-3.9-0.8c-0.9-1.3-0.5-3.1,0.8-3.9
				c1.3-0.9,3.1-0.5,3.9,0.8C232.3,92.4,231.9,94.2,230.6,95z"/>
		</g>
	</g>
	<g>
		<g>
			<g>
				<g>
					<path class="st3" d="M384.4,121.6c-3.6,0-6.6-3-6.6-6.6c0-3.6,3-6.6,6.6-6.6s6.6,3,6.6,6.6C391,118.7,388,121.6,384.4,121.6z
						 M384.4,110.5c-2.5,0-4.5,2-4.5,4.5c0,2.5,2,4.5,4.5,4.5c2.5,0,4.5-2,4.5-4.5C388.9,112.5,386.9,110.5,384.4,110.5z"/>
				</g>
				<g>
					<path class="st3" d="M403.6,94.6c-3.6,0-6.6-3-6.6-6.6s3-6.6,6.6-6.6c3.6,0,6.6,3,6.6,6.6S407.3,94.6,403.6,94.6z M403.6,83.4
						c-2.5,0-4.5,2-4.5,4.5c0,2.5,2,4.5,4.5,4.5c2.5,0,4.5-2,4.5-4.5C408.2,85.5,406.1,83.4,403.6,83.4z"/>
				</g>
				<g>
					<g>
						<g>
							<path class="st4" d="M411.8,116c-0.6,0-1-0.5-1-1v-4.6c0-0.6,0.5-1,1-1c0.6,0,1,0.5,1,1v4.6C412.8,115.5,412.3,116,411.8,116
								z"/>
						</g>
						<g>
							<path class="st4" d="M411.8,124c-0.6,0-1-0.5-1-1v-4.6c0-0.6,0.5-1,1-1c0.6,0,1,0.5,1,1v4.6C412.8,123.5,412.3,124,411.8,124
								z"/>
						</g>
					</g>
					<g>
						<g>
							<path class="st4" d="M418.2,117.7h-4.1c-0.6,0-1-0.5-1-1c0-0.6,0.5-1,1-1h4.1c0.6,0,1,0.5,1,1
								C419.2,117.2,418.8,117.7,418.2,117.7z"/>
						</g>
						<g>
							<path class="st4" d="M409.5,117.7h-4.1c-0.6,0-1-0.5-1-1c0-0.6,0.5-1,1-1h4.1c0.6,0,1,0.5,1,1
								C410.5,117.2,410,117.7,409.5,117.7z"/>
						</g>
					</g>
				</g>
				<g>
					<g>
						<g>
							<g>
								<g>
									<path class="st5" d="M376.9,88.3c-0.6,0-1-0.5-1-1v-4.6c0-0.6,0.5-1,1-1s1,0.5,1,1v4.6C378,87.9,377.5,88.3,376.9,88.3z"/>
								</g>
							</g>
							<g>
								<g>
									<path class="st5" d="M376.9,96.3c-0.6,0-1-0.5-1-1v-4.6c0-0.6,0.5-1,1-1s1,0.5,1,1v4.6C378,95.9,377.5,96.3,376.9,96.3z"/>
								</g>
							</g>
						</g>
						<g>
							<g>
								<g>
									<path class="st5" d="M383.3,90.1h-4.1c-0.6,0-1-0.5-1-1c0-0.6,0.5-1,1-1h4.1c0.6,0,1,0.5,1,1
										C384.4,89.6,383.9,90.1,383.3,90.1z"/>
								</g>
							</g>
							<g>
								<g>
									<path class="st5" d="M374.6,90.1h-4.1c-0.6,0-1-0.5-1-1c0-0.6,0.5-1,1-1h4.1c0.6,0,1,0.5,1,1
										C375.7,89.6,375.2,90.1,374.6,90.1z"/>
								</g>
							</g>
						</g>
					</g>
				</g>
			</g>
			<g>
				<g>
					<g>
						<g>
							<g>
								<path class="st3" d="M127.7,61.3c0-3.6,3-6.6,6.6-6.6c3.6,0,6.6,3,6.6,6.6c0,3.6-3,6.6-6.6,6.6
									C130.6,67.9,127.7,64.9,127.7,61.3z M129.7,61.3c0,2.5,2,4.5,4.5,4.5c2.5,0,4.5-2,4.5-4.5c0-2.5-2-4.5-4.5-4.5
									C131.8,56.7,129.7,58.8,129.7,61.3z"/>
							</g>
						</g>
					</g>
				</g>
				<g>
					<path class="st4" d="M113.7,84.6c0-3.6,3-6.6,6.6-6.6c3.6,0,6.6,3,6.6,6.6c0,3.6-3,6.6-6.6,6.6
						C116.6,91.2,113.7,88.2,113.7,84.6z M115.7,84.6c0,2.5,2,4.5,4.5,4.5c2.5,0,4.5-2,4.5-4.5c0-2.5-2-4.5-4.5-4.5
						C117.8,80.1,115.7,82.1,115.7,84.6z"/>
				</g>
				<g>
					<g>
						<g>
							<path class="st3" d="M109.2,102.5c0.6,0,1-0.5,1-1v-4.6c0-0.6-0.5-1-1-1c-0.6,0-1,0.5-1,1v4.6
								C108.1,102.1,108.6,102.5,109.2,102.5z"/>
						</g>
						<g>
							<path class="st3" d="M109.2,110.5c0.6,0,1-0.5,1-1v-4.6c0-0.6-0.5-1-1-1c-0.6,0-1,0.5-1,1v4.6
								C108.1,110.1,108.6,110.5,109.2,110.5z"/>
						</g>
					</g>
					<g>
						<g>
							<path class="st3" d="M102.8,104.2h4.1c0.6,0,1-0.5,1-1c0-0.6-0.5-1-1-1h-4.1c-0.6,0-1,0.5-1,1
								C101.7,103.8,102.2,104.2,102.8,104.2z"/>
						</g>
						<g>
							<path class="st3" d="M111.5,104.2h4.1c0.6,0,1-0.5,1-1c0-0.6-0.5-1-1-1h-4.1c-0.6,0-1,0.5-1,1
								C110.4,103.8,110.9,104.2,111.5,104.2z"/>
						</g>
					</g>
				</g>
				<g>
					<g>
						<g>
							<g>
								<g>
									<path class="st5" d="M151.3,74.6c0.6,0,1-0.5,1-1V69c0-0.6-0.5-1-1-1c-0.6,0-1,0.5-1,1v4.6
										C150.2,74.2,150.7,74.6,151.3,74.6z"/>
								</g>
							</g>
							<g>
								<g>
									<path class="st5" d="M151.3,82.6c0.6,0,1-0.5,1-1V77c0-0.6-0.5-1-1-1c-0.6,0-1,0.5-1,1v4.6
										C150.2,82.1,150.7,82.6,151.3,82.6z"/>
								</g>
							</g>
						</g>
						<g>
							<g>
								<g>
									<path class="st5" d="M144.9,76.3h4.1c0.6,0,1-0.5,1-1c0-0.6-0.5-1-1-1h-4.1c-0.6,0-1,0.5-1,1
										C143.8,75.9,144.3,76.3,144.9,76.3z"/>
								</g>
							</g>
							<g>
								<g>
									<path class="st5" d="M153.6,76.3h4.1c0.6,0,1-0.5,1-1c0-0.6-0.5-1-1-1h-4.1c-0.6,0-1,0.5-1,1
										C152.5,75.9,153,76.3,153.6,76.3z"/>
								</g>
							</g>
						</g>
					</g>
				</g>
			</g>
		</g>
	</g>
	<g>
		<path class="st5" d="M75.4,287.2l1.8,2.7l1.7-2.3l-14.7-22.9c0-2.6,0.4-6.2,1.8-10.6c2.7-8.3,4.1-17.7-1.2-15.9
			c-4.6,1.5-5.9,12.2-3.6,21.9l-5.7-8.9c-1.3-3-3.2-7.4-3.9-12.5c-1.8-12-5.7-23-10.7-18.7c-5.1,4.3,2,23.1,13.1,33.8l2.9,4.6
			c-8-8-21.2-13-25-8.9c-3.8,4.1,5.3,6.7,14,7.7c6.6,0.7,10.8,2.7,12.8,4l13.9,21.5c-12.7-12.6-33.6-20.5-39.6-14
			c-6,6.6,8.4,10.7,22.2,12.2C65.6,282.2,72.2,285.3,75.4,287.2z"/>
		<path class="st5" d="M413.8,219.1l-1.8,2.7l-1.7-2.3l14.7-22.9c0-2.6-0.4-6.2-1.8-10.6c-2.7-8.3-4.1-17.7,1.2-15.9
			c4.6,1.5,5.9,12.2,3.6,21.9l5.7-8.9c1.3-3,3.2-7.4,3.9-12.5c1.8-12,5.7-23,10.7-18.7c5.1,4.3-2,23.1-13.1,33.8l-2.9,4.6
			c8-8,21.2-13,25-8.9c3.8,4.1-5.3,6.7-14,7.7c-6.6,0.7-10.8,2.7-12.8,4l-13.9,21.5c12.7-12.6,33.6-20.5,39.6-14
			c6,6.6-8.4,10.7-22.2,12.2C423.6,214,417,217.1,413.8,219.1z"/>
		<g>
			<g>
				<g>
					<g>
						<path class="st5" d="M101.2,188.1h10.9c-5.9-1-20.5-7.3-21.8-19.9c-1.7-16-7.3-15.8-16.9-17.4c-9.6-1.7-12.2,1.1-18.3-11.3
							c-6.1-12.4-19.6-13.9-19.6-13.9s12.4,13.5,10,23.7c-2.4,10.2,5.8,14.3,12.4,15.6c6.6,1.3,5,10.1,7.5,15.8
							c1.1,2.6,5.8,5.3,10.5,7.4H101.2z"/>
					</g>
				</g>
			</g>
			<g>
				<g>
					<g>
						<path class="st6" d="M77.6,172.4c0.5,4.8,3.2,10.5,7.3,15.2c0.1,0.2,0.3,0.3,0.4,0.5h1.2c-0.4-0.4-0.7-0.7-1-1.1
							c-3.9-4.5-6.7-10.2-7.1-14.7c-0.7-7.2-6.3-12.1-18.1-15.9c-6.8-2.2-9-10.6-9-10.6c-0.1-0.2-0.3-0.4-0.6-0.3
							c-0.2,0.1-0.4,0.3-0.3,0.6c0.1,0.4,2.3,8.9,9.6,11.3C71.5,161,76.9,165.6,77.6,172.4z"/>
					</g>
				</g>
			</g>
		</g>
		<g>
			<g>
				<g>
					<g>
						<path class="st4" d="M95.6,188.1h23c0,0,0,0,0-0.1c0.6-2.3,1-4.7,1.1-7c0.3-8,0.4-28.2-4.8-33.4c-6.5-6.5-19.6-9-17.9-18.8
							c1.7-9.8,0.4-23.4-15.1-25.6C66.4,101,54.3,76.7,54.3,76.7s-5.1,19.7,8.8,34.7c13.9,15.1,8.7,17.3,5.9,31.5
							c-2.8,14.2-6.1,22,15.1,32.8C90,178.6,93.5,183.1,95.6,188.1z"/>
					</g>
				</g>
			</g>
			<g>
				<g>
					<g>
						<path class="st5" d="M83.8,127.8c-1,18.4,2.8,28.8,12.4,33.6c6,3.1,12.4,9.9,16.6,17.8c1.3,2.5,2.7,5.5,3.7,9h1.4
							c-1.1-3.7-2.5-7-3.9-9.6c-4.4-8.3-10.8-15.1-17.2-18.3c-9.1-4.6-12.7-14.6-11.7-32.3c0.6-11.4-10.1-19.1-10.5-19.4
							c-0.3-0.2-0.7-0.1-0.9,0.2c-0.2,0.3-0.1,0.7,0.2,0.9C73.9,109.6,84.4,117.1,83.8,127.8z"/>
					</g>
				</g>
			</g>
		</g>
		<g>
			<g>
				<g>
					<g>
						<path class="st5" d="M97,412l10.9-1.2c-6-0.3-21.2-4.9-23.9-17.3c-3.4-15.7-9.1-14.8-18.8-15.4c-9.7-0.6-12,2.4-19.4-9.2
							c-7.4-11.6-21.1-11.7-21.1-11.7s13.8,12,12.6,22.5c-1.2,10.4,7.4,13.6,14.1,14.1c6.7,0.5,6.1,9.5,9.2,14.8
							c1.4,2.4,6.4,4.6,11.3,6.2L97,412z"/>
					</g>
				</g>
			</g>
			<g>
				<g>
					<g>
						<path class="st6" d="M71.8,399c1,4.7,4.4,10,9,14.3c0.2,0.1,0.3,0.3,0.5,0.5l1.2-0.1c-0.4-0.3-0.8-0.7-1.1-1
							c-4.4-4.1-7.8-9.3-8.7-13.8c-1.5-7.1-7.6-11.3-19.7-13.8c-7-1.4-10.1-9.5-10.1-9.6c-0.1-0.2-0.4-0.4-0.6-0.3
							c-0.2,0.1-0.4,0.4-0.3,0.6c0.1,0.4,3.3,8.6,10.8,10.1C64.5,388.3,70.3,392.3,71.8,399z"/>
					</g>
				</g>
			</g>
		</g>
		<g>
			<g>
				<g>
					<g>
						<path class="st4" d="M77,401.2h23c0,0,0,0,0-0.1c0.6-2.3,1-4.7,1.1-7c0.3-8,0.4-28.2-4.8-33.4c-6.5-6.5-19.6-9-17.9-18.8
							c1.7-9.8,0.4-23.4-15.1-25.6c-15.5-2.2-27.6-26.6-27.6-26.6s-5.1,19.7,8.8,34.7c13.9,15.1,8.7,17.3,5.9,31.5
							c-2.8,14.2-6.1,22,15.1,32.8C71.4,391.6,74.9,396.1,77,401.2z"/>
					</g>
				</g>
			</g>
			<g>
				<g>
					<g>
						<path class="st5" d="M65.2,340.8c-1,18.4,2.8,28.8,12.4,33.6c6,3.1,12.4,9.9,16.6,17.8c1.3,2.5,2.7,5.5,3.7,9h1.4
							c-1.1-3.7-2.5-7-3.9-9.6c-4.4-8.3-10.8-15.1-17.2-18.3c-9.1-4.6-12.7-14.6-11.7-32.3c0.6-11.4-10.1-19.1-10.5-19.4
							c-0.3-0.2-0.7-0.1-0.9,0.2c-0.2,0.3-0.1,0.7,0.2,0.9C55.3,322.7,65.7,330.1,65.2,340.8z"/>
					</g>
				</g>
			</g>
		</g>
		<g>
			<path class="st5" d="M227,119.1c1,12.1,12.4,14.2,10.2,23.4c-2.2,9.2,2.1,17.5,10.4,17.5c8.4,0,14.5-0.4,16.2,9.5
				c1.7,10,12.3,17.1,18.5,10.8c1.5-1.6,3.2-3.3,4.8-4.9c0.4-0.5,0.9-0.9,1.3-1.4c0.1-0.1,0.2-0.2,0.3-0.3
				c6.5-6.7,7.1-17.3,1.1-24.5c-2.4-2.9-5.6-4.9-9.8-4.6c-13.1,1-6-10.5-12.3-17.3c-7.2-7.9-15.9-2.6-20.6-9
				C240.6,109.5,226.1,107,227,119.1z"/>
			<g>
				<g>
					<path class="st7" d="M240.7,127.2l46.4,48.2c0.4-0.5,0.9-0.9,1.3-1.4l-46.4-48.2c-0.4-0.4-1-0.4-1.3,0
						C240.3,126.2,240.3,126.8,240.7,127.2z"/>
				</g>
			</g>
		</g>
		<g>
			<path class="st4" d="M253.9,66.3c-4.8,12.9,6,20.5-0.6,28.9c-6.6,8.4-6.1,19,2.5,22.9c8.6,4,15.1,6.4,12.1,17.5
				c-3,11.1,4.6,23.4,13.9,19.9c2.3-0.9,4.8-1.8,7.3-2.8c0.7-0.3,1.3-0.5,2-0.8c0.2-0.1,0.3-0.1,0.5-0.2
				c9.9-3.8,15.5-14.4,12.8-24.7c-1.1-4.1-3.4-7.8-7.9-9.4c-14-5.2-1.2-13.6-4.4-23.6c-3.7-11.5-15.2-10.2-17-19
				C272.5,62.8,258.7,53.3,253.9,66.3z"/>
			<g>
				<path class="st5" d="M264.2,81.1l24.9,71.6c0.7-0.3,1.3-0.5,2-0.8l-24.9-71.6c-0.2-0.6-0.8-0.9-1.4-0.7
					C264.3,79.9,264,80.5,264.2,81.1z"/>
			</g>
		</g>
		<g>
			<path class="st5" d="M469.4,335.3c-1,12.1-12.4,14.2-10.2,23.4c2.2,9.2-2.1,17.5-10.4,17.5c-8.4,0-14.5-0.4-16.2,9.5
				c-1.7,10-12.3,17.1-18.5,10.8c-1.5-1.6-3.2-3.3-4.8-4.9c-0.4-0.5-0.9-0.9-1.3-1.4c-0.1-0.1-0.2-0.2-0.3-0.3
				c-6.5-6.7-7.1-17.3-1.1-24.5c2.4-2.9,5.6-4.9,9.8-4.6c13.1,1,6-10.5,12.3-17.3c7.2-7.9,15.9-2.6,20.6-9
				C455.8,325.6,470.3,323.1,469.4,335.3z"/>
			<g>
				<g>
					<path class="st7" d="M455.7,343.4l-46.4,48.2c-0.4-0.5-0.9-0.9-1.3-1.4l46.4-48.2c0.4-0.4,1-0.4,1.3,0
						C456.1,342.4,456.1,343,455.7,343.4z"/>
				</g>
			</g>
		</g>
		<g>
			<path class="st4" d="M448,286.3c4.8,12.9-6,20.5,0.6,28.9c6.6,8.4,6.1,19-2.5,22.9c-8.6,4-15.1,6.4-12.1,17.5
				c3,11.1-4.6,23.4-13.9,19.9c-2.3-0.9-4.8-1.8-7.3-2.8c-0.7-0.3-1.3-0.5-2-0.8c-0.2-0.1-0.3-0.1-0.5-0.2
				c-9.9-3.8-15.5-14.4-12.8-24.7c1.1-4.1,3.4-7.8,7.9-9.4c14-5.2,1.2-13.6,4.4-23.6c3.7-11.5,15.2-10.2,17-19
				C429.4,282.9,443.2,273.4,448,286.3z"/>
			<g>
				<path class="st5" d="M437.7,301.1l-24.9,71.6c-0.7-0.3-1.3-0.5-2-0.8l24.9-71.6c0.2-0.6,0.8-0.9,1.4-0.7
					C437.6,300,437.9,300.6,437.7,301.1z"/>
			</g>
		</g>
		<path class="st5" d="M324.2,331.7l1.8,2.7l1.7-2.3l-14.7-22.9c0-2.6,0.4-6.2,1.8-10.6c2.7-8.3,4.1-17.7-1.2-15.9
			c-4.6,1.5-5.9,12.2-3.6,21.9l-5.7-8.9c-1.3-3-3.2-7.4-3.9-12.5c-1.8-12-5.7-23-10.7-18.7c-5.1,4.3,2,23.1,13.1,33.8l2.9,4.6
			c-8-8-21.2-13-25-8.9c-3.8,4.1,5.3,6.7,14,7.7c6.6,0.7,10.8,2.7,12.8,4l13.9,21.5c-12.7-12.6-33.6-20.5-39.6-14
			c-6,6.6,8.4,10.7,22.2,12.2C314.4,326.6,321,329.8,324.2,331.7z"/>
	</g>
	<g>
		<g>
			<g>
				<g>
					<g>
						<g>
							<path class="st4" d="M282.7,422.9c-0.1-4.1-0.1-8.4-0.2-12.7c0-2.8-0.1-5.6-0.2-8.4c-0.1-2.8-0.1-5.7-0.2-8.5
								c0-0.6,0-1.2,0-1.8c-0.6-26.7-1.8-51.2-3.6-53.9c-1.3-1.9-4.2-4.1-7.7-6.4c-0.4-0.3-0.9-0.5-1.3-0.8
								c-1.5-0.9-13.6-5-15.1-5.9l-12.8-0.9c-0.1,0-12.3,4.2-12.4,4.2c-0.5,0.3-1.1,0.6-1.6,0.9c-4.5,2.6-9,5.4-11.6,7.7
								c-0.4,0.3-0.7,0.7-1,1c-0.2,0.3-0.4,0.5-0.6,0.8c-0.2,0.2-0.3,0.6-0.4,1.1c-1.5,5.6-2.4,27.7-2.8,51.7c0,1.7-0.1,3.5-0.1,5.2
								c0,0.8,0,1.5,0,2.3c0,0.5,0,1.1,0,1.6c0,0.3,0,0.5,0,0.8c0,1.3,0,2.6,0,3.9c0,1,0,1.9,0,2.9c0,5.2-0.1,10.4-0.1,15.3H282.7z"
								/>
						</g>
					</g>
				</g>
			</g>
		</g>
		<g>
			<g>
				<path class="st8" d="M204.3,422.9c2-8.6,3.9-17.2,3.9-21.2l1.1-3.8l4.1-13.8l6.4-21.6c0,0-3.8-16.3-10.3-14.9
					c0,0-3.4,11.4-7.1,24.2c-0.6,2.2-1.2,4.4-1.9,6.6c-2.6,9.3-5,18.5-6.2,23.9c-1.1,5.4-1.9,13.1-2.4,20.5H204.3z"/>
				<path class="st9" d="M200.6,378.4l8.7,19.5l4.1-13.8l-10.9-12.3C201.9,374,201.2,376.2,200.6,378.4z"/>
			</g>
			<path class="st4" d="M200.2,372.6c3.8,6.6,7.7,13.1,11.6,19.6c1.3-4.3,2.6-8.4,3.8-12.2c0,0,0,0,0,0c0.5-1.5,1-3,1.4-4.4
				c0,0,0,0,0-0.1c0.2-0.5,0.3-1,0.5-1.4v0c1.9-5.6,3.3-10.1,3.7-12.6c1.1-7-1.9-20.7-6.2-23.4l0,0c-0.1,0.2-0.4-0.5-0.6,0
				c-0.7,1.7-4.1,6-5.7,10.1c-0.2,0.5-0.4,1.1-0.6,1.6C205.8,356,202.9,363.9,200.2,372.6z"/>
		</g>
		<g>
			<g>
				<path class="st8" d="M288.9,422.9c-2-8.6-3.9-17.2-3.9-21.2l-1.1-3.8l-4.1-13.8l-6.4-21.6c0,0,3.8-16.3,10.3-14.9
					c0,0,3.4,11.4,7.1,24.2c0.6,2.2,1.2,4.4,1.9,6.6c2.6,9.3,5,18.5,6.2,23.9c1.1,5.4,1.9,13.1,2.4,20.5H288.9z"/>
				<path class="st9" d="M292.6,378.4l-8.7,19.5l-4.1-13.8l10.9-12.3C291.3,374,292,376.2,292.6,378.4z"/>
			</g>
			<path class="st4" d="M293,372.6c-3.8,6.6-7.7,13.1-11.6,19.6c-1.3-4.3-2.6-8.4-3.8-12.2c0,0,0,0,0,0c-0.5-1.5-1-3-1.4-4.4
				c0,0,0,0,0-0.1c-0.2-0.5-0.3-1-0.5-1.4v0c-1.9-5.6-3.3-10.1-3.7-12.6c-1.1-7,1.9-20.7,6.2-23.4l0,0c0.1,0.2,0.4-0.5,0.6,0
				c0.7,1.7,4.1,6,5.7,10.1c0.2,0.5,0.4,1.1,0.6,1.6C287.4,356,290.3,363.9,293,372.6z"/>
		</g>
		<g>
			<g>
				<g>
					<g>
						<path class="st5" d="M247.4,336.3c5.5,0,9.4-5,9.6-5.3c0.2-0.3,0.2-0.8-0.1-1c-0.3-0.2-0.7-0.2-0.9,0.1
							c-0.1,0.1-3.7,4.7-8.6,4.7c-4.8,0-7.8-5.3-7.8-5.3c-0.2-0.3-0.6-0.5-0.9-0.3c-0.3,0.2-0.4,0.6-0.2,1
							C238.6,330.5,241.8,336.3,247.4,336.3z"/>
					</g>
				</g>
			</g>
			<g>
				<path class="st5" d="M270.8,384.6c0.1,0,0.2,0,0.3-0.1c0.3-0.2,0.5-0.6,0.3-1l-2.4-5.1c-0.2-0.4-0.6-0.5-0.9-0.3
					c-0.3,0.2-0.5,0.6-0.3,1l2.4,5.1C270.3,384.5,270.5,384.6,270.8,384.6z"/>
			</g>
			<g>
				<path class="st5" d="M275.8,380.5c0.1,0.1,0.2,0.1,0.3,0.1c0.4,0,0.7-0.3,0.7-0.7l0.5-5.7c0-0.4-0.2-0.7-0.6-0.8
					c-0.4,0-0.7,0.3-0.7,0.7l-0.5,5.7C275.5,380.1,275.6,380.3,275.8,380.5z"/>
			</g>
			<g>
				<path class="st5" d="M262.9,371.6c0.3,0,0.6-0.2,0.7-0.6l0.9-5.6c0.1-0.4-0.2-0.8-0.6-0.8c-0.4-0.1-0.7,0.2-0.8,0.6l-0.9,5.6
					c-0.1,0.4,0.2,0.8,0.6,0.8C262.8,371.6,262.8,371.6,262.9,371.6z"/>
			</g>
			<g>
				<path class="st5" d="M241.2,373.7c0.1,0,0.2,0,0.3-0.1c0.3-0.2,0.4-0.6,0.2-1l-2.7-4.9c-0.2-0.3-0.6-0.5-0.9-0.3
					c-0.3,0.2-0.4,0.6-0.2,1l2.7,4.9C240.7,373.6,241,373.7,241.2,373.7z"/>
			</g>
			<g>
				<path class="st5" d="M267.8,351.7c0.1,0,0.3,0,0.4-0.1l4.5-3.1c0.3-0.2,0.4-0.7,0.2-1c-0.2-0.3-0.6-0.4-0.9-0.2l-4.5,3.1
					c-0.3,0.2-0.4,0.7-0.2,1C267.4,351.6,267.6,351.7,267.8,351.7z"/>
			</g>
			<g>
				<path class="st5" d="M247.8,397.5c0.1,0,0.2,0,0.3-0.1c0.3-0.2,0.5-0.6,0.3-1l-2.4-5.1c-0.2-0.4-0.6-0.5-0.9-0.3
					c-0.3,0.2-0.5,0.6-0.3,1l2.4,5.1C247.3,397.4,247.6,397.5,247.8,397.5z"/>
			</g>
			<g>
				<path class="st5" d="M258.4,355.5c0.2,0,0.4-0.1,0.6-0.3c0.2-0.3,0.1-0.8-0.2-1l-4.5-3c-0.3-0.2-0.7-0.1-0.9,0.2
					c-0.2,0.3-0.1,0.8,0.2,1l4.5,3C258.2,355.5,258.3,355.5,258.4,355.5z"/>
			</g>
			<g>
				<path class="st5" d="M269.2,334.3c0,0.1,0,0.3,0.1,0.4c0.1,0.2,0.3,0.4,0.5,0.4c0.4,0,0.7-0.3,0.7-0.7l0.2-3.3
					c-0.4-0.3-0.9-0.5-1.3-0.8L269.2,334.3z"/>
			</g>
			<g>
				<path class="st5" d="M275.2,365.6c0.2,0,0.4-0.1,0.6-0.3c0.2-0.3,0.1-0.8-0.2-1l-4.5-3c-0.3-0.2-0.7-0.1-0.9,0.2
					c-0.2,0.3-0.1,0.8,0.2,1l4.5,3C275,365.6,275.1,365.6,275.2,365.6z"/>
			</g>
			<g>
				<path class="st5" d="M239.1,340.7c0.1,0,0.3,0,0.4-0.1c0.3-0.2,0.4-0.7,0.2-1l-2.6-4.2c-0.2-0.3-0.6-0.4-0.9-0.2
					c-0.3,0.2-0.4,0.7-0.2,1l2.6,4.2C238.7,340.6,238.9,340.7,239.1,340.7z"/>
			</g>
			<g>
				<path class="st5" d="M236.8,413.1c0.2,0,0.4-0.1,0.5-0.2l3.7-4.1c0.3-0.3,0.2-0.7,0-1c-0.3-0.3-0.7-0.3-1,0l-3.7,4.1
					c-0.3,0.3-0.2,0.7,0,1C236.5,413.1,236.6,413.1,236.8,413.1z"/>
			</g>
			<g>
				<path class="st5" d="M250.4,412.3c0.2,0,0.4-0.1,0.5-0.2l3.7-4.1c0.3-0.3,0.2-0.7,0-1c-0.3-0.3-0.7-0.3-1,0l-3.7,4.1
					c-0.3,0.3-0.2,0.7,0,1C250.1,412.2,250.2,412.3,250.4,412.3z"/>
			</g>
			<g>
				<path class="st5" d="M265,408.8c0.1,0,0.2,0,0.3-0.1c0.3-0.2,0.4-0.6,0.2-1l-2.7-4.9c-0.2-0.3-0.6-0.5-0.9-0.3
					c-0.3,0.2-0.4,0.6-0.2,1l2.7,4.9C264.6,408.6,264.8,408.8,265,408.8z"/>
			</g>
			<g>
				<path class="st5" d="M257.2,396.4c0.2,0,0.5-0.1,0.6-0.4l2.4-5.1c0.2-0.4,0-0.8-0.3-1c-0.3-0.2-0.7,0-0.9,0.3l-2.4,5.1
					c-0.2,0.4,0,0.8,0.3,1C257,396.4,257.1,396.4,257.2,396.4z"/>
			</g>
			<g>
				<path class="st5" d="M278.5,395.7c0.1,0.1,0.2,0.2,0.3,0.2c0.2,0.1,0.5,0.1,0.7-0.1l2.8-2.5c0-0.6,0-1.2,0-1.8l-3.6,3.2
					C278.2,394.9,278.2,395.4,278.5,395.7z"/>
			</g>
			<g>
				<path class="st5" d="M257.2,342.5c0.2,0,0.5-0.1,0.6-0.4l2.4-5.1c0.2-0.4,0-0.8-0.3-1c-0.3-0.2-0.7,0-0.9,0.3l-2.4,5.1
					c-0.2,0.4,0,0.8,0.3,1C257,342.5,257.1,342.5,257.2,342.5z"/>
			</g>
			<g>
				<path class="st5" d="M241.5,361.1c0,0,0.1,0,0.1,0c0.4-0.1,0.6-0.5,0.5-0.8l-1-5.6c-0.1-0.4-0.4-0.6-0.8-0.6
					c-0.4,0.1-0.6,0.5-0.5,0.8l1,5.6C240.9,360.9,241.2,361.1,241.5,361.1z"/>
			</g>
			<g>
				<path class="st5" d="M250.2,366.1c0,0,0.1,0,0.1,0c0.4-0.1,0.6-0.5,0.5-0.8l-1-5.6c-0.1-0.4-0.4-0.6-0.8-0.6
					c-0.4,0.1-0.6,0.5-0.5,0.8l1,5.6C249.6,365.8,249.9,366.1,250.2,366.1z"/>
			</g>
			<g>
				<path class="st5" d="M244,347.6c0.2,0,0.4-0.1,0.6-0.3l2.9-4.8c0.2-0.3,0.1-0.8-0.2-1c-0.3-0.2-0.7-0.1-0.9,0.2l-2.9,4.8
					c-0.2,0.3-0.1,0.8,0.2,1C243.7,347.5,243.9,347.6,244,347.6z"/>
			</g>
			<g>
				<path class="st5" d="M270.2,397.3c0.2-0.2,0.2-0.5,0.1-0.8l-2.3-5.2c-0.2-0.4-0.6-0.5-0.9-0.3c-0.3,0.2-0.5,0.6-0.3,1l2.3,5.2
					c0.2,0.4,0.6,0.5,0.9,0.3C270.1,397.4,270.2,397.4,270.2,397.3z"/>
			</g>
			<g>
				<path class="st5" d="M252.9,382.3c0.3,0,0.5-0.2,0.6-0.5l1.9-5.3c0.1-0.4,0-0.8-0.4-0.9c-0.3-0.1-0.7,0-0.9,0.4l-1.9,5.3
					c-0.1,0.4,0,0.8,0.4,0.9C252.8,382.3,252.8,382.3,252.9,382.3z"/>
			</g>
			<g>
				<path class="st5" d="M231.5,415.2c0.1,0,0.2,0,0.3-0.1c0.3-0.2,0.5-0.6,0.3-1l-2.4-5.1c-0.2-0.4-0.6-0.5-0.9-0.3
					c-0.3,0.2-0.5,0.6-0.3,1l2.4,5.1C231.1,415.1,231.3,415.2,231.5,415.2z"/>
			</g>
			<g>
				<path class="st5" d="M222.8,402.2c0.3,0,0.6-0.2,0.7-0.6l0.9-5.6c0.1-0.4-0.2-0.8-0.6-0.8c-0.4-0.1-0.7,0.2-0.8,0.6l-0.9,5.6
					c-0.1,0.4,0.2,0.8,0.6,0.8C222.7,402.2,222.7,402.2,222.8,402.2z"/>
			</g>
			<g>
				<path class="st5" d="M222.2,360.6c0.1,0,0.2,0,0.3-0.1c0.3-0.2,0.4-0.6,0.2-1l-2.7-4.9c-0.2-0.3-0.6-0.5-0.9-0.3
					c-0.3,0.2-0.4,0.6-0.2,1l2.7,4.9C221.8,360.5,222,360.6,222.2,360.6z"/>
			</g>
			<g>
				<path class="st5" d="M231,380.6c0.1,0,0.3,0,0.4-0.1l4.5-3.1c0.3-0.2,0.4-0.7,0.2-1c-0.2-0.3-0.6-0.4-0.9-0.2l-4.5,3.1
					c-0.3,0.2-0.4,0.7-0.2,1C230.5,380.5,230.8,380.6,231,380.6z"/>
			</g>
			<g>
				<path class="st5" d="M278.5,414.1c0.1,0,0.2,0,0.3-0.1c0.3-0.2,0.5-0.6,0.3-1l-2.4-5.1c-0.2-0.4-0.6-0.5-0.9-0.3
					c-0.3,0.2-0.5,0.6-0.3,1l2.4,5.1C278,414,278.2,414.1,278.5,414.1z"/>
			</g>
			<g>
				<path class="st5" d="M223.3,388.3c0.2,0,0.4-0.1,0.6-0.3c0.2-0.3,0.1-0.8-0.2-1l-4.5-3c-0.3-0.2-0.7-0.1-0.9,0.2
					c-0.2,0.3-0.1,0.8,0.2,1l4.5,3C223.1,388.3,223.2,388.3,223.3,388.3z"/>
			</g>
			<g>
				<path class="st5" d="M234.2,395.6c0.2,0.2,0.4,0.2,0.6,0.2c0.4-0.1,0.6-0.5,0.5-0.9l-1.4-5.5c-0.1-0.4-0.5-0.6-0.8-0.5
					c-0.4,0.1-0.6,0.5-0.5,0.9l1.4,5.5C234,395.3,234.1,395.5,234.2,395.6z"/>
			</g>
			<g>
				<path class="st5" d="M215.1,337.4l1.2,1.9c0.1,0.2,0.3,0.3,0.6,0.3c0.1,0,0.3,0,0.4-0.1c0.3-0.2,0.4-0.7,0.2-1l-1.3-2.1
					C215.7,336.7,215.4,337,215.1,337.4z"/>
			</g>
			<g>
				<path class="st5" d="M210,349.9l1.2,2c0.1,0.2,0.3,0.3,0.6,0.3c0.1,0,0.3,0,0.4-0.1c0.3-0.2,0.4-0.7,0.2-1l-1.8-2.9
					C210.4,348.8,210.2,349.3,210,349.9z"/>
			</g>
			<g>
				<path class="st5" d="M260.5,422.9l3.6-4c0.3-0.3,0.2-0.7,0-1c-0.3-0.3-0.7-0.3-1,0l-3.7,4.1c-0.2,0.2-0.2,0.6-0.1,0.8H260.5z"/>
			</g>
			<g>
				<path class="st5" d="M243.3,422.9h2.1l-2.2-2c-0.3-0.3-0.7-0.2-0.9,0.1c-0.1,0.1-0.2,0.3-0.2,0.5c0,0.2,0.1,0.4,0.2,0.5
					L243.3,422.9z"/>
			</g>
			<g>
				<path class="st5" d="M220.3,422.9l0.7-1.4c0.2-0.4,0-0.8-0.3-1c-0.3-0.2-0.7,0-0.9,0.3l-1,2H220.3z"/>
			</g>
			<g>
				<path class="st5" d="M225.2,369.3c0.2,0,0.5-0.1,0.6-0.4l2.4-5.1c0.2-0.4,0-0.8-0.3-1c-0.3-0.2-0.7,0-0.9,0.3l-2.4,5.1
					c-0.2,0.4,0,0.8,0.3,1C225,369.3,225.1,369.3,225.2,369.3z"/>
			</g>
			<g>
				<path class="st5" d="M222.5,348c0,0,0.1,0,0.1,0c0.4-0.1,0.6-0.5,0.5-0.8l-1-5.6c-0.1-0.4-0.4-0.6-0.8-0.6
					c-0.4,0.1-0.6,0.5-0.5,0.8l1,5.6C221.9,347.8,222.2,348,222.5,348z"/>
			</g>
			<g>
				<path class="st5" d="M210.2,367.4c0,0,0.1,0,0.1,0c0.4-0.1,0.6-0.5,0.5-0.8l-1-5.6c-0.1-0.4-0.4-0.6-0.8-0.6
					c-0.4,0.1-0.6,0.5-0.5,0.8l1,5.6C209.6,367.1,209.9,367.4,210.2,367.4z"/>
			</g>
			<g>
				<path class="st5" d="M231.3,352.9c0,0,0.1,0,0.1,0c0.4-0.1,0.6-0.5,0.5-0.8l-1-5.6c-0.1-0.4-0.4-0.6-0.8-0.6
					c-0.4,0.1-0.6,0.5-0.5,0.8l1,5.6C230.7,352.7,231,352.9,231.3,352.9z"/>
			</g>
			<g>
				<path class="st5" d="M227.3,333.4c0.1,0,0.3,0,0.4,0c0.2-0.1,0.4-0.3,0.4-0.5l1.1-5.2c-0.5,0.3-1.1,0.6-1.6,0.9l-0.9,3.9
					C226.7,332.9,226.9,333.3,227.3,333.4z"/>
			</g>
			<g>
				<path class="st5" d="M211.9,376.1c0.2,0,0.4-0.1,0.6-0.3l2.9-4.8c0.2-0.3,0.1-0.8-0.2-1c-0.3-0.2-0.7-0.1-0.9,0.2l-2.9,4.8
					c-0.2,0.3-0.1,0.8,0.2,1C211.6,376,211.7,376.1,211.9,376.1z"/>
			</g>
			<g>
				<path class="st5" d="M227.7,422.9h1.5l-0.4-1c-0.2-0.4-0.6-0.5-0.9-0.3c-0.3,0.2-0.5,0.6-0.3,1L227.7,422.9z"/>
			</g>
			<g>
				<path class="st5" d="M213.7,412.9c0.3,0,0.5-0.2,0.6-0.5l1.9-5.3c0.1-0.4,0-0.8-0.4-0.9c-0.3-0.1-0.7,0-0.9,0.4l-1.9,5.3
					c-0.1,0.4,0,0.8,0.4,0.9C213.5,412.9,213.6,412.9,213.7,412.9z"/>
			</g>
		</g>
		<g>
			<g>
				<g>
					<g>
						<path class="st5" d="M211.2,396.1c1.3-5.2,2.9-11,4.4-16c0,0,0,0,0,0c0.5-1.5,1-3,1.4-4.4c0,0,0,0,0-0.1
							c0.1-0.4,0.3-0.8,0.4-1.2c0-0.1,0-0.1,0-0.2v0c0-0.2-0.1-0.5-0.4-0.6c-0.3-0.1-0.7,0-0.8,0.4c-1.6,4.4-3.5,10.7-5.2,16.9
							C211.2,392.7,211.2,394.4,211.2,396.1z"/>
					</g>
				</g>
			</g>
		</g>
		<g>
			<path class="st10" d="M229.8,294c0,0-4.9-5.4-3-11.6c1.8-6.2,6.9-6.2,6.9-6.2s2.9-6.6,7.9-6.9c5-0.2,9.7-9.1,14.2-6.7
				c4.5,2.4-0.5,7.7-0.5,7.7s7.8-8.2,10.3-5.8c2.6,2.4-3.6,8.9-3.6,8.9s6.5-4.6,8.7-2.8c2.1,1.8-5.1,9.3-5.1,9.3s4.7,8.5,0,12.3
				L229.8,294z"/>
			<g>
				<path class="st9" d="M263.8,295.8c0,0,3.1-4.1,5.4-0.7c2.3,3.4-1,13.6-6.6,11.1L263.8,295.8z"/>
				<g>
					<path class="st11" d="M263.9,303c0.2,0,0.4-0.1,0.5-0.3c0.9-3.1,4.1-4.4,4.2-4.4c0.2-0.1,0.4-0.4,0.3-0.6
						c-0.1-0.2-0.4-0.4-0.6-0.3c-0.2,0.1-3.7,1.4-4.7,5c-0.1,0.3,0.1,0.5,0.3,0.6C263.8,303,263.8,303,263.9,303z"/>
				</g>
				<g>
					<path class="st11" d="M267.1,301.4c0.1,0,0.2,0,0.3-0.1c0.2-0.1,0.3-0.4,0.1-0.7c0,0-0.6-0.9-1.8-1.4c-0.2-0.1-0.5,0-0.6,0.2
						c-0.1,0.2,0,0.5,0.2,0.6c0.9,0.4,1.4,1.1,1.4,1.1C266.8,301.3,267,301.4,267.1,301.4z"/>
				</g>
			</g>
			<g>
				<path class="st9" d="M231.8,295.8c0,0-3.1-4.1-5.4-0.7c-2.3,3.4,1,13.6,6.6,11.1L231.8,295.8z"/>
				<g>
					<path class="st11" d="M231.7,303c-0.2,0-0.4-0.1-0.5-0.3c-0.9-3.1-4.1-4.4-4.2-4.4c-0.2-0.1-0.4-0.4-0.3-0.6
						c0.1-0.2,0.4-0.4,0.6-0.3c0.2,0.1,3.7,1.4,4.7,5c0.1,0.3-0.1,0.5-0.3,0.6C231.8,303,231.8,303,231.7,303z"/>
				</g>
				<g>
					<g>
						<path class="st11" d="M228.4,301.4c-0.1,0-0.2,0-0.3-0.1c-0.2-0.1-0.3-0.4-0.1-0.7c0,0,0.6-0.9,1.8-1.4c0.2-0.1,0.5,0,0.6,0.2
							c0.1,0.2,0,0.5-0.2,0.6c-0.9,0.4-1.4,1.1-1.4,1.1C228.8,301.3,228.6,301.4,228.4,301.4z"/>
					</g>
				</g>
			</g>
			<path class="st8" d="M240.1,314.7v10.1c0,0,3,5.1,7.1,5.5c4.1,0.4,7.7-4.4,7.7-4.4v-10.4L240.1,314.7z"/>
			<path class="st9" d="M240.1,314.7v4.5c2.7,3,7.6,3.8,14.7,2.7v-6.5L240.1,314.7z"/>
			<path class="st8" d="M229.5,288.8c0.2,3.9,0.6,8.8,1.3,12.7v0c0,0,0,0,0,0c0,0,0,0,0,0c0.2,1,0.4,1.9,0.6,2.7
				c0.1,0.5,0.3,1,0.4,1.5c2.4,7.5,7.9,18.3,21.8,13.4c5.9-2.1,8.9-8.1,10.5-14.7c0.1-0.4,0.2-0.8,0.3-1.2c0.1-0.2,0.1-0.5,0.1-0.7
				l0.1-0.3c0-0.1,0-0.1,0-0.1c0,0,0,0,0,0c0.9-5,1.1-10.1,1-13.8c-0.1-3.7-2.1-7.1-5.3-8.9c-8.8-5-18-3.1-24.1-0.8
				C232,280.2,229.3,284.3,229.5,288.8z"/>
			<path class="st10" d="M230.8,301.6C230.8,301.6,230.8,301.6,230.8,301.6C230.8,301.6,230.8,301.6,230.8,301.6
				C230.8,301.6,230.8,301.6,230.8,301.6c0.1,0.4,0.6,2.2,1.1,4.2c2.4,7.5,7.9,18.3,21.8,13.4c5.9-2.1,8.9-8.1,10.5-14.7
				c0.1-0.4,0.2-0.8,0.3-1.2c0.1-0.2,0.1-0.5,0.1-0.7l0.1-0.3c0-0.1,0-0.1,0-0.1c0,0,0,0,0,0l-2-0.4c-0.4,1.9-1.3,3.8-2.3,5.4
				c-1.7-4.1-10.5-1.4-10.5-1.4l0,0c-0.5,0.2-1.1,0.3-1.6,0.3c-0.6,0-1.1-0.1-1.7-0.3c0,0-8.7-2.9-10.5,1.1c-1.8-2.8-3-5.3-3-5.3
				L230.8,301.6L230.8,301.6z M248.1,307.5c9.9-1.3,8.4,4,8.4,4c-1.1,1-2.1,1.7-2.8,2.1c-2.2,1.2-4.3,1.7-5.8,1.6
				c-1.5-0.1-1.9,0.2-5.8-1.8c-0.7-0.4-1.4-0.9-2-1.5c0,0,0,0,0,0v0C239.8,310.8,238.1,305.8,248.1,307.5z"/>
			<ellipse class="st10" cx="240.3" cy="296.1" rx="1.2" ry="1.9"/>
			<ellipse class="st10" cx="255.8" cy="296.1" rx="1.2" ry="1.9"/>
			<path class="st10" d="M235.9,289.6c0,0,5.1-2,9.1-0.3l-0.4,2.2c0,0-5.8-0.5-8.7,0.7C235.6,291.3,235.6,290.4,235.9,289.6z"/>
			<path class="st10" d="M260.3,289.6c0,0-5.2-2-9.1-0.3l0.4,2.2c0,0,5.8-0.5,8.8,0.7C260.5,291.3,260.6,290.5,260.3,289.6z"/>
			<g>
				<g>
					<path class="st9" d="M247.6,304.8c-0.8,0-1.6-0.3-1.7-0.4c-0.2-0.1-0.4-0.4-0.3-0.6c0.1-0.2,0.4-0.4,0.6-0.3
						c0.4,0.2,1.5,0.5,1.9,0.2c0.1-0.1,0.2-0.2,0.2-0.4c0.2-1.7-0.3-7.3-0.3-7.3c0-0.3,0.2-0.5,0.4-0.5c0.3,0,0.5,0.2,0.5,0.4
						c0,0.2,0.5,5.7,0.3,7.5c-0.1,0.7-0.4,1-0.7,1.2C248.4,304.8,248,304.8,247.6,304.8z"/>
				</g>
			</g>
			<path class="st12" d="M253.7,308.5c-0.4,1.8-1.6,5.2-5.6,5.2c-4.1,0-5.2-3.1-5.6-5.2H253.7z"/>
			<path class="st10" d="M229.5,288.8c0.2,3.9,0.6,8.8,1.3,12.7l2.1-0.2c0,0-0.5-3.3-0.8-5.5c-0.2-2.2-0.6-6.2,1.2-6.7
				c1.8-0.5,0.8-5.1,3.3-7.1c2.6-2,8.3-2.5,12-0.2c3.8,2.3,8-0.2,9.7,0.2c1.7,0.4,4.1,2.8,3.5,5c-0.6,2.2,1.3,3.6,1.7,5.9
				c0.5,2.3-1,8.5-1,8.5l2,0.4c0.9-5,1.1-10.1,1-13.8c-0.1-3.7-2.1-7.1-5.3-8.9c-8.8-5-18-3.1-24.1-0.8
				C232,280.2,229.3,284.3,229.5,288.8z"/>
		</g>
	</g>
	<g>
		<g>
			<path class="st5" d="M436.3,429.8v0.7c0,3.8-3.1,6.9-6.9,6.9H69.8c-3.8,0-6.9-3.1-6.9-6.9v-0.7c0-3.8,3.1-6.9,6.9-6.9h359.6
				C433.2,422.9,436.3,426,436.3,429.8z"/>
			<path class="st4" d="M436.3,429.8v0.3H62.9v-0.3c0-3.8,3.1-6.9,6.9-6.9h359.6C433.2,422.9,436.3,426,436.3,429.8z"/>
		</g>
		<g>
			<path class="st13" d="M309.5,339.2v55.3c0,3.7-3,6.8-6.8,6.8H193.5c-3.7,0-6.8-3-6.8-6.8v-55.3c0-3.7,3-6.8,6.8-6.8h109.2
				C306.5,332.4,309.5,335.4,309.5,339.2z"/>
			<path class="st10" d="M309.5,342.9v51.6c0,3.7-3,6.8-6.8,6.8H193.5c-3.7,0-6.8-3-6.8-6.8v-51.6c0-3.7,3-6.8,6.8-6.8h109.2
				C306.5,336.1,309.5,339.1,309.5,342.9z"/>
			<rect x="238.6" y="401.2" class="st14" width="19" height="21.7"/>
			<circle class="st13" cx="247.9" cy="367.7" r="9.4"/>
			<path class="st10" d="M272.3,422.9h-49v-1c0-3.7,3-6.6,6.6-6.6h35.7c3.7,0,6.6,3,6.6,6.6V422.9z"/>
		</g>
	</g>
	<g>
		<g>
			<path class="st13" d="M71.9,243.7v-94.3c0-2.9,2.3-5.2,5.2-5.2h131.6c2.9,0,5.2,2.3,5.2,5.2v94.3c0,2.9-2.3,5.2-5.2,5.2H77.2
				C74.3,248.9,71.9,246.6,71.9,243.7z"/>
			<path class="st12" d="M207.4,154.9v83.3c0,2.3-1.9,4.2-4.2,4.2H82.7c-2.3,0-4.2-1.9-4.2-4.2v-83.3c0-2.1,1.6-3.9,3.6-4.1
				c0.2,0,0.4,0,0.5,0h120.6c0.2,0,0.4,0,0.5,0C205.9,151,207.4,152.8,207.4,154.9z"/>
			<g>
				<g>
					<path class="st2" d="M115.4,177.5H86.6c-1.3,0-2.4-1.1-2.4-2.4l0,0c0-1.3,1.1-2.4,2.4-2.4h28.7c1.3,0,2.4,1.1,2.4,2.4l0,0
						C117.7,176.4,116.7,177.5,115.4,177.5z"/>
					<path class="st2" d="M115.4,187.4H86.6c-1.3,0-2.4-1.1-2.4-2.4l0,0c0-1.3,1.1-2.4,2.4-2.4h28.7c1.3,0,2.4,1.1,2.4,2.4l0,0
						C117.7,186.3,116.7,187.4,115.4,187.4z"/>
					<path class="st2" d="M115.4,197.2H86.6c-1.3,0-2.4-1.1-2.4-2.4l0,0c0-1.3,1.1-2.4,2.4-2.4h28.7c1.3,0,2.4,1.1,2.4,2.4l0,0
						C117.7,196.1,116.7,197.2,115.4,197.2z"/>
					<path class="st2" d="M115.4,207H86.6c-1.3,0-2.4-1.1-2.4-2.4l0,0c0-1.3,1.1-2.4,2.4-2.4h28.7c1.3,0,2.4,1.1,2.4,2.4l0,0
						C117.7,206,116.7,207,115.4,207z"/>
				</g>
				<g>
					<path class="st2" d="M199.7,201.9H171c-1.3,0-2.4-1.1-2.4-2.4l0,0c0-1.3,1.1-2.4,2.4-2.4h28.7c1.3,0,2.4,1.1,2.4,2.4l0,0
						C202.1,200.8,201,201.9,199.7,201.9z"/>
					<path class="st2" d="M199.7,211.7H171c-1.3,0-2.4-1.1-2.4-2.4l0,0c0-1.3,1.1-2.4,2.4-2.4h28.7c1.3,0,2.4,1.1,2.4,2.4l0,0
						C202.1,210.7,201,211.7,199.7,211.7z"/>
					<path class="st2" d="M199.7,221.6H171c-1.3,0-2.4-1.1-2.4-2.4l0,0c0-1.3,1.1-2.4,2.4-2.4h28.7c1.3,0,2.4,1.1,2.4,2.4l0,0
						C202.1,220.5,201,221.6,199.7,221.6z"/>
					<path class="st2" d="M199.7,231.4H171c-1.3,0-2.4-1.1-2.4-2.4v0c0-1.3,1.1-2.4,2.4-2.4h28.7c1.3,0,2.4,1.1,2.4,2.4v0
						C202.1,230.3,201,231.4,199.7,231.4z"/>
				</g>
			</g>
			<g>
				<path class="st2" d="M207.4,154.9v9.9h-129v-10c0-0.4,0.1-0.8,0.2-1.2c0.4-1.3,1.4-2.4,2.6-2.8h122.5
					C205.9,151,207.4,152.8,207.4,154.9z"/>
				<path class="st12" d="M182.2,156.4H107c-0.9,0-1.7,0.6-1.9,1.6c-0.2,1.1,0.7,2.1,1.8,2.1h75.3c1,0,1.8-0.8,1.8-1.8l0,0
					C184.1,157.2,183.3,156.4,182.2,156.4z"/>
				<path class="st15" d="M89.9,158.2v1.4c0,0.4-0.4,0.6-0.8,0.4l-1.2-0.7l-1.2-0.7c-0.3-0.2-0.3-0.7,0-0.9l1.2-0.7l1.2-0.7
					c0.3-0.2,0.8,0,0.8,0.4V158.2z"/>
				<path class="st15" d="M96,158.2v1.4c0,0.4,0.4,0.6,0.8,0.4l1.2-0.7l1.2-0.7c0.3-0.2,0.3-0.7,0-0.9l-1.2-0.7l-1.2-0.7
					c-0.3-0.2-0.8,0-0.8,0.4V158.2z"/>
			</g>
		</g>
		<g>
			<g>
				<g>
					<g>
						<path class="st4" d="M101.2,242.4c4.2-18.7,11.9-37.4,13-43.9c1.1-6.8-0.4-21.2-4.5-23.8c-2.9,1.5-4.9,5.5-6.2,8.5
							c-3.3,8.3-9.9,23.9-14.1,42c-1.3,5.8-2.5,11-3.5,17.2H101.2z"/>
					</g>
				</g>
			</g>
			<g>
				<g>
					<g>
						<g>
							<path class="st4" d="M174.3,242.4c0-1.7-0.1-3.4-0.1-5c-0.6-29.3-1.7-59.1-3.7-62.1c-1.9-2.8-7.7-6.4-13.2-9.7
								c-0.7-0.4-1.4-0.8-2.1-1.2c-0.2-0.1-0.3-0.2-0.5-0.3c-0.6-0.4-1.2-0.7-1.8-1c-2.7-1.5-5-2.9-6.4-4v0.8c0,0-3,4.3-6.4,4
								c-3.1-0.3-4.8-4.1-5.2-4.8c-1.2,0.9-3.4,2.2-5.9,3.6c-0.6,0.3-1.2,0.7-1.9,1c-0.2,0.1-0.4,0.2-0.6,0.3
								c-0.2,0.1-0.3,0.2-0.5,0.3c-6.9,3.8-15.2,8.3-17.4,11.6c-1.8,2.6-2.6,25.2-3.1,50.2c0,2.1-0.1,4.1-0.1,6.2c0,1.2,0,2.3,0,3.5
								c0,2.3-0.1,4.5-0.1,6.8H174.3z"/>
						</g>
					</g>
				</g>
				<path class="st4" d="M118.5,177.5c0,0-11.8-13.8-3.6-23.5c8.2-9.8,27.8-8.9,34.2-7.9c6.4,1,25.3,12.2,11.8,28.1
					C147.5,190.1,118.5,177.5,118.5,177.5z"/>
				<g>
					<g>
						<path class="st5" d="M120.9,230.3c5.5,4.3,12.9,8.1,22.7,9.4c0.4,0.1,0.7-0.2,0.7-0.6c0,0,0,0,0,0c0-0.3-0.2-0.6-0.5-0.6
							c-9.5-1.3-16.7-5-22.1-9.2c-0.4-0.3-1,0-1,0.5c0,0,0,0,0,0C120.7,230,120.8,230.2,120.9,230.3z"/>
					</g>
					<g>
						<path class="st5" d="M123.5,222.4L123.5,222.4c0,0.1,0,0.2,0.1,0.3c0.3,0.6,0.7,1.1,1.1,1.7c2.3,3.3,6.6,7.6,14.2,9.6
							c0,0,0.1,0,0.1,0c0.2,0,0.5-0.2,0.5-0.4c0.1-0.3-0.1-0.6-0.4-0.7c-8.2-2.2-12.5-7.2-14.6-10.9
							C124.3,221.6,123.5,221.8,123.5,222.4z"/>
					</g>
					<g>
						<path class="st5" d="M148.1,174.2c-2.5,2.5-6.8,6-12.6,8.5c-0.2,0.1-0.3,0.3-0.3,0.5l0,0c0,0.4,0.4,0.7,0.8,0.5
							c3.2-1.4,5.9-3,8-4.6c2.1-1.5,3.7-3,5-4.2c0.1-0.1,0.2-0.3,0.2-0.4v0C149.1,174.1,148.5,173.9,148.1,174.2z"/>
					</g>
				</g>
				<g>
					<path class="st12" d="M131.7,227c-0.3,0-0.5-0.2-0.5-0.5c-0.5-24,0-48.3,0-48.5c0-0.3,0.2-0.5,0.5-0.5c0,0,0,0,0,0
						c0.3,0,0.5,0.2,0.5,0.5c0,0.2-0.5,24.5,0,48.5C132.2,226.8,132,227,131.7,227C131.7,227,131.7,227,131.7,227z"/>
				</g>
				<g>
					<path class="st12" d="M150.5,227C150.5,227,150.5,227,150.5,227c-0.3,0-0.5-0.2-0.5-0.5c0.5-24,0-48.3,0-48.5
						c0-0.3,0.2-0.5,0.5-0.5c0,0,0,0,0,0c0.3,0,0.5,0.2,0.5,0.5c0,0.2,0.5,24.5,0,48.5C151,226.8,150.8,227,150.5,227z"/>
				</g>
			</g>
			<g>
				<path class="st10" d="M158.2,129.4c0,10.5-6.5,17.8-17,17.8c-10.5,0-17.9-7.8-17.9-18.3c0-10.5,6.2-18.5,16.8-18.5
					C152.8,110.3,158.2,118.8,158.2,129.4z"/>
				<path class="st10" d="M124.8,136.3c0,0-3.9-1.1-5.2-5.6c-1.3-4.6,1.8-2.3,2.3-6.2c0.5-4-3.9-7,0-8.9c3.9-1.9,1.6-6.1,5-8.2
					c3.5-2.2,8.6,1.8,11.9-1.5s10.1-2.5,12,0c1.9,2.5,2.7,1.9,6.3,2.6c3.6,0.7,5.2,6.5,3.5,9.2c-1.7,2.7-0.5,4.5,1.1,6.2
					c1.7,1.7,0.5,13.1-5.2,11.5C150.7,133.5,124.8,136.3,124.8,136.3z"/>
				<g>
					<path class="st9" d="M155.9,133.9c0,0,2.9-3.9,5.1-0.7c2.2,3.2-0.9,12.7-6.2,10.4L155.9,133.9z"/>
					<g>
						<path class="st11" d="M155.9,140.7c0.2,0,0.4-0.1,0.4-0.3c0.8-2.9,3.9-4.1,3.9-4.1c0.2-0.1,0.3-0.3,0.3-0.6
							c-0.1-0.2-0.3-0.3-0.6-0.3c-0.1,0.1-3.5,1.4-4.4,4.7c-0.1,0.2,0.1,0.5,0.3,0.6C155.8,140.7,155.9,140.7,155.9,140.7z"/>
					</g>
					<g>
						<g>
							<path class="st11" d="M159,139.2c0.1,0,0.2,0,0.2-0.1c0.2-0.1,0.3-0.4,0.1-0.6c0,0-0.6-0.9-1.7-1.4c-0.2-0.1-0.5,0-0.6,0.2
								c-0.1,0.2,0,0.5,0.2,0.6c0.9,0.4,1.3,1,1.3,1C158.7,139.1,158.8,139.2,159,139.2z"/>
						</g>
					</g>
				</g>
				<g>
					<path class="st9" d="M125.8,133.9c0,0-2.9-3.9-5.1-0.7c-2.2,3.2,0.9,12.7,6.2,10.4L125.8,133.9z"/>
					<g>
						<path class="st11" d="M125.7,140.7c-0.2,0-0.4-0.1-0.4-0.3c-0.8-2.9-3.9-4.1-3.9-4.1c-0.2-0.1-0.3-0.3-0.3-0.6
							c0.1-0.2,0.3-0.3,0.6-0.3c0.1,0.1,3.5,1.4,4.4,4.7c0.1,0.2-0.1,0.5-0.3,0.6C125.8,140.7,125.8,140.7,125.7,140.7z"/>
					</g>
					<g>
						<g>
							<path class="st11" d="M122.6,139.2c-0.1,0-0.2,0-0.2-0.1c-0.2-0.1-0.3-0.4-0.1-0.6c0,0,0.6-0.9,1.7-1.4
								c0.2-0.1,0.5,0,0.6,0.2c0.1,0.2,0,0.5-0.2,0.6c-0.9,0.4-1.3,1-1.3,1C122.9,139.1,122.8,139.2,122.6,139.2z"/>
						</g>
					</g>
				</g>
				<path class="st8" d="M133.6,151.7v9.5c0,0,2.8,4.8,6.6,5.1c3.8,0.3,7.2-4.2,7.2-4.2v-9.8L133.6,151.7z"/>
				<path class="st9" d="M133.6,151.7v4.2c2.6,2.8,7.1,3.6,13.8,2.6v-6.1L133.6,151.7z"/>
				<path class="st8" d="M157.4,133.6c-0.1,2-0.4,4.1-0.8,6.2c-1.3,7-4.1,13.8-10.3,16c-13.9,5-18.9-7-20.9-14
					c-0.2-0.8-0.4-1.6-0.6-2.6c-0.3-1.7-0.6-3.5-0.8-5.4c-0.2-2.3-0.4-4.6-0.5-6.6c-0.2-4.2,2.3-8.1,6.3-9.7
					c5.7-2.2,14.4-3.9,22.6,0.7c3,1.7,4.9,4.9,5,8.4C157.6,128.8,157.6,131.1,157.4,133.6z"/>
				<ellipse class="st10" cx="148" cy="135.1" rx="1.2" ry="1.8"/>
				<ellipse class="st10" cx="134.3" cy="135.1" rx="1.2" ry="1.8"/>
				<path class="st10" d="M152.6,130c0,0-4.5-1.8-7.9-0.3l0.3,1.9c0,0,5-0.4,7.6,0.6C152.8,131.5,152.9,130.7,152.6,130z"/>
				<path class="st10" d="M130.4,130c0,0,4.5-1.8,7.9-0.3l-0.3,1.9c0,0-5-0.4-7.6,0.6C130.2,131.5,130.1,130.7,130.4,130z"/>
				<g>
					<path class="st9" d="M140.7,142.2c-0.8,0-1.5-0.3-1.6-0.3c-0.2-0.1-0.3-0.4-0.2-0.6c0.1-0.2,0.4-0.3,0.6-0.2
						c0.4,0.2,1.4,0.4,1.8,0.2c0.1,0,0.2-0.1,0.2-0.4c0.2-1.6-0.3-6.8-0.3-6.9c0-0.2,0.2-0.5,0.4-0.5c0.2,0,0.5,0.2,0.5,0.4
						c0,0.2,0.4,5.4,0.3,7.1c-0.1,0.6-0.4,0.9-0.7,1.1C141.4,142.2,141,142.2,140.7,142.2z"/>
				</g>
				<path class="st12" d="M146.8,145.5c-0.4,1.8-1.6,5.3-5.7,5.3c-4.1,0-5.3-3.1-5.7-5.3H146.8z"/>
				<path class="st10" d="M124.1,134h2c-0.2-2-0.5-5.6,1.1-6.2c5.3-1.6-1.6-5.4,0.8-7.3c2.4-1.9,8.4-1.1,12.5-1.2
					c4.2-0.1,10.9-0.1,12.5,0.3c1.6,0.4,0.7,3.1,0.1,5.2c-0.6,2.1,2,4.4,2.4,6.6c0.1,0.6,0.1,1.5,0,2.6h1.7c0.2-2.6,0.2-5.1,0.2-7.1
					c-0.1-3.5-2-6.7-5-8.4c-8.2-4.7-16.9-2.9-22.6-0.7c-4,1.5-6.5,5.4-6.3,9.7C123.7,129.4,123.9,131.7,124.1,134z"/>
			</g>
			<g>
				<path class="st4" d="M171,177.5c0,0,24.7,20.4,34.1,29c0,0,6.8-4.3,12.2-10.9c6.2-7.5,8.1-9.5,10.6-12.6l8.1,4.2
					c0,0-18,36.9-31.1,34.6c-13-2.2-34.4-24.1-34.4-24.1L171,177.5z"/>
				<path class="st8" d="M246.3,168.8c-0.8,0-2.5,2.3-3.9,4.7c-0.1,0-0.2-0.1-0.3-0.1c1.6-3.4,4.1-9.2,2.3-9.1c-1.2,0.1-3.5,5-4.8,8
					c-0.2-0.1-0.3-0.1-0.5-0.2c1.5-3.6,4.2-10.7,2.2-10.5c-1.3,0.2-3.8,6.4-5,9.6c-0.1,0-0.3-0.1-0.4-0.1c1.2-3.1,3.1-9.2,1.1-8.9
					c-1.8,0.2-4.4,9.7-4.4,9.7l0,0l-1.4,3.4c0,0-1.2-0.3-1.4-3.1c-0.2-2.8-1.7-4.4-2.3-1.1c-0.7,3.7-0.2,7.2-0.8,9.8
					c-0.3,1.2,0.1,2.4,0.5,3.4c0.5,1.1,1.4,2.1,2.4,2.8l0,0c2.7,1.9,6.5,1.4,8.6-1.2c2.4-3,5.2-7,5.9-10.3v0
					C245.9,172.5,247.7,168.8,246.3,168.8z"/>
			</g>
		</g>
	</g>
	<g>
		<g>
			<path class="st13" d="M256.2,249V136.9c0-2.9,2.3-5.2,5.2-5.2h155.8c2.9,0,5.2,2.3,5.2,5.2V249c0,2.9-2.3,5.2-5.2,5.2H261.4
				C258.5,254.2,256.2,251.9,256.2,249z"/>
			<path class="st12" d="M414.8,143.5v98.9c0,2.3-1.9,4.2-4.2,4.2H268c-2.3,0-4.2-1.9-4.2-4.2v-98.9c0-0.4,0.1-0.8,0.2-1.1
				c0.4-1.3,1.4-2.4,2.6-2.8c0.4-0.2,0.9-0.2,1.4-0.2h142.6c0.5,0,0.9,0.1,1.4,0.2c1.3,0.4,2.3,1.5,2.6,2.8
				C414.7,142.7,414.8,143.1,414.8,143.5z"/>
			<path class="st2" d="M400.4,226.5H276.2c-2.9,0-5.2-2.3-5.2-5.2v-0.1c0-2.9,2.3-5.2,5.2-5.2h124.2c2.9,0,5.2,2.3,5.2,5.2v0.1
				C405.6,224.1,403.3,226.5,400.4,226.5z"/>
			<g>
				<g>
					<path class="st2" d="M302.1,166.3h-28.7c-1.3,0-2.4-1.1-2.4-2.4l0,0c0-1.3,1.1-2.4,2.4-2.4h28.7c1.3,0,2.4,1.1,2.4,2.4l0,0
						C304.4,165.2,303.4,166.3,302.1,166.3z"/>
					<path class="st2" d="M302.1,176.1h-28.7c-1.3,0-2.4-1.1-2.4-2.4l0,0c0-1.3,1.1-2.4,2.4-2.4h28.7c1.3,0,2.4,1.1,2.4,2.4l0,0
						C304.4,175.1,303.4,176.1,302.1,176.1z"/>
					<path class="st2" d="M302.1,186h-28.7c-1.3,0-2.4-1.1-2.4-2.4l0,0c0-1.3,1.1-2.4,2.4-2.4h28.7c1.3,0,2.4,1.1,2.4,2.4l0,0
						C304.4,184.9,303.4,186,302.1,186z"/>
					<path class="st2" d="M302.1,195.8h-28.7c-1.3,0-2.4-1.1-2.4-2.4v0c0-1.3,1.1-2.4,2.4-2.4h28.7c1.3,0,2.4,1.1,2.4,2.4v0
						C304.4,194.8,303.4,195.8,302.1,195.8z"/>
				</g>
			</g>
			<g>
				<g>
					<path class="st2" d="M403.3,166.3h-28.7c-1.3,0-2.4-1.1-2.4-2.4l0,0c0-1.3,1.1-2.4,2.4-2.4h28.7c1.3,0,2.4,1.1,2.4,2.4l0,0
						C405.6,165.2,404.6,166.3,403.3,166.3z"/>
					<path class="st2" d="M403.3,176.1h-28.7c-1.3,0-2.4-1.1-2.4-2.4l0,0c0-1.3,1.1-2.4,2.4-2.4h28.7c1.3,0,2.4,1.1,2.4,2.4l0,0
						C405.6,175.1,404.6,176.1,403.3,176.1z"/>
					<path class="st2" d="M403.3,186h-28.7c-1.3,0-2.4-1.1-2.4-2.4l0,0c0-1.3,1.1-2.4,2.4-2.4h28.7c1.3,0,2.4,1.1,2.4,2.4l0,0
						C405.6,184.9,404.6,186,403.3,186z"/>
					<path class="st2" d="M403.3,195.8h-28.7c-1.3,0-2.4-1.1-2.4-2.4v0c0-1.3,1.1-2.4,2.4-2.4h28.7c1.3,0,2.4,1.1,2.4,2.4v0
						C405.6,194.8,404.6,195.8,403.3,195.8z"/>
				</g>
			</g>
			<g>
				<path class="st2" d="M414.8,143.3v10H263.9v-10c0-0.4,0.1-0.8,0.2-1.2c0.4-1.3,1.4-2.4,2.6-2.8H412c1.3,0.5,2.3,1.5,2.6,2.8
					C414.7,142.5,414.8,142.9,414.8,143.3z"/>
				<path class="st12" d="M400.5,146.6v0.5c0,0.9-0.7,1.6-1.6,1.6H292.3c-1,0-1.8-0.8-1.8-1.8l0,0c0-1,0.8-1.8,1.8-1.8h106.6
					C399.8,145,400.5,145.7,400.5,146.6z"/>
				<path class="st15" d="M275.3,146.8v1.4c0,0.4-0.4,0.6-0.8,0.4l-1.2-0.7l-1.2-0.7c-0.3-0.2-0.3-0.7,0-0.9l1.2-0.7l1.2-0.7
					c0.3-0.2,0.8,0,0.8,0.4V146.8z"/>
				<path class="st15" d="M281.4,146.8v1.4c0,0.4,0.4,0.6,0.8,0.4l1.2-0.7l1.2-0.7c0.3-0.2,0.3-0.7,0-0.9l-1.2-0.7l-1.2-0.7
					c-0.3-0.2-0.8,0-0.8,0.4V146.8z"/>
			</g>
		</g>
		<g>
			<path class="st10" d="M340.4,94.3c0,0-17-1.7-21.6,23.4c-4.5,25.1-7.6,40.8-6.6,54.2c1,13.4,44.8,9.8,51.6,3.1
				c6.8-6.7-0.6-51.5-2.3-63.4C359.9,99.7,347.1,93.2,340.4,94.3z"/>
			<g>
				<path class="st3" d="M313.4,214.7c0.1,1.5,0.1,3.1,0.2,4.6c0.4,10.5-0.8,19.1-2.1,27.2h59c-1.3-8.1-2.5-16.7-2.1-27.2
					c0.1-3.3,0.3-6.5,0.5-9.7c0.7-11.4,2-21.8,2.8-29.7c0.8-8,1.2-13.4,0.3-14.6c-0.8-1.1-2.2-2.2-3.9-3.4c-2.6-1.8-5.9-3.6-9.2-5.3
					c-0.6-0.3-1.2-0.6-1.8-1c-3.8-2-7.3-3.7-9.3-5.1c-2.5,1.1-4.4,1.7-6.6,1.7c-0.1,0-0.1,0-0.2,0c-0.1,0-0.1,0-0.2,0
					c-2.1,0-4.1-0.6-6.6-1.7c-2.1,1.4-6,3.4-10.2,5.5c-0.7,0.4-1.5,0.8-2.2,1.2c-2.1,1.1-4.1,2.2-6,3.4c-0.8,0.5-1.5,1-2.2,1.4
					c-1.8,1.2-3.2,2.4-4.1,3.5c-2,2.5,2,21.7,3.6,45.2C313.3,212.1,313.4,213.4,313.4,214.7z"/>
				<g>
					<path class="st16" d="M362.4,243C362.4,243,362.4,243,362.4,243c-12.4-0.1-23.1-5.7-29.8-10.5c-7.3-5.1-11.7-10.3-11.7-10.4
						c-0.2-0.3-0.2-0.6,0.1-0.8c0.3-0.2,0.6-0.2,0.8,0.1c0,0.1,4.4,5.1,11.5,10.2c6.6,4.6,17,10.2,29.1,10.2c0.3,0,0.6,0.3,0.6,0.6
						C363,242.7,362.7,243,362.4,243z"/>
				</g>
				<g>
					<path class="st16" d="M354.1,235.7c-10.6-2.1-20-10.2-20.4-10.6c-0.2-0.2-0.3-0.6-0.1-0.8c0.2-0.2,0.6-0.3,0.8-0.1
						c0.1,0.1,11.1,9.6,22.4,10.7c0.3,0,0.6,0.3,0.5,0.7c0,0.3-0.3,0.6-0.7,0.5C355.9,236,355,235.9,354.1,235.7z"/>
				</g>
				<g>
					<path class="st16" d="M338.5,180.9c-0.3,0-0.5-0.2-0.6-0.5c-0.1-0.3,0.2-0.6,0.5-0.7c15.2-2.9,19.7-12.6,19.8-12.7
						c0.1-0.3,0.5-0.4,0.8-0.3c0.3,0.1,0.4,0.5,0.3,0.8c-0.2,0.4-4.9,10.4-20.7,13.4C338.5,180.9,338.5,180.9,338.5,180.9z"/>
				</g>
				<path class="st8" d="M357,155.7c-3.6,6.1-9.9,12.3-17.9,10.9c-7.4-1.3-11.9-6-15-10.5c4.1-2.2,8-4.1,10.2-5.5
					c2.5,1.1,4.4,1.7,6.6,1.7c0.1,0,0.1,0,0.2,0c0.1,0,0.1,0,0.2,0c2.1,0,4.1-0.6,6.6-1.7C349.7,151.9,353.3,153.7,357,155.7z"/>
				<g>
					<path class="st12" d="M350.8,151.1c-0.3,0-0.5,0.2-0.5,0.5c0,0.4-0.2,9.5-8.3,10.2c-7.6,0.7-10.7-6.6-11.7-9.6
						c-0.1-0.2-0.2-0.3-0.4-0.3h-0.1c-0.3,0-0.5,0.3-0.4,0.6c1,3.1,4.3,10.6,12,10.3c0.2,0,0.4,0,0.6,0c9-0.8,9.2-11,9.2-11.1
						C351.3,151.3,351.1,151.1,350.8,151.1z"/>
				</g>
			</g>
			<g>
				<g>
					<path class="st8" d="M326,123.5c0,0-3.7-4.2-5.8-1.3c-2,3,0.9,12.1,5.8,10L326,123.5z"/>
					<g>
						<path class="st9" d="M324.8,129.1c-0.2,0-0.3-0.1-0.4-0.3c-0.7-2.7-3.5-3.8-3.6-3.9c-0.2-0.1-0.3-0.3-0.2-0.5
							c0.1-0.2,0.3-0.3,0.5-0.2c0.1,0.1,3.2,1.3,4.1,4.4c0.1,0.2-0.1,0.4-0.3,0.5C324.9,129.1,324.9,129.1,324.8,129.1z"/>
					</g>
					<g>
						<g>
							<path class="st9" d="M322,127.8c-0.1,0-0.2,0-0.2-0.1c-0.2-0.1-0.2-0.4-0.1-0.6c0,0,0.5-0.8,1.6-1.2c0.2-0.1,0.5,0,0.5,0.2
								c0.1,0.2,0,0.5-0.2,0.5c-0.8,0.4-1.2,0.9-1.2,0.9C322.3,127.7,322.1,127.8,322,127.8z"/>
						</g>
					</g>
				</g>
				<g>
					<path class="st8" d="M355.5,123.5c0,0,3.7-4.2,5.8-1.3c2,3-0.9,12.1-5.8,10L355.5,123.5z"/>
					<g>
						<path class="st9" d="M356.7,129.1c0.2,0,0.3-0.1,0.4-0.3c0.7-2.7,3.5-3.8,3.6-3.9c0.2-0.1,0.3-0.3,0.2-0.5
							c-0.1-0.2-0.3-0.3-0.5-0.2c-0.1,0.1-3.2,1.3-4.1,4.4c-0.1,0.2,0.1,0.4,0.3,0.5C356.6,129.1,356.6,129.1,356.7,129.1z"/>
					</g>
					<g>
						<g>
							<path class="st9" d="M359.5,127.8c0.1,0,0.2,0,0.2-0.1c0.2-0.1,0.2-0.4,0.1-0.6c0,0-0.5-0.8-1.6-1.2c-0.2-0.1-0.5,0-0.5,0.2
								c-0.1,0.2,0,0.5,0.2,0.5c0.8,0.4,1.2,0.9,1.2,0.9C359.2,127.7,359.4,127.8,359.5,127.8z"/>
						</g>
					</g>
				</g>
				<g>
					<path class="st8" d="M347.8,141.2v9.4c0,0-2.8,4.8-6.6,5.1c-3.8,0.3-7.2-4.1-7.2-4.1v-9.7L347.8,141.2z"/>
					<path class="st9" d="M347.8,141.2v4.2c-2.5,2.8-7.1,3.8-13.7,2.8l0-6.3L347.8,141.2z"/>
					<path class="st8" d="M357.7,117.1c-0.2,3.7-0.5,8.2-1.2,11.9c-0.2,0.9-0.4,1.8-0.6,2.5c-2,6.9-6.9,18.8-20.8,13.9
						c-6.1-2.2-9-9-10.2-15.9c-0.9-4.7-1-9.5-0.9-12.9c0.1-3.5,2-6.6,5-8.4c8.2-4.6,16.8-2.9,22.5-0.7
						C355.4,109,357.9,112.9,357.7,117.1z"/>
					<ellipse class="st10" cx="333.4" cy="124.1" rx="1.2" ry="1.8"/>
					<ellipse class="st10" cx="347.7" cy="124.1" rx="1.2" ry="1.8"/>
					<path class="st10" d="M331.1,118.7c1-0.3,2.9-0.7,4.9-0.7c0.5,0,1,0.5,0.9,1l0,0c-0.1,0.4-0.5,0.7-0.9,0.7
						c-1.4-0.1-5,0.1-6.8,0.8c0-0.3,0.1-0.6,0.4-0.9C330,119.1,330.6,118.8,331.1,118.7z"/>
					<path class="st10" d="M349.8,118.7c-1-0.3-2.9-0.7-4.9-0.7c-0.5,0-1,0.5-0.9,1l0,0c0.1,0.4,0.5,0.7,0.9,0.7
						c1.4-0.1,5,0.1,6.8,0.8c0-0.3-0.1-0.6-0.4-0.9C350.9,119.2,350.3,118.9,349.8,118.7z"/>
					<g>
						<path class="st9" d="M340.8,132.4c-0.3,0-0.7-0.1-1-0.2c-0.3-0.2-0.6-0.5-0.6-1.1c-0.2-1.6,0.3-6.8,0.3-7
							c0-0.2,0.2-0.4,0.5-0.4c0.2,0,0.4,0.2,0.4,0.5c0,0.1-0.4,5.3-0.3,6.8c0,0.3,0.1,0.4,0.2,0.4c0.4,0.3,1.4,0,1.8-0.2
							c0.2-0.1,0.5,0,0.6,0.2c0.1,0.2,0,0.5-0.2,0.6C342.3,132.1,341.6,132.4,340.8,132.4z"/>
					</g>
					<path class="st12" d="M335.1,135.2c0.3,1.7,1.5,4.8,5.2,4.8c3.8,0,4.9-2.9,5.2-4.8H335.1z"/>
					<g>
						<path class="st9" d="M340.3,142.6c-1.1,0-2.1-0.6-2.1-0.6c-0.2-0.1-0.3-0.4-0.1-0.6c0.1-0.2,0.4-0.3,0.6-0.1l0,0
							c0,0,0.8,0.5,1.6,0.5c0.9,0,1.7-0.5,1.7-0.5c0.2-0.1,0.5-0.1,0.6,0.2c0.1,0.2,0.1,0.5-0.2,0.6
							C342.5,142,341.5,142.6,340.3,142.6z"/>
					</g>
				</g>
				<path class="st10" d="M359.5,116.3c-0.1,0.4-0.5,0.7-1.1,0.8c0,1-0.1,2.2-0.2,3.3c-0.6,6.5-2.1,8.9-2.8,8.7
					c-0.9-0.2,0.6-7.5,0.8-11.8c-1.3-0.1-3.1-0.3-3.1-0.3l-1.5-6.3l-0.5,6.2c-2.2,0.8-7.5-0.5-7.5-0.5l-1.8-6.2l-1.1,5.9
					c-3.4,1.6-7.6,0.5-7.6,0.5l-1-6.4l-2.2,6.4c0,0-3.4,1-5.5,1.1c-0.3,2.8,1.1,8.7,0.8,10.9c-0.4,3-1.9,0.3-2.7-6.6
					c-0.2-1.8,0-4.2,0.2-5.6c0,0,0,0,0,0c0.1-0.7,0.1-1.2,0.2-1.3c0,0,0,0,0,0c0.3-2,1.1-5,1.8-7.4c1-3.6,3.4-6.6,6.5-8.3
					c8.9-4.8,18.3-2.2,21.6-0.3C359.8,103.3,359.5,116.3,359.5,116.3z"/>
				<path class="st10" d="M323,115.3c0,0.1-0.1,0.6-0.2,1.3C322.9,116.3,322.9,115.8,323,115.3z"/>
			</g>
			<g>
				<path class="st3" d="M379.1,212.2c-3,8.5-16.2,7.9-31.4,3.2c0,0,0,0-0.1,0c0,0-0.1,0-0.1,0l-2.1-0.7c-0.3-0.1-0.6-0.2-0.9-0.3
					c-1.6-0.5-3.3-1.1-4.9-1.8c-5.4-2.1-10.8-4.5-16-7.1l0-0.1l1.5-4l0.5-1.4c0,0,28,3.1,42.1,0.1c0.2,0,0.5-0.1,0.7-0.2
					c-0.1-0.3-0.1-0.6-0.2-0.9c-7.5-25.4,0.7-30.3,3.4-33.8C371.9,165.3,384.7,196.2,379.1,212.2z"/>
				<g>
					<path class="st16" d="M374.6,204.4c-0.1,0-0.2,0.1-0.3,0.1c-0.2,0-0.4-0.1-0.5-0.3c-1.1-2.2-4.7-3.5-5.8-3.8
						c0.2,0,0.5-0.1,0.7-0.2c-0.1-0.3-0.1-0.6-0.2-0.9c1.4,0.5,5.1,1.9,6.3,4.4C375,203.9,374.9,204.2,374.6,204.4z"/>
				</g>
				<g>
					<path class="st16" d="M335.3,203.3c-5.7,0-10.4-0.3-10.8-0.4c-0.3,0-0.6-0.3-0.6-0.6c0-0.3,0.3-0.6,0.6-0.6
						c0.2,0,21.2,1.5,29.5-1.9c0.3-0.1,0.7,0,0.8,0.3c0.1,0.3,0,0.7-0.3,0.8C350,202.9,342,203.3,335.3,203.3z"/>
				</g>
				<g>
					<path class="st16" d="M345.5,214.7C345.5,214.7,345.5,214.7,345.5,214.7c4.8-1.3,9.2-2.6,11.7-3.4c3.5-1.1,6.4-4.7,7.7-7.7
						c0.1-0.3,0.5-0.4,0.8-0.3c0.3,0.1,0.4,0.5,0.3,0.8c-1.4,3.2-4.6,7.1-8.4,8.3c-1.8,0.6-4.6,1.4-7.8,2.3
						C348.3,215.2,346.9,215.2,345.5,214.7L345.5,214.7z"/>
				</g>
				<g>
					<path class="st3" d="M358.4,210.6c-43.3,14.6-56.6,5-56.6,5c-2.9-26.4,7.8-50.1,7.8-50.1c3.2,5.2,6.8,14.4,6.8,14.4l0.9,20.2
						l-0.1,0.6l0,0.3l-0.2,1.4l0,0c0.1,0,0.2,0,0.3,0.1c13.1,2.8,37.1-0.3,37.1-0.3L358.4,210.6z"/>
					<g>
						<path class="st16" d="M317.3,202.5c-2.3,2-4.6,4.2-6.5,6.8c-0.2,0.3-0.6,0.3-0.8,0.1c-0.3-0.2-0.3-0.6-0.1-0.8c0,0,0,0,0,0
							c2.2-2.9,4.7-5.4,7.4-7.6l-0.2,1.4l0,0C317.1,202.4,317.2,202.5,317.3,202.5z"/>
					</g>
					<path class="st17" d="M354.4,202.2c0,0,4.8-10.9,12.1-9.9l2.2,7.9c-4,1.7-4.6,8.5-10.2,10.5L354.4,202.2z"/>
				</g>
				<path class="st17" d="M325.9,200.1c0,0-3-7.1-11-9.2c-8-2.1-13,1.7-13.6,3.1c-0.5,1.4,3,0.1,3,0.1s-2.3,0.7-3.6,2.8
					c-1.3,2.2,3.2-0.2,3.2-0.2s-3.3,1.4-3.7,2.8c-0.4,1.3,3.9-0.9,4.7-0.9c0,0-3.8,1.5-3.8,2.9c0,1.4,4.4-0.9,7.7-0.7
					c3.3,0.2,8.3,1.5,8.3,1.5c2.7,0.5,5.2,0.9,7.6,1L325.9,200.1z"/>
			</g>
		</g>
	</g>
	<g>
		<g>
			<path class="st13" d="M177.5,415.2H73c-2.9,0-5.2-2.3-5.2-5.2V264.5c0-2.9,2.3-5.2,5.2-5.2h104.5c2.9,0,5.2,2.3,5.2,5.2V410
				C182.7,412.9,180.4,415.2,177.5,415.2z"/>
			<path class="st12" d="M175.5,270.9v132.7c0,0.9-0.3,1.7-0.7,2.4c-0.8,1.2-2.2,2-3.7,2H79.4c-2.4,0-4.4-2-4.4-4.4V270.9
				c0-2.4,2-4.4,4.4-4.4h91.7C173.6,266.5,175.5,268.5,175.5,270.9z"/>
			<g>
				<g>
					<path class="st2" d="M110,295.8H81.3c-1.3,0-2.4-1.1-2.4-2.4l0,0c0-1.3,1.1-2.4,2.4-2.4H110c1.3,0,2.4,1.1,2.4,2.4l0,0
						C112.4,294.8,111.3,295.8,110,295.8z"/>
					<path class="st2" d="M110,305.7H81.3c-1.3,0-2.4-1.1-2.4-2.4l0,0c0-1.3,1.1-2.4,2.4-2.4H110c1.3,0,2.4,1.1,2.4,2.4l0,0
						C112.4,304.6,111.3,305.7,110,305.7z"/>
					<path class="st2" d="M110,315.5H81.3c-1.3,0-2.4-1.1-2.4-2.4l0,0c0-1.3,1.1-2.4,2.4-2.4H110c1.3,0,2.4,1.1,2.4,2.4l0,0
						C112.4,314.4,111.3,315.5,110,315.5z"/>
					<path class="st2" d="M110,325.4H81.3c-1.3,0-2.4-1.1-2.4-2.4l0,0c0-1.3,1.1-2.4,2.4-2.4H110c1.3,0,2.4,1.1,2.4,2.4l0,0
						C112.4,324.3,111.3,325.4,110,325.4z"/>
				</g>
				<g>
					<path class="st2" d="M169.5,320.2h-28.7c-1.3,0-2.4-1.1-2.4-2.4l0,0c0-1.3,1.1-2.4,2.4-2.4h28.7c1.3,0,2.4,1.1,2.4,2.4l0,0
						C171.9,319.1,170.9,320.2,169.5,320.2z"/>
					<path class="st2" d="M169.5,330h-28.7c-1.3,0-2.4-1.1-2.4-2.4v0c0-1.3,1.1-2.4,2.4-2.4h28.7c1.3,0,2.4,1.1,2.4,2.4v0
						C171.9,329,170.9,330,169.5,330z"/>
					<path class="st2" d="M169.5,339.9h-28.7c-1.3,0-2.4-1.1-2.4-2.4l0,0c0-1.3,1.1-2.4,2.4-2.4h28.7c1.3,0,2.4,1.1,2.4,2.4l0,0
						C171.9,338.8,170.9,339.9,169.5,339.9z"/>
					<path class="st2" d="M169.5,349.7h-28.7c-1.3,0-2.4-1.1-2.4-2.4l0,0c0-1.3,1.1-2.4,2.4-2.4h28.7c1.3,0,2.4,1.1,2.4,2.4l0,0
						C171.9,348.7,170.9,349.7,169.5,349.7z"/>
				</g>
			</g>
			<g>
				<path class="st2" d="M175.5,270.9v10.4H75v-10.4c0-2.4,2-4.4,4.4-4.4h91.7C173.6,266.5,175.5,268.5,175.5,270.9z"/>
				<path class="st12" d="M162.9,272.4h-57.7c-1,0-1.8,0.7-2,1.6c-0.2,1.2,0.8,2.2,1.9,2.2h57.8c1.1,0,1.9-0.9,1.9-1.9l0,0
					C164.9,273.3,164,272.4,162.9,272.4z"/>
				<path class="st15" d="M85.3,274.4v1.4c0,0.4-0.4,0.7-0.8,0.5l-1.2-0.7l-1.2-0.7c-0.4-0.2-0.4-0.7,0-0.9l1.2-0.7l1.2-0.7
					c0.4-0.2,0.8,0.1,0.8,0.5V274.4z"/>
				<path class="st15" d="M91.8,274.4v1.4c0,0.4,0.4,0.7,0.8,0.5l1.2-0.7l1.2-0.7c0.4-0.2,0.4-0.7,0-0.9l-1.2-0.7l-1.2-0.7
					c-0.4-0.2-0.8,0.1-0.8,0.5V274.4z"/>
			</g>
		</g>
		<g>
			<path class="st16" d="M100.8,341.7c-1,7.6-10.9,32.1-13.3,53.2C87,399,86.3,404,85.6,408h-6.2c-2.4,0-4.4-2-4.4-4.4v-23.5
				c0.7-4.1,1.4-7.8,2.3-11.9c3.7-17.7,9.8-33,12.8-41.1c1.1-3,3-6.4,5.8-8C99.9,321.6,101.7,335.1,100.8,341.7z"/>
			<path class="st16" d="M174.8,406c-0.8,1.2-2.2,2-3.7,2h-8.7c-0.6-4.1-1.5-9-2-13.1c-2.4-21.1-12.3-45.6-13.3-53.2
				c-0.9-6.6,0.9-20.1,4.9-22.6c2.8,1.5,4.6,5,5.8,8c3,8.1,9.1,23.4,12.8,41.1c1.6,7.6,2.9,14.3,3.8,23.6
				C174.8,395.1,174.9,400.7,174.8,406z"/>
			<g>
				<g>
					<g>
						<g>
							<g>
								<g>
									<g>
										<path class="st3" d="M158.3,408c0-1,0-2.1,0-3.1c0-0.5,0-0.9,0-1.4c-0.1-4.1-0.1-8.4-0.2-12.8c0-2.2-0.1-4.3-0.1-6.5
											c0-0.5,0-1,0-1.5c0-0.5,0-1,0-1.6c0-0.9,0-1.9-0.1-2.8c0-1,0-2.1-0.1-3.1c0-0.2,0-0.4,0-0.6c0-0.6,0-1.2,0-1.8
											c0-0.1,0-0.3,0-0.4c0-1-0.1-2.1-0.1-3.1c-0.6-24.2-1.7-45.7-3.4-48.2c-1.2-1.8-4.1-3.9-7.4-6.1c-0.4-0.3-0.8-0.5-1.2-0.8
											c-1.4-0.9-13-4.8-14.5-5.7l-12.3-0.9c-0.1,0-11.8,4-11.9,4c-0.5,0.3-1,0.6-1.5,0.9c-4.3,2.5-8.6,5.1-11.1,7.4
											c-0.4,0.3-0.7,0.7-1,1c-0.2,0.3-0.4,0.5-0.6,0.7c-0.1,0.2-0.3,0.6-0.4,1.1c-1.4,5.1-2.2,24.7-2.6,46.6c0,1,0,2-0.1,3v0.1
											c0,0.9,0,1.9,0,2.8c0,0.1,0,0.3,0,0.4c0,0.6,0,1.1,0,1.7c0,0.3,0,0.7,0,1c0,0.4,0,0.8,0,1.2c0,0.5,0,1,0,1.5
											c0,0,0,0.1,0,0.1c0,0.2,0,0.4,0,0.6c0,0.2,0,0.4,0,0.5c0,0.6,0,1.3,0,1.9c0,0.4,0,0.9,0,1.3c0,0.9,0,1.8,0,2.8
											c-0.1,6.8-0.1,13.5-0.1,19.8H158.3z"/>
									</g>
								</g>
							</g>
						</g>
					</g>
					<g>
						<path class="st16" d="M89.7,372.3L89.7,372.3l67.9,0.1c0-1-0.1-2.1-0.1-3.1H89.8C89.8,370.3,89.8,371.3,89.7,372.3z"/>
						<path class="st16" d="M89.7,378.3h68.2c0-1,0-2.1-0.1-3.1h-68c0,0.1,0,0.3,0,0.4c0,0.6,0,1.1,0,1.7
							C89.7,377.6,89.7,378,89.7,378.3z"/>
						<path class="st16" d="M89.6,384.2h68.4c0-0.5,0-1,0-1.5c0-0.5,0-1,0-1.6H89.6c0,0.2,0,0.4,0,0.6c0,0.2,0,0.4,0,0.5
							C89.6,382.9,89.6,383.6,89.6,384.2z"/>
					</g>
					<g>
						<path class="st16" d="M101.7,352.7c0-0.6-0.8-0.9-1.1-0.4c-4.9,6.5-7.9,13.6-9.7,19.1c-0.4,1.4-0.8,2.8-1.2,4.1
							c0,0.6,0,1.1,0,1.7c0,0.7,0,1.5,0,2.2c0,0.5,0,1,0,1.5c0,0.3,0,0.5,0,0.8c0,0.2,0,0.4,0,0.5c0.5-2.8,1.2-6.5,2.5-10.5
							c1.7-5.5,4.6-12.4,9.4-18.7C101.6,353,101.7,352.9,101.7,352.7L101.7,352.7z"/>
					</g>
					<g>
						<path class="st16" d="M131,408c1.8-1,3.4-2.1,4.8-3.1c7.7-5.5,12.4-11,12.5-11c0.2-0.3,0.2-0.7-0.1-0.9
							c-0.3-0.2-0.7-0.2-0.9,0.1c0,0.1-4.6,5.5-12.2,10.8c-1.9,1.3-4.1,2.8-6.6,4.1H131z"/>
					</g>
					<g>
						<path class="st16" d="M128.1,334.3c0.3,0,0.6-0.2,0.6-0.5c0.1-0.3-0.2-0.7-0.5-0.7c-16.1-3.1-21-13.4-21-13.5
							c-0.1-0.3-0.5-0.5-0.8-0.3c-0.3,0.1-0.5,0.5-0.3,0.8c0.2,0.5,5.2,11.1,22,14.3C128,334.3,128.1,334.3,128.1,334.3z"/>
					</g>
				</g>
				<g>
					<path class="st10" d="M106.7,270.4c0,0-1.2-7.3,0.6-9.8c1.8-2.5,4.7-1.8,7.8-4.6c3.1-2.9,12.6-0.1,16.7-0.9
						c2.3-0.4,4.7-0.1,6.9-0.6c3.2-0.6,4.9,2.5,4.1,5.6c-0.5,2-1.5,5-4.4,5.7C138.5,265.9,111,260.9,106.7,270.4z"/>
					<path class="st10" d="M106.1,276.3c0,10.6,6.5,18,17.2,18s18-7.9,18-18.5s-6.3-18.7-16.9-18.7
						C111.6,257.1,106.1,265.7,106.1,276.3z"/>
					<g>
						<path class="st9" d="M108.5,280.9c0,0-3-3.9-5.2-0.7c-2.2,3.3,0.9,12.9,6.3,10.5L108.5,280.9z"/>
						<g>
							<g>
								<g>
									<path class="st11" d="M108.4,287.8c-0.2,0-0.4-0.1-0.4-0.3c-0.8-3-3.9-4.2-3.9-4.2c-0.2-0.1-0.4-0.4-0.3-0.6
										c0.1-0.2,0.4-0.4,0.6-0.3c0.1,0.1,3.5,1.4,4.5,4.8c0.1,0.2-0.1,0.5-0.3,0.6C108.5,287.8,108.5,287.8,108.4,287.8z"/>
								</g>
							</g>
						</g>
						<g>
							<path class="st11" d="M105.3,286.3c-0.1,0-0.2,0-0.2-0.1c-0.2-0.1-0.3-0.4-0.1-0.6c0,0,0.6-0.9,1.7-1.4
								c0.2-0.1,0.5,0,0.6,0.2c0.1,0.2,0,0.5-0.2,0.6c-0.9,0.4-1.3,1-1.3,1C105.6,286.2,105.5,286.3,105.3,286.3z"/>
						</g>
					</g>
					<g>
						<path class="st9" d="M138.9,280.9c0,0,3-3.9,5.2-0.7c2.2,3.3-0.9,12.9-6.3,10.5L138.9,280.9z"/>
						<g>
							<g>
								<g>
									<path class="st11" d="M139,287.8c0.2,0,0.4-0.1,0.4-0.3c0.8-3,3.9-4.2,3.9-4.2c0.2-0.1,0.4-0.4,0.3-0.6
										c-0.1-0.2-0.4-0.4-0.6-0.3c-0.1,0.1-3.5,1.4-4.5,4.8c-0.1,0.2,0.1,0.5,0.3,0.6C138.9,287.8,138.9,287.8,139,287.8z"/>
								</g>
							</g>
						</g>
						<g>
							<g>
								<g>
									<path class="st11" d="M142.1,286.3c0.1,0,0.2,0,0.2-0.1c0.2-0.1,0.3-0.4,0.1-0.6c0,0-0.6-0.9-1.7-1.4
										c-0.2-0.1-0.5,0-0.6,0.2c-0.1,0.2,0,0.5,0.2,0.6c0.9,0.4,1.3,1,1.3,1C141.8,286.2,141.9,286.3,142.1,286.3z"/>
								</g>
							</g>
						</g>
					</g>
					<path class="st8" d="M131,298.9v9.6c0,0-2.9,4.9-6.7,5.2c-3.9,0.3-7.3-4.2-7.3-4.2v-9.9L131,298.9z"/>
					<path class="st9" d="M131,298.9v4.2c-2.6,2.9-7.2,3.6-14,2.6v-6.2L131,298.9z"/>
					<path class="st8" d="M106.9,280.7c0,0.6,0.1,1.1,0.1,1.7c0.1,1.4,0.3,2.9,0.6,4.3c0,0.1,0,0.1,0,0.1c1.3,7.1,4.2,14,10.4,16.2
						c14.1,5,19.1-7.1,21.2-14.1c0.2-0.8,0.4-1.7,0.6-2.6c0,0,0-0.1,0-0.1c0.2-1,0.4-2.2,0.5-3.3c0.1-0.8,0.2-1.7,0.3-2.6
						c0.2-2.1,0.3-4.2,0.4-6.1c0.2-4.3-2.4-8.2-6.4-9.8c-5.8-2.2-14.6-4-22.9,0.7c-3.1,1.7-5,5-5.1,8.5
						C106.7,275.7,106.7,278.1,106.9,280.7z"/>
					<path class="st10" d="M106.9,280.7c0,0.6,0.1,1.1,0.1,1.7c0.1,1.4,0.3,2.9,0.6,4.3c0,0.1,0,0.1,0,0.1c1.3,7.1,4.2,14,10.4,16.2
						c14.1,5,19.1-7.1,21.2-14.1c0.2-0.8,0.4-1.7,0.6-2.6c0,0,0-0.1,0-0.1c0.2-1,0.4-2.2,0.5-3.3c0.1-0.8,0.2-1.7,0.3-2.6l-2.1,0.6
						c-0.6,3.2-1.5,7.8-2.7,10c-1.8-4.5-12.1-0.8-12.1-0.8s-9.2-3.3-12.3,0c-1.5-3.8-2.8-9.2-2.8-9.2L106.9,280.7z M123.4,291.9
						c7.4-1,9.2,0.9,9.6,3.1c-2,2.1-4.2,3.3-6.3,3.8c-2.5,0.6-7.7,0.5-11.4-2.4C114.9,294.6,114.5,289.6,123.4,291.9z"/>
					<ellipse class="st10" cx="116.6" cy="281.4" rx="1.2" ry="1.8"/>
					<ellipse class="st10" cx="130.6" cy="281.4" rx="1.2" ry="1.8"/>
					<path class="st10" d="M134.6,275.3c0,0-3.7-1.5-6.6-0.2l0.3,1.6c0,0,4.2-0.4,6.3,0.5C134.8,276.6,134.8,276,134.6,275.3z"/>
					<path class="st10" d="M112.6,275.3c0,0,3.7-1.5,6.6-0.2l-0.3,1.6c0,0-4.2-0.4-6.3,0.5C112.3,276.6,112.3,276,112.6,275.3z"/>
					<g>
						<path class="st9" d="M124.2,289.5c-0.8,0.1-1.6-0.1-1.7-0.1c-0.2-0.1-0.4-0.3-0.3-0.6c0.1-0.2,0.3-0.4,0.6-0.3
							c0.4,0.1,1.4,0.3,1.8-0.1c0.1-0.1,0.2-0.2,0.2-0.4c0-1.6-1.1-6.8-1.1-6.9c-0.1-0.2,0.1-0.5,0.4-0.5c0.2-0.1,0.5,0.1,0.5,0.4
							c0,0.2,1.1,5.4,1.1,7c0,0.6-0.3,1-0.5,1.2C124.9,289.3,124.5,289.4,124.2,289.5z"/>
					</g>
					<path class="st12" d="M118,292.2c0.4,1.9,1.6,5.3,5.8,5.3c4.2,0,5.3-3.1,5.7-5.3H118z"/>
					<path class="st10" d="M140.6,281h-2.1c0.2-2.1-0.5-4.6-1.1-6.2c-1.4-3.8,1.6-5.4-0.8-7.3c-2.4-1.9-8.5-1.1-12.6-1.2
						c-4.2-0.1-11-0.1-12.6,0.3c-1.7,0.4-0.7,3.1-0.1,5.2c0.6,2.1-2,4.5-2.5,6.7c-0.1,0.6-0.1,1.6,0,2.6h-1.7
						c-0.2-2.7-0.2-5.2-0.2-7.2c0.1-3.5,2-6.8,5.1-8.5c8.3-4.7,17.1-3,22.9-0.7c4,1.5,6.6,5.5,6.4,9.8
						C141,276.4,140.8,278.7,140.6,281z"/>
					<g>
						<g>
							<path class="st12" d="M126,282.4c0-3,2.4-5.4,5.4-5.4c3,0,5.4,2.4,5.4,5.4c0,3-2.4,5.4-5.4,5.4
								C128.4,287.8,126,285.3,126,282.4z M126.8,282.4c0,2.5,2.1,4.6,4.6,4.6c2.5,0,4.6-2.1,4.6-4.6c0-2.5-2.1-4.6-4.6-4.6
								C128.8,277.8,126.8,279.8,126.8,282.4z"/>
						</g>
						<g>
							<path class="st12" d="M111.1,282.4c0-3,2.4-5.4,5.4-5.4c3,0,5.4,2.4,5.4,5.4c0,3-2.4,5.4-5.4,5.4
								C113.6,287.8,111.1,285.3,111.1,282.4z M112,282.4c0,2.5,2.1,4.6,4.6,4.6c2.5,0,4.6-2.1,4.6-4.6c0-2.5-2.1-4.6-4.6-4.6
								C114,277.8,112,279.8,112,282.4z"/>
						</g>
						<g>
							<path class="st12" d="M135.9,280.6c0.1,0,0.2,0,0.3-0.1l0,0c0,0,2.5-2.4,5.7-1.7c0.2,0.1,0.5-0.1,0.5-0.3
								c0.1-0.2-0.1-0.5-0.3-0.5c-3.7-0.9-6.4,1.8-6.5,1.9c-0.2,0.2-0.2,0.4,0,0.6C135.7,280.6,135.8,280.6,135.9,280.6z"/>
						</g>
						<g>
							<path class="st12" d="M112,280.6c0.1,0,0.3-0.1,0.4-0.2c0.1-0.2,0.1-0.5-0.1-0.6c-0.2-0.1-4-2.6-7.3-2
								c-0.2,0-0.4,0.3-0.3,0.5c0,0.2,0.3,0.4,0.5,0.3c2.9-0.5,6.6,1.9,6.7,1.9C111.8,280.6,111.9,280.6,112,280.6z"/>
						</g>
						<g>
							<path class="st12" d="M121.7,281.1c0,0,1-1.4,2.3-1.4c1.3,0,2.2,1.4,2.2,1.4l0.7-0.5c0-0.1-1.2-1.8-2.9-1.8
								c-1.8,0-3,1.6-3,1.7L121.7,281.1z"/>
						</g>
					</g>
				</g>
			</g>
		</g>
	</g>
	<g>
		<g>
			<path class="st13" d="M422,415.2h-98c-2.9,0-5.2-2.3-5.2-5.2V273.3c0-2.9,2.3-5.2,5.2-5.2h98c2.9,0,5.2,2.3,5.2,5.2V410
				C427.3,412.9,424.9,415.2,422,415.2z"/>
			<path class="st12" d="M420.5,279.1v125.2c0,2.3-1.9,4.2-4.2,4.2h-86.5c-2.3,0-4.2-1.9-4.2-4.2V279.1c0-2.3,1.9-4.2,4.2-4.2h86.5
				C418.6,274.9,420.5,276.8,420.5,279.1z"/>
			<g>
				<g>
					<path class="st2" d="M385.1,301.3h28.7c1.3,0,2.4-1.1,2.4-2.4l0,0c0-1.3-1.1-2.4-2.4-2.4h-28.7c-1.3,0-2.4,1.1-2.4,2.4l0,0
						C382.7,300.2,383.8,301.3,385.1,301.3z"/>
					<path class="st2" d="M385.1,311.1h28.7c1.3,0,2.4-1.1,2.4-2.4l0,0c0-1.3-1.1-2.4-2.4-2.4h-28.7c-1.3,0-2.4,1.1-2.4,2.4l0,0
						C382.7,310.1,383.8,311.1,385.1,311.1z"/>
					<path class="st2" d="M385.1,321h28.7c1.3,0,2.4-1.1,2.4-2.4l0,0c0-1.3-1.1-2.4-2.4-2.4h-28.7c-1.3,0-2.4,1.1-2.4,2.4l0,0
						C382.7,319.9,383.8,321,385.1,321z"/>
					<path class="st2" d="M385.1,330.8h28.7c1.3,0,2.4-1.1,2.4-2.4v0c0-1.3-1.1-2.4-2.4-2.4h-28.7c-1.3,0-2.4,1.1-2.4,2.4v0
						C382.7,329.8,383.8,330.8,385.1,330.8z"/>
				</g>
				<g>
					<path class="st2" d="M333.5,331.4h28.7c1.3,0,2.4-1.1,2.4-2.4l0,0c0-1.3-1.1-2.4-2.4-2.4h-28.7c-1.3,0-2.4,1.1-2.4,2.4l0,0
						C331.1,330.3,332.2,331.4,333.5,331.4z"/>
					<path class="st2" d="M333.5,341.2h28.7c1.3,0,2.4-1.1,2.4-2.4l0,0c0-1.3-1.1-2.4-2.4-2.4h-28.7c-1.3,0-2.4,1.1-2.4,2.4l0,0
						C331.1,340.1,332.2,341.2,333.5,341.2z"/>
					<path class="st2" d="M333.5,351h28.7c1.3,0,2.4-1.1,2.4-2.4l0,0c0-1.3-1.1-2.4-2.4-2.4h-28.7c-1.3,0-2.4,1.1-2.4,2.4l0,0
						C331.1,350,332.2,351,333.5,351z"/>
					<path class="st2" d="M333.5,360.9h28.7c1.3,0,2.4-1.1,2.4-2.4l0,0c0-1.3-1.1-2.4-2.4-2.4h-28.7c-1.3,0-2.4,1.1-2.4,2.4l0,0
						C331.1,359.8,332.2,360.9,333.5,360.9z"/>
				</g>
			</g>
			<g>
				<path class="st2" d="M420.5,279.1v9.8h-94.9v-9.8c0-2.3,1.9-4.2,4.2-4.2h86.5C418.6,274.9,420.5,276.8,420.5,279.1z"/>
				<path class="st12" d="M408.6,280.5h-54.4c-0.9,0-1.7,0.6-1.9,1.6c-0.2,1.1,0.7,2.1,1.8,2.1h54.5c1,0,1.8-0.8,1.8-1.8l0,0
					C410.4,281.3,409.6,280.5,408.6,280.5z"/>
				<path class="st15" d="M335.4,282.3v1.4c0,0.4-0.4,0.6-0.8,0.4l-1.2-0.7l-1.2-0.7c-0.3-0.2-0.3-0.7,0-0.9l1.2-0.7l1.2-0.7
					c0.3-0.2,0.8,0,0.8,0.4V282.3z"/>
				<path class="st15" d="M341.5,282.3v1.4c0,0.4,0.4,0.6,0.8,0.4l1.2-0.7l1.2-0.7c0.3-0.2,0.3-0.7,0-0.9l-1.2-0.7l-1.2-0.7
					c-0.3-0.2-0.8,0-0.8,0.4V282.3z"/>
			</g>
		</g>
		<g>
			<path class="st8" d="M335.7,366.3l6.2-48.3c0,0,4.4-2.6,10.3,1.3c0,0-2.7,45-5.3,60.6c-1.2,7.1-4.8,19.7-7.9,28.7l-9.8,0
				c1.7-11.5,2.5-25.8,4.2-31.7c0,0,0.4-2.2,1.4-5L335.7,366.3z"/>
			<path class="st8" d="M410.1,366.3l-4-46.3c0,0-6.6,0-12.6-0.8c0,0,2.7,45,5.3,60.6c1.2,7.1,4.8,19.7,7.9,28.7l9.8,0
				c-1.7-11.5-2.5-25.8-4.2-31.7c0,0-0.4-2.2-1.4-5L410.1,366.3z"/>
			<path class="st10" d="M374.4,260.2c0,0,0.6-12-6.7-14.3c-11.3-3.6-14.5,2.3-16.3,6.2c-2.2,5-1.3,14.8,5.5,15.7
				C367,269.2,373.8,263.5,374.4,260.2z"/>
			<path class="st10" d="M381.7,300.2c5.9,0,11-4.1,12.2-9.9c0.9-4.2,1.7-7.8,1.7-9.9v-0.1c0.1-0.7,0.1-1.3,0.1-2
				c0.1-9.5-5.7-26.7-26.2-24c0,0-17,1.9-18.9,18.6c0,0-0.8,7.7-1.3,13.2c0,0.1,0,0.2,0,0.3c-0.7,7.3,5,13.7,12.4,13.7H381.7z"/>
			<g>
				<g>
					<path class="st4" d="M343.4,330c0.2,1.3,0.4,2.7,0.6,4.1c0.6,3.7,1.3,7.9,2.2,12.6c0.3,1.4,0.5,2.8,0.8,4.2
						c0.8,4,1.7,8.2,2.7,12.6c0.3,1.4,0.7,2.8,1,4.2c0.7,2.8,1.4,5.7,2.2,8.7c-0.1,1.2-0.2,2.4-0.4,3.8c-0.2,1.3-0.4,2.6-0.6,4
						c-0.4,2.1-0.8,4.3-1.3,6.6c-0.4,1.7-0.8,3.5-1.2,5.3c-0.3,1.3-0.6,2.6-0.9,3.9c-0.7,2.7-1.3,5.5-2,8.3h53.7l-1.9-8.3l-0.9-3.9
						l-1.3-5.6l-1.4-6.2l-0.9-3.9l-0.5-2l2.3-10.6l0.9-4.2l2.8-12.7l0.9-4.2l2.8-12.8l0.9-4.2l2.1-9.7l-5.4-1.9l-8.1-2.9l-0.2-0.1
						l-4.5-1.6l-0.7-0.3l-6.2-1.8c0,0-3.5,1.7-15.7-0.9c0,0-2.7,0.5-6.3,1.3c-0.4,0.1-0.8,0.2-1.2,0.3c-2.7,0.7-5.8,1.5-8.7,2.5
						c-2.7,0.9-5.1,1.9-6.6,3c-0.1,0.1-0.3,0.2-0.4,0.3c0,0,0.2,3,0.9,8.2C343,327.3,343.2,328.6,343.4,330z"/>
					<path class="st8" d="M387.8,313.6c-1.3,7.7-5,15.4-12.7,16.2c-9.3,1-14.2-10.7-16.3-17.9c3.6-0.8,7.3-1.7,7.3-1.7
						c12.2,2.6,14.6,1,14.6,1l6.3,2.1L387.8,313.6z"/>
					<g>
						<path class="st12" d="M374.1,323.3c-9.8,0-12.1-12.1-12.1-12.2c0-0.3,0.1-0.5,0.4-0.6c0.3,0,0.5,0.1,0.6,0.4
							c0.1,0.5,2.3,11.9,11.7,11.4c8.3-0.4,8.8-9.6,8.8-10c0-0.3,0.2-0.5,0.5-0.5c0.3,0,0.5,0.2,0.5,0.5c0,0.1-0.5,10.4-9.7,10.9
							C374.5,323.3,374.3,323.3,374.1,323.3z"/>
					</g>
					<circle class="st5" cx="354.2" cy="320" r="2.4"/>
					<circle class="st5" cx="349.4" cy="331.6" r="2.4"/>
					<circle class="st5" cx="364.6" cy="337.1" r="2.4"/>
					<circle class="st5" cx="354.2" cy="344.5" r="2.4"/>
					<circle class="st5" cx="374.7" cy="348" r="2.4"/>
					<circle class="st5" cx="389.9" cy="352.9" r="2.4"/>
					<circle class="st5" cx="392.9" cy="322.4" r="2.4"/>
					<circle class="st5" cx="375.6" cy="363.3" r="2.4"/>
					<circle class="st5" cx="360.9" cy="370.7" r="2.4"/>
					<circle class="st5" cx="359.2" cy="357.2" r="2.4"/>
					<circle class="st5" cx="382.7" cy="337.7" r="2.4"/>
					<circle class="st5" cx="395.9" cy="334.7" r="2.4"/>
					<circle class="st5" cx="387.5" cy="367.2" r="2.4"/>
					<circle class="st5" cx="388.1" cy="386.1" r="2.4"/>
					<circle class="st5" cx="376.2" cy="379.1" r="2.4"/>
					<circle class="st5" cx="359.9" cy="386.1" r="2.4"/>
				</g>
				<g>
					<g>
						<path class="st10" d="M400.2,408.4l-0.3-1.1l-1.6-7.2l-0.6-2.6l-0.3-1.3l-0.1-0.6l-1.1-5.1c-18,5.3-37.1,2.2-45.5,0.3
							c-0.4,1.7-0.8,3.5-1.2,5.3c-0.1,0.4-0.2,0.8-0.3,1.2c-0.2,0.6-0.3,1.2-0.5,1.9c-0.1,0.3-0.1,0.6-0.2,0.9
							c-0.6,2.8-1.3,5.6-2,8.3H400.2z"/>
					</g>
				</g>
			</g>
			<g>
				<g>
					<g>
						<path class="st9" d="M388.7,281.5c0,0,2.9-3.7,5.1-0.6c2.2,3.1-0.9,12.1-6.2,9.9L388.7,281.5z"/>
						<g>
							<path class="st11" d="M388.7,288c0.2,0,0.4-0.1,0.4-0.3c0.8-2.8,3.9-3.9,3.9-3.9c0.2-0.1,0.3-0.3,0.3-0.6
								c-0.1-0.2-0.3-0.3-0.6-0.2c-0.1,0.1-3.5,1.3-4.5,4.5c-0.1,0.2,0.1,0.5,0.3,0.5C388.6,288,388.7,288,388.7,288z"/>
						</g>
						<g>
							<path class="st11" d="M391.8,286.6c0.1,0,0.2,0,0.2-0.1c0.2-0.1,0.3-0.4,0.1-0.6c0,0-0.6-0.8-1.7-1.3c-0.2-0.1-0.5,0-0.6,0.2
								c-0.1,0.2,0,0.5,0.2,0.6c0.9,0.4,1.3,1,1.3,1C391.5,286.5,391.6,286.6,391.8,286.6z"/>
						</g>
						<g>
							<path class="st12" d="M387.3,290.7c-0.5,0.6-0.8,1.3-0.8,2.1c0,1.7,1.4,3.2,3.2,3.2s3.2-1.4,3.2-3.2c0-1-0.5-1.9-1.2-2.5
								c-0.4-0.3-0.8-0.5-1.3-0.6c-0.1-0.2,0-0.4,0.1-0.6c0.6,0.1,1.2,0.4,1.6,0.8c0.8,0.7,1.4,1.7,1.4,2.9c0,2.1-1.7,3.8-3.8,3.8
								c-2.1,0-3.8-1.7-3.8-3.8c0-0.9,0.3-1.7,0.8-2.4C387,290.6,387.2,290.6,387.3,290.7z"/>
						</g>
					</g>
					<path class="st8" d="M366.1,300.5v11.1c0,0,5.2,4,9.2,4.3c4,0.4,5.4-4.4,5.4-4.4v-10.3L366.1,300.5z"/>
					<path class="st9" d="M366.1,301.6v4.4c2.7,3,7.5,4.1,14.6,3l0-6.7L366.1,301.6z"/>
					<path class="st8" d="M390.4,285.7c-0.1,1.1-0.3,2.2-0.5,3.3c-1.3,7.2-5.8,15-11.6,16.3c-12.5,2.8-17.6-7-19.6-14.2
						c-0.2-0.8,0.2-1.7,0-2.7c-0.4-2.3-1.3-4.8-1.5-7.3c-0.1-1.7-0.2-3.5-0.3-5c-0.2-4.4,2.3-8.4,6.3-10c5.7-2.3,14.4-4.1,22.7,0.8
						c3,1.8,5,5.1,5,8.7C390.9,278.3,390.9,282,390.4,285.7z"/>
					<g>
						<path class="st9" d="M374.6,291.3c-0.2,0-0.4-0.2-0.5-0.4c0-0.3,0.1-0.5,0.4-0.6l1.7-0.3l-2.3-6.1c-0.1-0.3,0-0.5,0.3-0.6
							c0.3-0.1,0.5,0,0.6,0.3l2.7,7.2L374.6,291.3C374.7,291.3,374.6,291.3,374.6,291.3z"/>
					</g>
					<ellipse class="st10" cx="381.8" cy="283.3" rx="1.2" ry="1.9"/>
					<ellipse class="st10" cx="368.2" cy="283.3" rx="1.2" ry="1.9"/>
					<path class="st10" d="M385.4,278.2c-1-0.2-3-0.5-5.1-0.4c-0.6,0-1,0.4-0.9,0.9l0,0c0.1,0.4,0.4,0.6,0.9,0.6
						c1.4-0.1,5.2-0.1,7,0.4c0-0.3-0.1-0.5-0.4-0.8C386.5,278.5,386,278.3,385.4,278.2z"/>
					<path class="st10" d="M365.7,278.4c1-0.2,3-0.6,5.1-0.5c0.6,0,1,0.4,0.9,0.9l0,0c-0.1,0.4-0.4,0.6-0.9,0.6
						c-1.5-0.1-5.2,0-7,0.5c-0.1-0.3,0.1-0.5,0.4-0.8C364.6,278.8,365.1,278.5,365.7,278.4z"/>
					<path class="st12" d="M380.6,294.2c-0.4,1.7-1.6,4.8-5.6,4.8c-4,0-5.2-2.9-5.5-4.8H380.6z"/>
					<g>
						<path class="st9" d="M375.1,301.9c1.2,0,2.2-0.6,2.2-0.7c0.2-0.1,0.3-0.4,0.2-0.7c-0.1-0.2-0.4-0.3-0.7-0.2l0,0
							c0,0-0.8,0.5-1.7,0.5c-1,0-1.8-0.5-1.8-0.5c-0.2-0.1-0.5-0.1-0.7,0.2c-0.1,0.2-0.1,0.5,0.2,0.7
							C372.8,301.3,373.8,301.9,375.1,301.9z"/>
					</g>
					<path class="st10" d="M390.9,284.6c-0.1,0.1-0.2,0.1-0.3-0.1c-1.6-2.9-0.1-8.7-5-10.9c-3.7-1.7-5-5.2-5-5.2
						c-0.8,1.5-3.1,2.8-3.1,2.8s-5.6,3.3-11.4,5.6c-1.7,0.7-3,1.3-3.8,1.9c0.1,0,0.1,0,0.1,0s-1.6,2.6-0.4,6.7
						c1.2,4.1-0.3,10.8-3,12.3c0-0.1,2-4.8,0.9-8.5c-0.6-2.2-0.6-5.6-1.2-7.7c-0.7-0.5-2.2-1.2-2.7-1.6c-0.1-1.8-0.3-3.5-0.3-5.1
						c-0.2-4.5,2.5-8.6,6.7-10.2c6-2.3,15.2-4.2,23.9,0.8c3.2,1.8,5.2,5.2,5.3,8.9C391.5,277.1,391.4,280.7,390.9,284.6z"/>
				</g>
				<g>
					<path class="st8" d="M358.6,281.5c0,0-3.4-4.1-5.4-1.2c-2,3,1,12.1,5.9,10L358.6,281.5z"/>
					<g>
						<path class="st12" d="M358.8,290.4c0.4,0.7,0.5,1.5,0.3,2.2c-0.4,1.7-2.2,2.7-3.8,2.3c-1.7-0.4-2.7-2.2-2.3-3.8
							c0.2-1,0.9-1.7,1.8-2.1c0.4-0.2,0.9-0.3,1.4-0.3c0.1-0.2,0.1-0.4,0-0.6c-0.6,0-1.2,0.1-1.8,0.4c-1,0.5-1.7,1.4-2,2.5
							c-0.5,2,0.7,4.1,2.8,4.6c2,0.5,4.1-0.7,4.6-2.8c0.2-0.9,0.1-1.7-0.2-2.5C359.2,290.4,359,290.4,358.8,290.4z"/>
					</g>
					<g>
						<path class="st9" d="M357.9,287.2c-0.2,0-0.3-0.1-0.4-0.3c-0.8-2.7-3.6-3.8-3.6-3.8c-0.2-0.1-0.3-0.3-0.2-0.5
							c0.1-0.2,0.3-0.3,0.5-0.2c0.1,0,3.2,1.3,4.1,4.4c0.1,0.2-0.1,0.5-0.3,0.5C358,287.2,357.9,287.2,357.9,287.2z"/>
					</g>
					<g>
						<g>
							<path class="st9" d="M355.1,285.9c-0.1,0-0.2,0-0.2-0.1c-0.2-0.1-0.2-0.4-0.1-0.6c0,0,0.5-0.8,1.6-1.3c0.2-0.1,0.5,0,0.5,0.2
								c0.1,0.2,0,0.5-0.2,0.5c-0.8,0.4-1.2,0.9-1.2,0.9C355.3,285.8,355.2,285.9,355.1,285.9z"/>
						</g>
					</g>
				</g>
			</g>
		</g>
	</g>
</g>
<g id="DESIGNED_BY_FREEPIK" class="st0">
	<g class="st18">
		<g id="XMLID_1_">
			<g id="XMLID_20_">
				<path id="XMLID_28_" class="st19" d="M260.1,465.5c-0.4,0.4-0.8,0.9-1.1,1.5l-0.5-0.2c-0.1-0.3-0.3-0.5-0.7-0.5
					c-0.3,0-0.6,0.3-0.5,0.7c0,0.3,0.3,0.6,0.7,0.5c0.1,0,0.1,0,0.2-0.1l0.5,0.2c-0.3,0.6-0.4,1.1-0.5,1.7l0.7,0.1
					c0.2-1.3,0.8-2.5,1.8-3.5L260.1,465.5z"/>
				<path id="XMLID_27_" class="st19" d="M265.6,463.2c-0.2,0-0.3,0-0.5,0l-0.1-0.6c0.2-0.1,0.3-0.4,0.3-0.6c0-0.4-0.4-0.7-0.8-0.6
					c-0.4,0-0.7,0.4-0.6,0.8c0,0.3,0.2,0.5,0.4,0.6l0.1,0.6c-0.7,0.1-1.4,0.3-2.1,0.6l0.3,0.7c0.9-0.4,1.9-0.7,3-0.7
					c0.5,0,1,0.1,1.5,0.2l0.2-0.7C266.7,463.2,266.1,463.2,265.6,463.2z"/>
				<path id="XMLID_26_" class="st19" d="M272.2,465.7c0.3,0,0.6-0.3,0.5-0.7c0-0.3-0.3-0.6-0.7-0.5c-0.3,0-0.5,0.3-0.5,0.6
					l-0.4,0.4c-0.4-0.4-0.9-0.8-1.4-1.1l-0.4,0.6c1.1,0.7,2,1.7,2.6,2.9l0.7-0.3c-0.3-0.6-0.6-1.1-0.9-1.5l0.4-0.4
					C272.1,465.7,272.1,465.7,272.2,465.7z"/>
				<path id="XMLID_25_" class="st19" d="M265,473.4c-0.4,0-0.8,0-1.2,0c-0.9,0-1.7-0.1-2.5-0.2c-0.4-0.1-0.8-0.2-1.3-0.3
					c1,1.9,3.1,3.1,5.4,3.1c2.9,0,5.3-1.9,5.9-4.5c-0.7,0.4-1.5,0.8-2.5,1.1C267.8,473,266.5,473.3,265,473.4z"/>
				<path id="XMLID_21_" class="st19" d="M265.6,464.7c-3.4,0-6.1,2.7-6.1,5.9c0,0.4,0,0.8,0.1,1.3c0.7,0.5,2.7,0.9,5.3,0.7
					c2.9-0.2,5.3-1,6.7-2.2c0-0.2,0-0.4,0-0.6C271.2,466.9,268.7,464.7,265.6,464.7z M263.4,471.2c-1,0-1.8-0.8-1.8-1.8
					c0-1,0.8-1.8,1.8-1.8c1,0,1.8,0.8,1.8,1.8C265.3,470.4,264.5,471.2,263.4,471.2z M268.2,470.3c-0.8,0-1.4-0.6-1.4-1.4
					s0.6-1.4,1.4-1.4c0.8,0,1.4,0.6,1.4,1.4S268.9,470.3,268.2,470.3z"/>
			</g>
			<path id="XMLID_18_" class="st19" d="M281.6,466.5c-0.3-0.1-0.8-0.3-1.4-0.2c-0.6,0.1-0.8,0.3-0.8,1v0.9h2.2v1.7h-2.2v5.5h-1.9
				v-5.5h-1.3v-1.7h1.3v-0.9c0-1.7,0.9-2.8,2.6-2.8c0.6,0,1.2,0.1,1.6,0.3L281.6,466.5z"/>
			<path id="XMLID_16_" class="st19" d="M286.3,469.9c-0.2,0-0.4,0-0.5,0c-0.9,0-1.5,0.5-1.5,1.6v3.9h-1.9v-7.2h1.9v0.8
				c0.5-0.7,1.1-1,2-1c0.4,0,0.8,0.1,1.1,0.3L286.3,469.9z"/>
			<path id="XMLID_13_" class="st19" d="M294,471.8c0,0.2,0,0.5,0,0.7h-5.1c0.2,1,0.9,1.5,1.8,1.5c0.6,0,1.3-0.3,1.8-0.7l1.1,1.2
				c-0.8,0.7-1.9,1.1-3.1,1.1c-2.2,0-3.7-1.5-3.7-3.8c0-2.3,1.5-3.8,3.6-3.8C292.5,468,294,469.5,294,471.8z M288.9,471.1h3.2
				c-0.2-0.9-0.7-1.4-1.6-1.4C289.6,469.7,289,470.2,288.9,471.1z"/>
			<path id="XMLID_10_" class="st19" d="M301.6,471.8c0,0.2,0,0.5,0,0.7h-5.1c0.2,1,0.9,1.5,1.8,1.5c0.6,0,1.3-0.3,1.8-0.7l1.1,1.2
				c-0.8,0.7-1.9,1.1-3.1,1.1c-2.2,0-3.7-1.5-3.7-3.8c0-2.3,1.5-3.8,3.6-3.8C300.2,468,301.6,469.5,301.6,471.8z M296.5,471.1h3.2
				c-0.2-0.9-0.7-1.4-1.6-1.4C297.2,469.7,296.7,470.2,296.5,471.1z"/>
			<path id="XMLID_7_" class="st19" d="M310,471.8c0,2.2-1.5,3.8-3.5,3.8c-1,0-1.6-0.4-2.1-0.9v3.7h-1.9v-10.1h1.9v0.8
				c0.5-0.6,1.2-1,2.1-1C308.5,468,310,469.6,310,471.8z M304.3,471.8c0,1.1,0.7,2,1.8,2c1.1,0,1.9-0.9,1.9-2c0-1.1-0.7-2-1.9-2
				C305,469.8,304.3,470.6,304.3,471.8z"/>
			<path id="XMLID_4_" class="st19" d="M313.1,465.8c0,0.7-0.5,1.2-1.2,1.2c-0.7,0-1.2-0.5-1.2-1.2c0-0.7,0.5-1.2,1.2-1.2
				C312.5,464.6,313.1,465.1,313.1,465.8z M312.8,475.4h-1.9v-7.2h1.9V475.4z"/>
			<path id="XMLID_2_" class="st19" d="M316,470.7l2.7-2.6h2.4l-3.5,3.4l3.5,3.8h-2.4l-2.7-2.9v2.9h-1.9v-10.7h1.9V470.7z"/>
		</g>
		<g>
			<path class="st19" d="M184.4,475.3v-1.1c-0.5,0.7-1.4,1.2-2.4,1.2c-1.8,0-3.1-1.4-3.1-3.7c0-2.3,1.3-3.7,3.1-3.7
				c1,0,1.8,0.5,2.4,1.2v-3.8h1.1v9.8H184.4z M184.4,473.4v-3.2c-0.4-0.6-1.2-1.1-2.1-1.1c-1.4,0-2.3,1.2-2.3,2.7
				c0,1.6,0.8,2.7,2.3,2.7C183.2,474.5,184,474,184.4,473.4z"/>
			<path class="st19" d="M186.9,471.7c0-2.1,1.5-3.7,3.5-3.7c2.1,0,3.4,1.7,3.4,3.8v0.3h-5.7c0.1,1.3,1,2.4,2.5,2.4
				c0.8,0,1.6-0.3,2.2-0.9l0.5,0.7c-0.7,0.7-1.7,1.1-2.8,1.1C188.4,475.5,186.9,474,186.9,471.7z M190.4,468.9
				c-1.5,0-2.3,1.3-2.3,2.4h4.6C192.7,470.3,192,468.9,190.4,468.9z"/>
			<path class="st19" d="M194.6,474.4l0.6-0.8c0.5,0.5,1.4,1,2.3,1c1.1,0,1.7-0.5,1.7-1.2c0-1.7-4.4-0.7-4.4-3.3c0-1.1,1-2,2.6-2
				c1.2,0,2.1,0.5,2.6,1l-0.5,0.8c-0.4-0.5-1.2-0.9-2.1-0.9c-1,0-1.6,0.5-1.6,1.1c0,1.6,4.4,0.5,4.4,3.3c0,1.2-1,2.1-2.8,2.1
				C196.3,475.5,195.3,475.1,194.6,474.4z"/>
			<path class="st19" d="M201.5,466.5c0-0.4,0.3-0.7,0.7-0.7c0.4,0,0.7,0.3,0.7,0.7c0,0.4-0.3,0.7-0.7,0.7
				C201.8,467.2,201.5,466.9,201.5,466.5z M201.7,475.3v-7.1h1.1v7.1H201.7z"/>
			<path class="st19" d="M204.6,477.1l0.6-0.8c0.6,0.7,1.3,1,2.3,1c1.2,0,2.3-0.6,2.3-2.1v-1c-0.5,0.7-1.4,1.3-2.4,1.3
				c-1.8,0-3.1-1.4-3.1-3.7c0-2.3,1.3-3.7,3.1-3.7c1,0,1.8,0.5,2.4,1.2v-1.1h1.1v6.9c0,2.3-1.6,3.1-3.4,3.1
				C206.2,478.2,205.4,477.9,204.6,477.1z M209.7,473.3v-3.1c-0.4-0.6-1.2-1.1-2.1-1.1c-1.4,0-2.3,1.1-2.3,2.7
				c0,1.6,0.8,2.7,2.3,2.7C208.5,474.4,209.3,473.9,209.7,473.3z"/>
			<path class="st19" d="M217.4,475.3v-4.6c0-1.2-0.6-1.6-1.6-1.6c-0.9,0-1.7,0.5-2.1,1.1v5.2h-1.1v-7.1h1.1v1
				c0.5-0.6,1.5-1.2,2.5-1.2c1.5,0,2.3,0.7,2.3,2.3v5H217.4z"/>
			<path class="st19" d="M219.9,471.7c0-2.1,1.5-3.7,3.5-3.7c2.1,0,3.4,1.7,3.4,3.8v0.3h-5.7c0.1,1.3,1,2.4,2.5,2.4
				c0.8,0,1.6-0.3,2.2-0.9l0.5,0.7c-0.7,0.7-1.7,1.1-2.8,1.1C221.4,475.5,219.9,474,219.9,471.7z M223.4,468.9
				c-1.5,0-2.3,1.3-2.3,2.4h4.6C225.7,470.3,225,468.9,223.4,468.9z"/>
			<path class="st19" d="M233.4,475.3v-1.1c-0.5,0.7-1.4,1.2-2.4,1.2c-1.8,0-3.1-1.4-3.1-3.7c0-2.3,1.3-3.7,3.1-3.7
				c1,0,1.8,0.5,2.4,1.2v-3.8h1.1v9.8H233.4z M233.4,473.4v-3.2c-0.4-0.6-1.2-1.1-2.1-1.1c-1.4,0-2.3,1.2-2.3,2.7
				c0,1.6,0.8,2.7,2.3,2.7C232.1,474.5,233,474,233.4,473.4z"/>
			<path class="st19" d="M239.7,475.3v-9.8h1.1v3.8c0.6-0.8,1.4-1.2,2.4-1.2c1.8,0,3.1,1.5,3.1,3.7c0,2.3-1.3,3.7-3.1,3.7
				c-1,0-1.9-0.5-2.4-1.2v1.1H239.7z M242.9,474.5c1.4,0,2.3-1.2,2.3-2.7c0-1.6-0.8-2.7-2.3-2.7c-0.9,0-1.7,0.5-2.1,1.1v3.2
				C241.2,474,242,474.5,242.9,474.5z"/>
			<path class="st19" d="M247.5,477.1c0.2,0.1,0.4,0.1,0.6,0.1c0.5,0,0.8-0.2,1.1-0.7l0.5-1.1l-3-7.1h1.2l2.4,5.8l2.3-5.8h1.2
				l-3.5,8.5c-0.4,1-1.1,1.4-2.1,1.4c-0.2,0-0.6,0-0.8-0.1L247.5,477.1z"/>
		</g>
	</g>
</g>
</svg>
