<svg width="62" height="58" viewBox="0 0 62 58" fill="none" xmlns="http://www.w3.org/2000/svg">
<path d="M62 44.3273C61.4948 45.6905 60.5741 46.4899 59.0281 46.4763C58.922 46.4763 58.7806 46.6324 58.7124 46.7483C58.6069 46.9342 58.5779 47.1672 58.4699 47.3537C58.0335 48.1079 57.8908 48.7226 58.5962 49.5226C59.347 50.3709 59.1203 51.7292 58.3335 52.5868C57.7663 53.2053 57.1677 53.7953 56.54 54.3547C55.4664 55.3078 53.9161 55.2985 52.8646 54.3175C52.5407 54.0151 52.2862 53.9643 51.9388 54.1936C51.9217 54.2041 51.9029 54.2118 51.8833 54.2165C50.8804 54.5096 50.1498 54.8982 50.0355 56.1648C49.9382 57.2417 48.7257 57.9575 47.5726 57.9872C46.8262 58.0064 46.0791 58.0008 45.3327 57.9909C43.817 57.9711 42.6765 56.9592 42.5843 55.4639C42.5528 54.9533 42.3469 54.7897 41.9042 54.6088C41.0037 54.237 40.2699 53.8516 39.3049 54.7098C38.5061 55.4199 37.1363 55.1274 36.2958 54.3783C35.6661 53.8214 35.0655 53.2339 34.496 52.6178C33.526 51.5563 33.5374 50.0518 34.5434 49.0157C34.8534 48.6953 34.8913 48.458 34.6646 48.1041C34.5169 47.8724 34.4291 47.6016 34.3249 47.3444C33.9681 46.4626 33.9681 46.462 32.9779 46.462C29.9504 46.462 26.923 46.462 23.8956 46.462C23.0992 46.462 22.5877 46.0599 22.5157 45.4135C22.4292 44.6334 22.9578 44.0837 23.833 44.0806C25.9113 44.072 27.9902 44.0775 30.0692 44.0775H30.7935C30.7935 43.3129 30.7903 42.6064 30.7935 41.9C30.8036 40.0912 31.7711 39.083 33.6081 38.9176C33.79 38.9015 34.0319 38.7255 34.1133 38.5606C34.3887 37.9918 34.6046 37.3951 34.8579 36.7741C34.7316 36.6366 34.5787 36.4817 34.4367 36.3181C33.5184 35.2572 33.5342 33.7663 34.4998 32.7451C35.0208 32.1936 35.5696 31.6662 36.1221 31.1451C37.2393 30.0917 38.794 30.057 39.9339 31.0912C40.2427 31.3713 40.4795 31.4382 40.818 31.1996C40.9336 31.1192 41.0637 31.061 41.2013 31.028C42.0791 30.8154 42.5862 30.4238 42.6658 29.392C42.7485 28.3262 43.7848 27.5361 44.8868 27.4432C45.7503 27.3762 46.6171 27.3624 47.4823 27.4017C49.0396 27.4636 50.0715 28.4495 50.1801 29.982C50.2085 30.3804 50.326 30.5694 50.7213 30.6853C51.2006 30.826 51.6446 31.0806 52.1201 31.2393C52.2855 31.2944 52.571 31.282 52.679 31.1773C53.3408 30.5391 54.1239 30.2608 55.085 30.3129V18.2833H2.43382V18.9321C2.43382 25.8438 2.42119 32.7556 2.45277 39.6674C2.45444 40.4361 2.60044 41.198 2.88346 41.9149C3.46697 43.3451 4.56516 44.1166 6.21591 44.0837C8.35419 44.0428 10.4944 44.072 12.6333 44.0744C13.561 44.0744 14.1142 44.5318 14.1053 45.2741C14.0965 46.0165 13.537 46.4589 12.6074 46.4602C10.5285 46.4602 8.44639 46.3852 6.3719 46.4775C2.66306 46.6423 0.568987 43.8563 0.115565 41.2674C0.0849808 41.1361 0.0463895 41.0068 0 40.8801V5.5894C0.0410479 5.44006 0.0947258 5.2932 0.122512 5.142C0.680132 2.09447 3.02744 0.00743591 5.93553 0.00619658C21.1851 0.00206546 36.4347 0 51.6843 0C53.2631 0 54.5924 0.561418 55.678 1.6731C57.1014 3.1318 57.5933 4.91706 57.5908 6.8907C57.582 14.9866 57.5908 23.082 57.5763 31.1779C57.5763 31.7505 57.7215 32.1694 58.1447 32.5809C59.2997 33.7025 59.3022 35.2299 58.2217 36.411C58.115 36.5275 58.012 36.6465 57.9274 36.7413C58.1844 37.3579 58.4029 37.9546 58.6852 38.5191C58.7749 38.6982 59.0307 38.894 59.2233 38.9083C59.9116 38.9579 60.5734 39.0979 61.0407 39.5967C61.4234 40.0057 61.6823 40.5262 61.9956 40.9966L62 44.3273ZM55.1324 15.8046C55.1324 15.1471 55.1324 14.5547 55.1324 13.963C55.1254 11.3294 55.1734 8.69579 55.0945 6.0622C55.0256 3.77315 53.4728 2.39006 51.1621 2.39006H31.9687C23.3512 2.39006 14.7335 2.38716 6.1155 2.38138C4.70725 2.38138 3.66842 2.97006 3.08428 4.15983C2.72684 4.88484 2.48561 5.73688 2.46603 6.53811C2.39467 9.4871 2.43698 12.4392 2.43951 15.3901C2.4475 15.529 2.46353 15.6674 2.4875 15.8046H55.1324ZM37.7495 36.5015C37.5708 36.8981 37.4376 37.1831 37.3144 37.4694C36.9425 38.3413 36.5225 39.1977 36.2194 40.0925C35.898 41.0412 35.6012 41.325 34.5914 41.3318C33.2494 41.3442 33.2494 41.3442 33.2494 42.6573C33.2494 44.0602 33.2494 44.0602 34.7019 44.072C35.6138 44.0788 35.91 44.3607 36.2093 45.2171C36.533 46.1487 36.9162 47.0594 37.3567 47.9436C37.79 48.8112 37.7798 49.1941 37.0763 49.8906C36.1209 50.8356 36.1209 50.8356 37.101 51.7967C38.0811 52.7578 38.083 52.7609 39.0864 51.793C39.7741 51.13 40.1461 51.1232 41.0252 51.5495C41.887 51.9733 42.7776 52.3381 43.6907 52.6413C44.7687 52.9915 45.0062 53.2356 45.0119 54.3764C45.0182 55.757 44.8691 55.6052 46.285 55.6003C48.0292 55.5941 47.7917 55.8209 47.8107 54.136C47.8208 53.2684 48.0961 52.9902 48.9474 52.6977C49.913 52.3709 50.8587 51.9898 51.7797 51.5563C52.66 51.1331 53.0225 51.1325 53.7184 51.8042C54.7288 52.7746 54.7288 52.7746 55.7077 51.8097C56.6865 50.8449 56.6871 50.8449 55.6944 49.8559C55.0219 49.1861 55.0174 48.8149 55.4532 47.9529C55.8843 47.1069 56.2563 46.233 56.5665 45.3373C56.9208 44.3006 57.1519 44.0819 58.288 44.0806C59.6982 44.0806 59.5643 44.1971 59.5655 42.8475C59.5655 41.3758 59.5655 41.3758 58.1017 41.3405C57.2391 41.3194 56.9164 41.0213 56.6297 40.2158C56.3065 39.2829 55.925 38.3704 55.4873 37.4837C55.0042 36.5269 55.008 36.1997 55.7677 35.4388C56.8305 34.3736 56.8235 34.6821 55.755 33.6176C54.7446 32.61 54.7377 32.6162 53.6837 33.6101C53.0478 34.21 52.6247 34.2236 51.8378 33.8518C50.9193 33.4089 49.9739 33.0221 49.0068 32.6936C48.0393 32.3745 47.7576 32.0975 47.7488 31.0924C47.7381 29.8066 47.7381 29.8066 46.4277 29.8066C44.9708 29.8066 44.9708 29.8066 44.9493 31.2436C44.9367 32.1 44.6405 32.4024 43.8126 32.6887C42.8466 33.0207 41.9011 33.4076 40.9809 33.8475C40.148 34.2478 39.7344 34.2465 39.0826 33.6287C38.0407 32.641 38.0407 32.641 36.9987 33.6628C36.0893 34.5545 36.1026 34.5421 36.9772 35.4493C37.2816 35.7591 37.5001 36.1545 37.7495 36.5027V36.5015Z" fill="white"/>
<path d="M27.3126 31.1519C26.3452 30.083 25.4213 29.0674 24.5031 28.0468C23.9025 27.3794 23.8918 26.65 24.4652 26.1698C25.0171 25.7081 25.7282 25.8091 26.3174 26.4524C27.3674 27.5992 28.4123 28.7503 29.4522 29.9058C30.2049 30.7436 30.21 31.5485 29.4522 32.39C28.4026 33.5628 27.3451 34.7295 26.2795 35.8899C25.7111 36.5096 24.9533 36.5827 24.4197 36.0944C23.9006 35.6185 23.9082 34.9121 24.4576 34.2973C25.391 33.2625 26.3313 32.2332 27.3126 31.1519Z" fill="white"/>
<path d="M9.61089 31.1519C10.5436 32.1799 11.4423 33.1645 12.3333 34.1597C12.5171 34.3655 12.7059 34.5885 12.8082 34.8376C13.0198 35.3544 12.7861 35.9425 12.3093 36.2362C12.0666 36.3834 11.7789 36.4422 11.4965 36.4022C11.2141 36.3622 10.955 36.226 10.7647 36.0175C10.1331 35.3538 9.52375 34.6635 8.90613 33.9837C8.39651 33.4217 7.87804 32.8683 7.38231 32.2933C6.7508 31.5602 6.72996 30.7441 7.36021 30.0346C8.45861 28.7953 9.57132 27.5673 10.6983 26.3507C11.22 25.7855 11.9544 25.731 12.4722 26.1858C12.9901 26.6407 13.0198 27.3632 12.5196 27.937C12.0485 28.4799 11.5547 29.0029 11.0722 29.5351C10.6024 30.0538 10.1363 30.5706 9.61089 31.1519Z" fill="white"/>
<path d="M20.8776 26.3631C20.6452 27.318 20.3774 28.413 20.1122 29.5092C19.5763 31.7214 19.0405 33.9336 18.505 36.1458C18.4867 36.2227 18.4589 36.297 18.4349 36.3726C18.2145 37.0697 17.614 37.4446 16.9673 37.2891C16.308 37.1299 15.9177 36.5331 16.0832 35.8236C16.5833 33.6845 17.1094 31.5516 17.6285 29.4169C17.919 28.2246 18.1968 27.0293 18.5183 25.8451C18.5915 25.5633 18.7705 25.319 19.0194 25.1611C19.2684 25.0032 19.5689 24.9434 19.8609 24.9937C20.4753 25.1034 20.8921 25.6022 20.8776 26.3631Z" fill="white"/>
<path d="M18.3187 44.0775C19.0134 44.0775 19.5533 44.5949 19.5483 45.2691C19.548 45.4277 19.5154 45.5846 19.4526 45.7306C19.3897 45.8767 19.2978 46.0089 19.1821 46.1197C19.0665 46.2304 18.9295 46.3174 18.7792 46.3756C18.6289 46.4337 18.4683 46.4618 18.3067 46.4583C17.9913 46.4484 17.6914 46.322 17.4669 46.1044C17.2424 45.8868 17.11 45.594 17.0961 45.2846C17.0784 44.6278 17.6335 44.0812 18.3187 44.0775Z" fill="white"/>
<path d="M41.7514 13.1834C39.8954 13.1834 38.0381 13.2193 36.1834 13.1735C34.1279 13.1233 32.4973 11.5995 32.2415 9.57941C32.0022 7.69128 33.3006 5.82112 35.2286 5.3037C35.5571 5.20924 35.8968 5.15737 36.239 5.14941C39.9112 5.13949 43.5834 5.10913 47.2543 5.1587C49.2044 5.18535 50.7125 6.48107 51.1419 8.31219C51.5391 10.0064 50.7522 11.8356 49.1476 12.6387C48.4816 12.959 47.7548 13.1392 47.0137 13.1679C45.2619 13.2423 43.5045 13.1921 41.7495 13.1921L41.7514 13.1834ZM41.7647 7.54442C39.9693 7.54442 38.1745 7.52645 36.3798 7.55185C35.3656 7.56611 34.6514 8.27996 34.6646 9.18034C34.6785 10.0646 35.3719 10.7778 36.3508 10.784C39.9402 10.8057 43.531 10.8001 47.1211 10.784C47.8195 10.784 48.3626 10.45 48.6556 9.80806C49.1609 8.70134 48.3601 7.56673 47.0289 7.5469C45.272 7.52397 43.5196 7.5438 41.7647 7.54504V7.54442Z" fill="white"/>
<path d="M26.0383 9.1767C26.0331 10.2363 25.6027 11.2512 24.8403 12.0015C24.0779 12.7519 23.0448 13.1772 21.965 13.1853C19.7074 13.1946 17.8394 11.3641 17.8489 9.15129C17.859 6.95829 19.6967 5.15134 21.9303 5.14019C24.1873 5.12903 26.0439 6.95271 26.0383 9.1767ZM21.9474 7.55193C21.73 7.55098 21.5146 7.5927 21.3138 7.67463C21.1131 7.75656 20.9311 7.87705 20.7786 8.02902C20.626 8.18098 20.5059 8.36134 20.4254 8.5595C20.3449 8.75766 20.3056 8.96962 20.3099 9.1829C20.3134 9.60338 20.4836 10.006 20.7844 10.3055C21.0852 10.6049 21.493 10.7777 21.9215 10.7872C22.8163 10.8046 23.5931 10.061 23.6025 9.17608C23.6015 8.74563 23.4268 8.33309 23.1166 8.02872C22.8064 7.72434 22.386 7.55291 21.9474 7.55193Z" fill="white"/>
<path d="M15.4157 9.1451C15.4245 9.67523 15.326 10.2018 15.1259 10.6943C14.9258 11.1869 14.6282 11.6355 14.2501 12.0144C13.8721 12.3932 13.4212 12.6947 12.9236 12.9013C12.426 13.108 11.8916 13.2157 11.3512 13.2182C10.8109 13.2208 10.2754 13.1181 9.77582 12.9161C9.27621 12.7142 8.82241 12.417 8.44069 12.0417C8.05898 11.6664 7.75693 11.2206 7.55206 10.73C7.34719 10.2393 7.24355 9.71371 7.24716 9.18351C7.23895 6.95271 9.08232 5.13027 11.3418 5.13895C12.4218 5.14547 13.4555 5.56991 14.2183 6.32005C14.9811 7.07018 15.4114 8.0854 15.4157 9.1451ZM9.68541 9.14943C9.67846 10.0387 10.4306 10.7897 11.3273 10.7897C11.7659 10.7846 12.1846 10.6096 12.4922 10.3028C12.7998 9.99599 12.9713 9.58228 12.9692 9.15191C12.9692 8.72461 12.7963 8.31481 12.4883 8.01267C12.1804 7.71052 11.7628 7.54078 11.3273 7.54078C10.8919 7.54078 10.4742 7.71052 10.1663 8.01267C9.85839 8.31481 9.68541 8.72461 9.68541 9.15191V9.14943Z" fill="white"/>
<path d="M38.9481 42.695C38.947 41.7335 39.1393 40.7812 39.5141 39.8928C39.889 39.0043 40.4389 38.1973 41.1324 37.5179C41.8258 36.8385 42.6492 36.3002 43.5552 35.9338C44.4612 35.5675 45.432 35.3803 46.4119 35.383C50.5281 35.3904 53.8833 38.6895 53.8681 42.7155C53.8529 46.7105 50.4889 50.0071 46.4201 50.0158C42.3153 50.0257 38.9494 46.7278 38.9481 42.695ZM41.3952 42.6616C41.3832 45.3986 43.6428 47.6294 46.4144 47.6189C49.1615 47.6071 51.4191 45.3881 51.4204 42.6938C51.4103 41.3984 50.8799 40.1593 49.9444 39.2453C49.0088 38.3314 47.7436 37.8165 46.4234 37.8124C45.1033 37.8083 43.8348 38.3154 42.8934 39.2235C41.9519 40.1317 41.4136 41.3675 41.3952 42.6628V42.6616Z" fill="white"/>
</svg>
