<svg width="55" height="55" viewBox="0 0 55 55" fill="none" xmlns="http://www.w3.org/2000/svg">
<g clip-path="url(#clip0_80_61)">
<path fill-rule="evenodd" clip-rule="evenodd" d="M1.61584 16.8114V6.72018C1.61584 5.78249 2.37961 5.01862 3.3174 5.01862H17.177V7.85262L17.0431 7.81083C16.6451 7.68665 16.2294 7.62241 15.8124 7.62241C13.5426 7.62241 11.6949 9.47018 11.6949 11.7399C11.6949 14.0096 13.5426 15.8574 15.8124 15.8574C16.2294 15.8574 16.6451 15.7931 17.0429 15.6685L17.1769 15.6265V18.513H11.9142C11.6143 18.513 11.3436 18.6898 11.2225 18.9639L8.39491 25.3591L5.568 18.9639C5.44672 18.6897 5.17558 18.513 4.87577 18.513H3.31729C2.37961 18.513 1.61584 17.7492 1.61584 16.8114ZM37.8242 14.3469C37.8242 14.0555 37.6557 13.7897 37.3925 13.6647C37.1283 13.5392 36.8165 13.5765 36.5895 13.761C36.1207 14.1423 35.5518 14.3452 34.9473 14.3452C33.5114 14.3452 32.3427 13.1759 32.3427 11.74C32.3427 10.3039 33.5111 9.13492 34.9473 9.13492C35.5518 9.13492 36.1207 9.33783 36.5895 9.71907C36.8165 9.90363 37.1283 9.9409 37.3925 9.81543C37.6554 9.6905 37.8242 9.42431 37.8242 9.1332V5.01862H51.6827C52.6204 5.01862 53.3843 5.78238 53.3843 6.72018V16.8114C53.3843 17.7491 52.6205 18.513 51.6827 18.513H50.1243C49.8245 18.513 49.5533 18.6898 49.4321 18.9639L46.6052 25.3591L43.7777 18.9639C43.6566 18.6898 43.3859 18.513 43.0861 18.513H37.8243L37.8242 14.3469ZM49.2487 35.1128C49.2487 36.0114 49.0017 36.9548 48.4809 37.6951C48.0485 38.3096 47.3999 38.8039 46.6209 38.8039C45.842 38.8039 45.1935 38.3095 44.7613 37.6951C44.2405 36.9547 43.9935 36.0114 43.9935 35.1128C43.9935 33.369 44.8621 32.3479 46.621 32.3479C48.3799 32.348 49.2487 33.3687 49.2487 35.1128ZM30.1274 35.1128C30.1274 36.0114 29.8805 36.9548 29.3598 37.6951C28.9275 38.3097 28.279 38.8039 27.5 38.8039C26.721 38.8039 26.0725 38.3097 25.6402 37.6951C25.1195 36.9547 24.8726 36.0113 24.8726 35.1128C24.8726 33.369 25.7411 32.3479 27.5 32.3479C29.2589 32.348 30.1274 33.3691 30.1274 35.1128ZM11.0067 35.1128C11.0067 36.0114 10.7596 36.9548 10.2388 37.6951C9.80643 38.3096 9.15782 38.8039 8.37869 38.8039C7.59977 38.8039 6.95127 38.3095 6.51911 37.6951C5.99833 36.9547 5.75126 36.0114 5.75126 35.1128C5.75126 33.369 6.61976 32.3479 8.37869 32.3479C10.1378 32.348 11.0067 33.3687 11.0067 35.1128Z" fill="#7DD5F6"/>
<path fill-rule="evenodd" clip-rule="evenodd" d="M53.2811 49.6599C53.2811 49.7779 53.1813 49.8778 53.0633 49.8778H51.5829V45.4769C51.5829 45.0021 51.1982 44.6179 50.7234 44.6179C50.249 44.6179 49.8644 45.0021 49.8644 45.4769V49.8778H43.3779V45.4769C43.3779 45.0021 42.9938 44.6179 42.519 44.6179C42.0442 44.6179 41.6595 45.0021 41.6595 45.4769V49.8778H40.179C40.0609 49.8778 39.961 49.778 39.961 49.6599V43.9062C39.961 42.6185 41.3426 41.9921 42.5016 41.6945C43.8431 41.3499 45.2063 41.1766 46.5823 41.1766C47.9618 41.1766 49.3529 41.3498 50.7472 41.6965C51.6933 41.9307 53.2811 42.5302 53.2811 43.9061V49.6599ZM46.6209 32.4512C47.7729 32.4512 49.1457 32.9129 49.1457 35.1129C49.1457 37.0569 47.9897 38.701 46.6209 38.701C45.2525 38.701 44.0966 37.0569 44.0966 35.1129C44.0965 32.9128 45.4694 32.4512 46.6209 32.4512ZM51.1617 40.0287C50.399 39.8391 49.6388 39.6978 48.8791 39.602C50.0705 38.6619 50.8641 37.0011 50.8641 35.1128C50.8641 33.3553 50.1779 32.3437 49.6012 31.8035C48.8521 31.1031 47.8219 30.7321 46.6208 30.7321C45.4202 30.7321 44.3898 31.1031 43.6413 31.8035C43.064 32.3437 42.3779 33.3553 42.3779 35.1128C42.3779 36.997 43.1686 38.6543 44.3555 39.5964C43.5896 39.6911 42.829 39.836 42.0738 40.0297C39.6387 40.6557 38.242 42.0686 38.242 43.9062V49.6599C38.242 50.7278 39.1111 51.5968 40.1789 51.5968H53.0631C54.1308 51.5968 55 50.7276 55 49.6599V43.9062C55.0001 42.0468 53.6004 40.6333 51.1617 40.0287ZM34.1603 49.6599C34.1603 49.7779 34.0605 49.8778 33.9418 49.8778H32.4614V45.4769C32.4614 45.0021 32.0772 44.6179 31.6024 44.6179C31.1275 44.6179 30.743 45.0021 30.743 45.4769V49.8778H24.257V45.4769C24.257 45.0021 23.8724 44.6179 23.3976 44.6179C22.9226 44.6179 22.5385 45.0021 22.5385 45.4769V49.8778H21.0577C20.9396 49.8778 20.8397 49.778 20.8397 49.6599V43.9062C20.8397 42.6185 22.2213 41.9921 23.3803 41.6945C24.7223 41.3499 26.085 41.1766 27.4614 41.1766C28.8404 41.1766 30.2316 41.3498 31.6263 41.6965C32.5725 41.9307 34.1603 42.5302 34.1603 43.9061V49.6599ZM27.5 32.4512C28.6515 32.4512 30.0244 32.9129 30.0244 35.1129C30.0244 37.0569 28.8689 38.701 27.5 38.701C26.1311 38.701 24.9757 37.0569 24.9757 35.1129C24.9757 32.9128 26.3485 32.4512 27.5 32.4512ZM32.0408 40.0287C31.2781 39.8391 30.5175 39.6978 29.7582 39.602C30.9492 38.6619 31.7428 37.0011 31.7428 35.1128C31.7428 33.3553 31.0566 32.3437 30.4799 31.8035C29.7314 31.1031 28.7011 30.7321 27.4999 30.7321C26.2988 30.7321 25.2685 31.1031 24.52 31.8035C23.9433 32.3437 23.257 33.3553 23.257 35.1128C23.257 36.997 24.0477 38.6543 25.2346 39.5964C24.4688 39.6911 23.7081 39.836 22.9529 40.0297C20.5173 40.6557 19.1211 42.0686 19.1211 43.9062V49.6599C19.1211 50.7278 19.9902 51.5968 21.0576 51.5968H33.9418C35.0101 51.5968 35.8787 50.7276 35.8787 49.6599V43.9062C35.8788 42.0468 34.4801 40.6333 32.0408 40.0287ZM15.039 49.6599C15.039 49.7779 14.9392 49.8778 14.821 49.8778H13.3407V45.4769C13.3407 45.0021 12.956 44.6179 12.4812 44.6179C12.0069 44.6179 11.6222 45.0021 11.6222 45.4769V49.8778H5.13573V45.4769C5.13573 45.0021 4.75106 44.6179 4.27668 44.6179C3.80177 44.6179 3.4172 45.0021 3.4172 45.4769V49.8778H1.93682C1.81876 49.8778 1.71886 49.778 1.71886 49.6599V43.9062C1.71886 42.6185 3.09987 41.9921 4.25939 41.6945C5.60087 41.3499 6.96416 41.1766 8.34013 41.1766C9.71964 41.1766 11.1108 41.3498 12.505 41.6965C13.4512 41.9307 15.039 42.5302 15.039 43.9061V49.6599ZM8.37869 32.4512C9.53058 32.4512 10.9035 32.9129 10.9035 35.1129C10.9035 37.0569 9.74757 38.701 8.37869 38.701C7.01035 38.701 5.85438 37.0569 5.85438 35.1129C5.85438 32.9128 7.22724 32.4512 8.37869 32.4512ZM12.9195 40.0287C12.1568 39.8391 11.3961 39.6978 10.6369 39.602C11.8283 38.6619 12.622 37.0011 12.622 35.1128C12.622 33.3553 11.9353 32.3437 11.3586 31.8035C10.6101 31.1031 9.57978 30.7321 8.37858 30.7321C7.17804 30.7321 6.14765 31.1031 5.39913 31.8035C4.82238 32.3437 4.13564 33.3553 4.13564 35.1128C4.13564 36.997 4.92626 38.6543 6.11316 39.5964C5.34746 39.6911 4.5867 39.836 3.83163 40.0297C1.39649 40.6557 -0.000213623 42.0686 -0.000213623 43.9062V49.6599C-0.000213623 50.7278 0.868937 51.5968 1.93671 51.5968H14.8209C15.8887 51.5968 16.7579 50.7276 16.7579 49.6599V43.9062C16.758 42.0468 15.3593 40.6333 12.9195 40.0287ZM53.2811 16.8114C53.2811 17.6922 52.5636 18.4099 51.6827 18.4099H50.1243C49.7838 18.4099 49.4752 18.6105 49.3378 18.9223L46.6052 25.1042L43.8721 18.9223C43.7347 18.6105 43.4266 18.4099 43.0861 18.4099H37.9274V14.347C37.9274 14.016 37.7363 13.7135 37.4368 13.5716C37.1368 13.4286 36.7825 13.4718 36.5246 13.6811C36.0746 14.0475 35.5288 14.242 34.9474 14.242C33.5685 14.242 32.4459 13.1189 32.4459 11.7399C32.4459 10.3604 33.5685 9.23788 34.9474 9.23788C35.5287 9.23788 36.0745 9.43253 36.5246 9.79884C36.7825 10.0081 37.1368 10.0512 37.4368 9.9083C37.7363 9.76639 37.9274 9.46336 37.9274 9.13293V5.12179H51.6828C52.5636 5.12179 53.2812 5.83937 53.2812 6.72023V16.8114H53.2811ZM31.0191 18.4099H36.2087V15.767C35.8027 15.8942 35.377 15.9606 34.9473 15.9606C32.6206 15.9606 30.7267 14.0667 30.7267 11.7399C30.7267 9.4133 32.6206 7.51934 34.9473 7.51934C35.3771 7.51934 35.8028 7.58573 36.2087 7.71238V5.12179H18.7923V9.13303C18.7923 9.46346 18.6012 9.7665 18.3011 9.90841C18.0016 10.0513 17.6474 10.0082 17.3895 9.79894C16.9395 9.43253 16.3937 9.23799 15.8123 9.23799C14.4333 9.23799 13.3108 10.3605 13.3108 11.7401C13.3108 13.119 14.4333 14.2421 15.8123 14.2421C16.3935 14.2421 16.9394 14.0475 17.3895 13.6812C17.6475 13.4718 18.0016 13.4287 18.3011 13.5717C18.6012 13.7136 18.7923 14.0161 18.7923 14.3471V18.41H23.9809C24.3214 18.41 24.6296 18.6107 24.7674 18.9224L27.5 25.1042L30.2326 18.9223C30.3705 18.6107 30.6786 18.4099 31.0191 18.4099ZM11.9141 18.4099C11.5734 18.4099 11.2653 18.6105 11.128 18.9223L8.39491 25.1042L5.66221 18.9223C5.52438 18.6105 5.21619 18.4099 4.87566 18.4099H3.3173C2.43644 18.4099 1.71886 17.6923 1.71886 16.8114V6.72023C1.71886 5.83937 2.43644 5.12179 3.3173 5.12179H17.0737V7.71249C16.6678 7.58584 16.2421 7.51945 15.8123 7.51945C13.4856 7.51945 11.5917 9.4133 11.5917 11.7401C11.5917 14.0667 13.4855 15.9607 15.8123 15.9607C16.2421 15.9607 16.6678 15.8943 17.0737 15.7671V18.41H11.9141V18.4099ZM51.6827 3.40326H3.3173C1.48779 3.40326 -0.000213623 4.8917 -0.000213623 6.72023V16.8114C-0.000213623 18.6409 1.48769 20.1284 3.3173 20.1284H4.31621L7.60891 27.5773C7.74619 27.8874 8.05439 28.0886 8.39491 28.0886C8.73544 28.0886 9.04406 27.8874 9.18145 27.5773L12.4741 20.1284H23.4214L26.7136 27.5773C26.8514 27.8874 27.1596 28.0886 27.5001 28.0886C27.8407 28.0886 28.1488 27.8874 28.2866 27.5773L31.5788 20.1284H42.5261L45.8188 27.5773C45.9562 27.8874 46.2648 28.0886 46.6053 28.0886C46.9458 28.0886 47.254 27.8874 47.3913 27.5773L50.6839 20.1284H51.6828C53.5123 20.1284 55.0003 18.6409 55.0003 16.8114V6.72023C55.0001 4.8917 53.5122 3.40326 51.6827 3.40326Z" fill="#285598"/>
</g>
<defs>
<clipPath id="clip0_80_61">
<rect width="55" height="55" fill="white"/>
</clipPath>
</defs>
</svg>
