<svg xmlns="http://www.w3.org/2000/svg" xmlns:xlink="http://www.w3.org/1999/xlink" viewBox="0 0 329 16" width="329"
    height="16" preserveAspectRatio="xMidYMid meet"
    style="width: 100%; height: 100%; transform: translate3d(0px, 0px, 0px); content-visibility: visible;">
    <defs>
        <clipPath id="__lottie_element_61">
            <rect width="329" height="16" x="0" y="0"></rect>
        </clipPath>
    </defs>
    <g clip-path="url(#__lottie_element_61)">
        <g transform="matrix(1,0,0,1,164.8699951171875,8)" opacity="1" style="display: block;">
            <g opacity="1" transform="matrix(1,0,0,1,0,0)">
                <path stroke-linecap="round" stroke-linejoin="miter" fill-opacity="0" stroke-miterlimit="4"
                    stroke="#ff8e5e" stroke-opacity="1" stroke-width="4"
                    d=" M162,5.120999813079834 C138.53900146484375,7.85099983215332 139.25399780273438,-5.052000045776367 114.427001953125,-5.052000045776367 C101.572998046875,-5.052000045776367 100.0770034790039,5.120999813079834 81.08300018310547,5.120999813079834 C62.09000015258789,5.120999813079834 61.94599914550781,-5.03000020980835 48.132999420166016,-5.03000020980835 C34.319000244140625,-5.03000020980835 32.016998291015625,5.120999813079834 13.02400016784668,5.120999813079834 C-5.968999862670898,5.120999813079834 -5.202000141143799,-5.03000020980835 -20.357999801635742,-5.03000020980835 C-35.51499938964844,-5.03000020980835 -39.73500061035156,5.120999813079834 -53.54899978637695,5.120999813079834 C-67.36199951171875,5.120999813079834 -71.1989974975586,-5.03000020980835 -83.47699737548828,-5.03000020980835 C-95.75599670410156,-5.03000020980835 -105.07599639892578,5.120999813079834 -117.94200134277344,5.120999813079834 C-143.6750030517578,5.120999813079834 -138.99600219726562,-8.128999710083008 -162,-5.03000020980835">
                </path>
            </g>
        </g>
    </g>
</svg>