<svg width="59" height="59" viewBox="0 0 59 59" fill="none" xmlns="http://www.w3.org/2000/svg">
<path d="M47.9375 22.125C47.9394 19.1617 47.227 16.2415 45.8607 13.6119C44.4943 10.9823 42.5143 8.72086 40.0883 7.01906C37.6623 5.31726 34.8618 4.22529 31.9242 3.83566C28.9865 3.44604 25.9982 3.77024 23.2125 4.7808C20.4268 5.79136 17.9257 7.4585 15.9211 9.64097C13.9165 11.8235 12.4675 14.457 11.6969 17.3184C10.9262 20.1798 10.8567 23.1848 11.494 26.0788C12.1314 28.9728 13.457 31.6706 15.3584 33.9435C18.4797 37.5246 20.2248 42.0996 20.2812 46.8497V47.9375H38.7187V46.7391C38.7313 42.1169 40.4067 37.6535 43.4387 34.1647C46.3455 30.8279 47.9438 26.5503 47.9375 22.125Z" fill="#FEEEE7"/>
<path d="M20.2812 47.9375H38.7188C38.7188 49.8935 37.9417 51.7693 36.5587 53.1524C35.1756 54.5355 33.2997 55.3125 31.3438 55.3125H27.6562C25.7003 55.3125 23.8244 54.5355 22.4413 53.1524C21.0583 51.7693 20.2813 49.8935 20.2812 47.9375Z" fill="#5EA0B9"/>
<path d="M38.7188 40.5625H20.2812C19.263 40.5625 18.4375 41.388 18.4375 42.4062V46.0938C18.4375 47.112 19.263 47.9375 20.2812 47.9375H38.7188C39.737 47.9375 40.5625 47.112 40.5625 46.0938V42.4062C40.5625 41.388 39.737 40.5625 38.7188 40.5625Z" fill="#7DD5F6"/>
<path d="M27.1769 1.97278C23.537 2.39095 20.0784 3.78731 17.1684 6.0135C14.2585 8.2397 12.006 11.2126 10.6502 14.6163C9.29435 18.02 8.88588 21.7275 9.46816 25.3447C10.0504 28.962 11.6017 32.354 13.9572 35.1603C15.3 36.7806 16.3766 38.6041 17.1469 40.5625C16.3541 41.8531 16.5938 42.904 16.5938 46.1859C16.5991 46.8568 16.7873 47.5135 17.1382 48.0853C17.4891 48.6571 17.9893 49.1223 18.585 49.4309C18.9384 51.5838 20.0439 53.5415 21.7049 54.956C23.3658 56.3705 25.4746 57.1501 27.6562 57.1562H31.3438C33.5389 57.1466 35.6586 56.354 37.3215 54.9209C38.9844 53.4878 40.0814 51.5084 40.415 49.3387C41.0107 49.0301 41.5109 48.5649 41.8618 47.9931C42.2127 47.4213 42.4009 46.7646 42.4062 46.0937C42.4062 42.8672 42.6459 41.724 41.8162 40.415C42.523 38.5777 43.5395 36.8753 44.8216 35.3815C47.4896 32.293 49.1637 28.4713 49.625 24.4161C50.0864 20.3609 49.3135 16.2609 47.4075 12.6519C45.5014 9.043 42.5509 6.09309 38.9415 4.18782C35.3322 2.28255 31.232 1.51056 27.1769 1.97278ZM38.7188 42.4062V46.0937C31.5185 46.0937 27.4815 46.0937 20.2813 46.0937V42.4062H38.7188ZM31.3438 53.4687H27.6562C26.5151 53.4655 25.4028 53.1094 24.472 52.4492C23.5411 51.7891 22.8373 50.8571 22.4569 49.7812H36.5616C36.1801 50.8601 35.4734 51.7941 34.5389 52.4546C33.6044 53.115 32.4881 53.4693 31.3438 53.4687ZM38.4975 38.7187H20.4288C19.5079 36.5585 18.2646 34.5506 16.7413 32.7634C14.7022 30.3354 13.4014 27.3741 12.9929 24.2299C12.5843 21.0857 13.0851 17.8902 14.436 15.0218C15.7869 12.1533 17.9313 9.73193 20.6155 8.0442C23.2996 6.35648 26.4111 5.47308 29.5816 5.49855C32.7521 5.52403 35.849 6.45732 38.5057 8.18795C41.1623 9.91859 43.2676 12.3741 44.5722 15.2639C45.8768 18.1537 46.3262 21.3568 45.8672 24.494C45.4082 27.6313 44.06 30.5713 41.9822 32.9662C40.5157 34.685 39.3331 36.627 38.4791 38.7187H38.4975Z" fill="#285598"/>
</svg>
