<svg width="53" height="53" viewBox="0 0 53 53" fill="none" xmlns="http://www.w3.org/2000/svg">
<g clip-path="url(#clip0_80_73)">
<path fill-rule="evenodd" clip-rule="evenodd" d="M53 26.5C53 41.0667 41.0667 53 26.5 53C11.9333 53 0 41.0667 0 26.5C0 11.9333 11.9333 0 26.5 0C41.0667 0 53 11.9333 53 26.5Z" fill="#7DD5F6"/>
<path d="M43.0625 11.4745H29.7446V24.7924H33.501V16.9385C36.9162 18.9872 38.9649 22.4024 38.9649 26.5C38.9649 32.6463 34.1833 37.4279 28.037 37.4279V41.1843C36.2321 41.1843 42.7213 34.6951 42.7213 26.5C42.7213 21.7184 40.3313 17.2796 36.5733 14.8897H43.0625V11.4745ZM26.3294 12.1569C18.1326 12.1569 11.6451 18.9872 11.6451 26.8412C11.6451 31.2799 13.351 35.038 16.4267 37.7691H9.9375V41.5255H23.2554V28.2076H19.8419V35.7203C17.1091 33.6715 15.4031 30.5976 15.4031 26.8428C15.4031 20.6948 20.5259 15.9132 26.3311 15.9132L26.3294 12.1569Z" fill="#01204C"/>
</g>
<defs>
<clipPath id="clip0_80_73">
<rect width="53" height="53" fill="white"/>
</clipPath>
</defs>
</svg>
