<svg width="69" height="67" viewBox="0 0 69 67" fill="none" xmlns="http://www.w3.org/2000/svg">
<path d="M0.00143243 35.6762C0.151834 35.0417 0.25998 34.3936 0.460516 33.7749C0.975462 32.1887 1.90724 30.8816 3.22146 29.8253C1.9323 27.2686 1.72317 24.6593 2.76023 22.0118C3.79728 19.3643 5.73818 17.6086 8.4139 16.6338C7.62608 13.1543 8.34729 10.0727 10.8984 7.59391C13.4287 5.13458 16.4847 4.50514 19.9046 5.40063C20.7461 3.64066 21.9766 2.24047 23.6517 1.2527C28.3414 -1.51234 34.3997 0.474018 36.5526 5.50012C36.709 5.87071 36.7922 6.26842 36.7976 6.67103C36.8191 9.24573 36.8083 11.8197 36.8083 14.4975C38.1648 14.4975 39.479 14.5069 40.7925 14.4831C40.9243 14.4831 41.079 14.2956 41.1771 14.1586C41.4708 13.7332 41.74 13.2898 42.0287 12.8378C41.1914 11.7974 40.7624 10.6553 41.0711 9.31206C41.561 7.18222 43.6108 5.83539 45.7042 6.27448C47.8113 6.71646 49.147 8.71724 48.7889 10.8975C48.4501 12.9661 46.4476 14.4139 44.3262 14.07C43.9173 14.0036 43.6903 14.057 43.5334 14.4247C43.5128 14.4651 43.4889 14.5037 43.4618 14.54C41.9313 16.9424 42.6776 16.5416 39.7691 16.5776C38.8094 16.5891 37.8497 16.5776 36.8491 16.5776V21.572C37.064 21.5893 37.2789 21.6203 37.4937 21.6203C41.4686 21.6203 45.4435 21.6152 49.417 21.6325C49.8689 21.6325 50.1611 21.4883 50.4404 21.1415C51.2347 20.1603 52.0877 19.2244 52.864 18.233C53.0792 17.9348 53.205 17.5808 53.2264 17.2128C53.278 16.38 53.21 15.5394 53.2551 14.7052C53.2823 14.1839 53.1269 13.9279 52.6313 13.7044C50.8229 12.889 49.9634 10.8283 50.5758 8.93786C51.1652 7.11949 53.0725 5.94787 54.9109 6.27664C56.8791 6.62777 58.2971 8.32645 58.2012 10.2991C58.1231 11.9026 57.3417 13.0894 55.8764 13.7477C55.4467 13.9416 55.3306 14.1673 55.3428 14.6064C55.3707 15.6677 55.3951 16.7333 55.3306 17.7918C55.3041 18.2309 55.1444 18.7356 54.8758 19.0737C53.7815 20.4552 52.6119 21.7667 51.494 23.1229C51.1144 23.5836 50.6761 23.748 50.0888 23.7458C45.9348 23.7285 41.7809 23.7364 37.6269 23.7364H36.8527V27.6508C37.0962 27.6616 37.3147 27.6803 37.5338 27.681C41.7995 27.681 46.0659 27.6745 50.3323 27.6933C50.7856 27.6933 51.0728 27.5412 51.3579 27.2081C52.9385 25.3565 54.5478 23.5309 56.1249 21.6765C56.5217 21.2093 56.9514 20.9793 57.5752 21.0024C58.6495 21.042 59.731 21.032 60.8074 20.9966C61.0101 20.9901 61.3037 20.8142 61.3882 20.6361C62.1761 18.9778 63.5655 18.0182 65.1733 18.0766C66.9252 18.1407 68.2265 19.1682 68.8861 21.0038C68.9165 21.0612 68.9549 21.1138 69 21.1603V22.9239C68.9706 22.9563 68.9284 22.9844 68.9141 23.0226C68.3626 24.8446 67.14 25.9167 65.2614 26.0061C63.4122 26.0941 62.1166 25.1525 61.3696 23.4343C61.298 23.2721 61.0151 23.1171 60.8246 23.1092C59.9729 23.0627 59.1193 23.0641 58.2678 23.1135C57.9347 23.1373 57.5258 23.3053 57.3081 23.5461C55.7043 25.3452 54.1262 27.1672 52.574 29.012C52.0948 29.583 51.5713 29.821 50.8336 29.8174C46.4347 29.795 42.0351 29.8066 37.6355 29.8066H36.857V37.2588H37.7C42.0996 37.2588 46.4992 37.2689 50.8981 37.248C51.5821 37.248 52.0784 37.4412 52.5289 37.9784C53.9763 39.7045 55.4982 41.3671 56.9263 43.1105C57.4506 43.75 57.9899 44.0478 58.8092 43.9548C59.4134 43.8996 60.0213 43.8996 60.6255 43.9548C61.0975 43.9879 61.3116 43.8207 61.5 43.378C61.8049 42.6678 62.3141 42.0657 62.9618 41.6492C63.6096 41.2328 64.3663 41.021 65.1347 41.0412C66.8056 41.0982 68.1692 42.0715 68.7515 43.6181C68.8288 43.8243 68.9169 44.0262 69 44.2302V45.7227C68.9538 45.7971 68.9143 45.8755 68.8818 45.957C68.3347 47.7364 67.0297 48.8295 65.3008 48.952C63.6622 49.0681 62.2011 48.1092 61.4126 46.4574C61.3195 46.2613 61.0001 46.0666 60.778 46.0579C59.7037 46.0168 58.623 46.0197 57.5458 46.0464C56.9571 46.0608 56.5331 45.8546 56.1485 45.3975C54.5593 43.5229 52.9349 41.6815 51.3421 39.8105C51.0556 39.4701 50.7513 39.3418 50.3072 39.3432C46.063 39.3591 41.8188 39.3533 37.5754 39.3533H36.8513V43.272H37.619C41.773 43.272 45.9269 43.2828 50.0809 43.2604C50.7026 43.2604 51.138 43.4587 51.5298 43.9331C52.6198 45.2547 53.7686 46.5288 54.8329 47.8691C55.1143 48.2238 55.2819 48.7487 55.3127 49.2087C55.3844 50.2441 55.3593 51.2881 55.3242 52.3263C55.307 52.8181 55.4359 53.074 55.9179 53.2845C56.7491 53.6514 57.4274 54.2984 57.836 55.1143C58.2446 55.9301 58.358 56.8638 58.1568 57.7548C57.7328 59.602 56.1213 60.9063 54.2707 60.8998C52.4487 60.894 50.7942 59.563 50.4154 57.7995C50.0093 55.909 50.9246 54.0582 52.6592 53.2622C52.8418 53.1786 53.0266 53.1007 53.2322 53.0091C53.2322 51.8483 53.2479 50.6961 53.2186 49.5483C53.2128 49.332 53.0639 49.0847 52.917 48.9066C52.0848 47.8972 51.2218 46.9159 50.3939 45.9044C50.1296 45.5806 49.8574 45.4415 49.4277 45.4429C45.4306 45.4617 41.4335 45.4537 37.4371 45.4559C37.243 45.4559 37.0489 45.4819 36.8534 45.4956V50.3717C37.8196 50.3717 38.7377 50.3652 39.6559 50.3717C42.6468 50.3969 41.942 50.04 43.4611 52.5534C43.7253 52.9904 43.9732 53.105 44.4637 53.0401C46.3474 52.7899 48.0627 53.9053 48.6514 55.7013C48.9296 56.5604 48.9081 57.4893 48.5904 58.3343C48.2727 59.1794 47.6779 59.8898 46.9044 60.3482C46.1309 60.8065 45.2251 60.9851 44.337 60.8545C43.4489 60.7239 42.6318 60.292 42.0208 59.6301C40.7395 58.2414 40.6171 56.1996 41.7214 54.6422C41.8231 54.498 41.9205 54.3538 42.0186 54.2096C41.7322 53.7662 41.4858 53.335 41.1907 52.9377C41.0726 52.7791 40.8548 52.5982 40.6786 52.5938C39.4045 52.565 38.1297 52.578 36.7739 52.578V53.3711C36.7739 55.9032 36.7897 58.4347 36.7596 60.9661C36.7534 61.4349 36.6467 61.8968 36.4466 62.3201C35.9265 63.3943 35.1829 64.3432 34.2663 65.1025C33.3497 65.8617 32.2815 66.4136 31.1344 66.7205C29.9872 67.0275 28.7878 67.0823 27.6177 66.8814C26.4476 66.6805 25.3341 66.2284 24.3529 65.556C24.0091 65.3224 23.7606 65.3217 23.3875 65.4839C22.157 66.0283 20.8564 66.2712 19.5121 66.1328C15.3711 65.7002 12.4676 62.8688 11.9061 58.6993C11.8466 58.2573 11.7113 58.1181 11.2744 58.0439C7.00227 57.3099 3.80874 53.4929 3.7758 49.1287C3.76291 47.3478 4.24921 45.7039 5.15663 44.1538C4.92315 44.0305 4.72691 43.9274 4.53067 43.8228C2.39568 42.6851 0.999097 40.9388 0.328735 38.6078C0.193374 38.1363 0.108146 37.6496 0 37.1658L0.00143243 35.6762ZM4.93819 28.6414C4.97344 28.6493 5.00953 28.6526 5.04562 28.6515C5.23971 28.5974 5.43165 28.5369 5.62574 28.4864C8.07729 27.8483 10.1478 28.49 11.8237 30.3898C12.5163 31.175 12.5621 31.8131 12.0264 32.289C11.4907 32.7648 10.9414 32.6033 10.2359 31.7605C9.06134 30.3516 7.17416 29.958 5.54338 30.7857C2.08414 32.5406 1.05424 37.0663 3.4177 40.1616C4.3287 41.3556 5.5269 42.0931 6.97148 42.4587C8.02357 42.7247 8.2814 43.5337 7.60889 44.3895C7.53727 44.4782 7.46565 44.5633 7.39403 44.6527C4.42253 48.5065 6.10058 54.1433 10.7036 55.661C11.4312 55.9011 12.3036 56.1354 12.9954 55.9494C14.2316 55.6177 15.4147 55.0236 16.5542 54.4136C17.0069 54.1707 17.3642 53.6378 17.6199 53.1584C17.9945 52.4561 18.4414 52.0978 18.9929 52.2852C19.631 52.5015 19.8595 53.123 19.5902 53.9212C19.2655 54.8997 18.5914 55.7219 17.6987 56.2284C16.6351 56.8398 15.4921 57.3135 14.372 57.8204C14.0855 57.9516 13.8971 58.0367 13.9322 58.4318C14.3161 62.7398 19.0323 65.3664 22.8575 63.388C25.4358 62.0548 26.1112 60.2465 25.0268 57.5947C24.9172 57.3445 24.9064 57.0618 24.9964 56.8038C25.0865 56.5459 25.2707 56.3321 25.5117 56.206C25.6365 56.1398 25.7734 56.0995 25.914 56.0876C26.0547 56.0758 26.1963 56.0926 26.3303 56.1371C26.4644 56.1816 26.5881 56.2528 26.6942 56.3466C26.8003 56.4403 26.8865 56.5546 26.9477 56.6826C27.5966 57.9949 27.8386 59.3698 27.5321 60.8255C27.2736 62.0563 26.644 63.0736 25.766 63.9532C28.8191 65.9302 33.1535 64.6086 34.5752 61.2942C34.6702 61.0659 34.719 60.8207 34.7184 60.5732C34.7256 52.3898 34.7213 44.2064 34.7055 36.023C34.7055 35.7462 34.4971 35.3705 34.268 35.2112C32.9652 34.3034 31.6015 34.2818 30.2114 35.0475C29.6155 35.3763 29.0125 35.2011 28.7145 34.651C28.4281 34.1153 28.5641 33.488 29.1829 33.2414C30.066 32.8896 30.9942 32.5291 31.9253 32.4577C32.827 32.3856 33.7559 32.6812 34.6927 32.8182C34.7094 32.7826 34.718 32.7436 34.7177 32.7043C34.7213 29.6076 34.7335 26.5101 34.7048 23.4134C34.7048 23.1582 34.4821 22.8164 34.2615 22.665C32.9043 21.7349 31.5049 21.7342 30.0854 22.5612C29.4716 22.9181 28.8599 22.7775 28.5577 22.2605C28.2555 21.7436 28.4023 21.0803 29.0368 20.7746C29.7752 20.4184 30.5666 20.0262 31.358 19.9678C32.4445 19.887 33.5532 20.1047 34.6984 20.1992C34.7144 20.1233 34.7225 20.046 34.7227 19.9685C34.7578 15.6511 34.7944 11.3338 34.8123 7.01567C34.8034 6.67934 34.7228 6.34886 34.5759 6.04664C33.8641 4.52973 32.6325 3.3223 31.1073 2.64613C29.5822 1.96997 27.8659 1.87047 26.2737 2.36593C24.3639 2.9658 22.953 4.16747 22.041 5.97094C25.3334 7.98181 26.4958 10.3611 25.8856 13.7498C25.7574 14.4651 25.2682 14.8674 24.6322 14.7801C24.0285 14.6979 23.7076 14.137 23.7821 13.3973C23.8501 12.8369 23.8686 12.2716 23.8372 11.708C23.6804 9.64877 22.3647 8.17937 20.3615 7.75902C20.1001 7.70161 19.8425 7.62792 19.5902 7.5384C17.8104 6.93348 16.0543 6.99188 14.3433 7.77272C11.0001 9.29764 9.45669 13.0807 10.7036 16.6483C11.3546 18.5113 12.4726 19.0925 14.2846 18.5121C14.9134 18.3109 15.4856 18.5921 15.6847 19.2006C15.8688 19.7608 15.578 20.3153 14.9793 20.5453C12.9818 21.3204 10.9299 20.7436 9.52687 19.0535C9.38363 18.8819 9.02553 18.7291 8.83144 18.7853C4.91097 19.9187 2.87554 25.0645 4.93819 28.6414ZM63.2131 21.9959C63.2013 22.4892 63.3847 22.967 63.7228 23.3241C64.061 23.6813 64.5262 23.8886 65.0162 23.9005C65.5061 23.9123 65.9807 23.7277 66.3355 23.3873C66.6903 23.0469 66.8962 22.5786 66.908 22.0853C66.9175 21.843 66.8792 21.6012 66.7955 21.3739C66.7118 21.1465 66.5842 20.938 66.4201 20.7605C66.256 20.583 66.0586 20.4399 65.8394 20.3395C65.6201 20.2391 65.3833 20.1833 65.1426 20.1754C64.0797 20.1437 63.2339 20.9433 63.2131 21.9959ZM54.3029 8.27022C53.3002 8.27022 52.4508 9.1109 52.4465 10.1117C52.4407 10.483 52.5448 10.8477 52.7455 11.1593C52.9462 11.4709 53.2345 11.7153 53.5737 11.8614C53.9129 12.0075 54.2876 12.0486 54.6501 11.9796C55.0126 11.9106 55.3465 11.7346 55.6092 11.4739C55.872 11.2133 56.0518 10.8798 56.1257 10.5159C56.1996 10.152 56.1642 9.77428 56.0241 9.43071C55.884 9.08714 55.6455 8.79331 55.339 8.58665C55.0325 8.37999 54.6718 8.26983 54.3029 8.27022ZM46.757 56.8723C46.7558 56.503 46.6457 56.1424 46.4405 55.8364C46.2353 55.5303 45.9443 55.2926 45.6046 55.1533C45.2649 55.0141 44.8918 54.9797 44.5326 55.0544C44.1734 55.1292 43.8444 55.3098 43.5873 55.5732C43.3303 55.8366 43.1569 56.171 43.089 56.5339C43.0212 56.8968 43.0621 57.2718 43.2065 57.6112C43.3508 57.9507 43.5922 58.2393 43.8998 58.4403C44.2075 58.6414 44.5675 58.7458 44.9343 58.7404C45.4202 58.73 45.8828 58.5289 46.2234 58.1798C46.5639 57.8308 46.7554 57.3615 46.757 56.8723ZM56.1392 56.8586C56.1392 55.8535 55.3063 55.0344 54.2771 55.0344C54.0358 55.0325 53.7965 55.0786 53.5729 55.17C53.3493 55.2614 53.1458 55.3964 52.9742 55.5671C52.8025 55.7379 52.666 55.941 52.5725 56.165C52.479 56.389 52.4303 56.6293 52.4293 56.8723C52.4302 57.1174 52.4791 57.3599 52.5731 57.5861C52.6671 57.8122 52.8044 58.0175 52.9772 58.1902C53.15 58.3629 53.3549 58.4996 53.5803 58.5926C53.8056 58.6856 54.0469 58.733 54.2904 58.7321C54.5339 58.7312 54.7748 58.682 54.9994 58.5874C55.224 58.4927 55.428 58.3545 55.5995 58.1805C55.7711 58.0065 55.9069 57.8002 55.9992 57.5734C56.0916 57.3466 56.1387 57.1037 56.1378 56.8586H56.1392ZM46.757 10.1174C46.7532 9.87243 46.7013 9.63062 46.6044 9.40585C46.5075 9.18108 46.3675 8.97778 46.1924 8.8076C46.0173 8.63742 45.8105 8.50372 45.584 8.41416C45.3574 8.32459 45.1156 8.28093 44.8722 8.28568C44.6289 8.29042 44.3889 8.34348 44.1659 8.44181C43.943 8.54014 43.7415 8.6818 43.5731 8.85868C43.4047 9.03555 43.2726 9.24416 43.1844 9.47254C43.0962 9.70091 43.0537 9.94456 43.0593 10.1895C43.0705 10.682 43.2751 11.1499 43.6283 11.4908C43.9816 11.8317 44.4546 12.0178 44.9438 12.0082C45.4331 11.9987 45.8986 11.7943 46.2385 11.4399C46.5783 11.0855 46.7648 10.61 46.757 10.1174ZM66.8822 44.9476C66.8754 44.5804 66.7603 44.2236 66.5516 43.9225C66.3428 43.6213 66.0499 43.3894 65.71 43.2562C65.3701 43.123 64.9985 43.0945 64.6424 43.1744C64.2864 43.2542 63.962 43.4389 63.7104 43.7047C63.4588 43.9706 63.2914 44.3058 63.2294 44.6677C63.1675 45.0295 63.2138 45.4018 63.3624 45.7371C63.5111 46.0725 63.7554 46.3558 64.0643 46.551C64.3732 46.7463 64.7328 46.8447 65.0974 46.8337C66.1245 46.8056 66.8922 45.993 66.8786 44.9476H66.8822Z" fill="white"/>
<path d="M27.6166 44.8675C24.7676 44.8027 22.0911 43.0196 21.5826 39.3757C21.5003 38.7888 21.9372 38.2531 22.5223 38.1752C23.1411 38.0923 23.6345 38.5357 23.7198 39.2567C23.9268 41.0023 25.1071 42.3275 26.7994 42.667C27.1898 42.7449 27.603 42.7204 28.0055 42.724C28.7167 42.7319 29.2016 43.1126 29.2316 43.7046C29.2603 44.2691 28.8499 44.706 28.1824 44.8084C27.9618 44.8438 27.7369 44.856 27.6166 44.8675Z" fill="white"/>
<path d="M18.6792 24.5908C21.1987 24.6413 22.8553 25.438 24.0643 27.1086C24.5104 27.725 24.4524 28.3537 23.9497 28.7279C23.4648 29.0884 22.8546 28.9363 22.379 28.3393C21.0512 26.6702 19.2614 26.2787 17.3435 27.2376C16.7161 27.5513 16.1259 27.4049 15.8316 26.8605C15.5372 26.3162 15.7062 25.6767 16.3458 25.4063C17.2403 25.027 18.1843 24.7595 18.6792 24.5908Z" fill="white"/>
<path d="M14.9091 39.858C14.8031 41.6086 15.8531 43.1559 17.5419 43.7579C17.8111 43.8538 18.1012 43.9548 18.3146 44.1343C18.7236 44.4804 18.7866 44.9555 18.5402 45.4206C18.3096 45.8532 17.9322 46.0543 17.4172 45.9527C14.604 45.3953 12.4568 42.3772 12.8422 39.5112C12.9553 38.672 13.3478 38.2855 14.016 38.3482C14.6842 38.411 14.9893 38.8825 14.9213 39.7232C14.9177 39.7679 14.9134 39.8133 14.9091 39.858Z" fill="white"/>
</svg>
