<svg width="52" height="52" viewBox="0 0 52 52" fill="none" xmlns="http://www.w3.org/2000/svg">
<path d="M42.4034 48.6064C40.6707 49.8406 29.5528 42.0172 27.4234 42C25.2941 41.983 14.051 49.6264 12.3385 48.3645C10.626 47.1026 14.652 34.1413 14.0104 32.1168C13.3688 30.0922 2.60429 21.7916 3.27859 19.7776C3.95304 17.7636 17.5591 17.5765 19.2919 16.3423C21.0246 15.1083 25.6149 2.33478 27.7444 2.35182C29.8736 2.36902 34.2565 15.2147 35.969 16.4766C37.6815 17.7384 51.283 18.1445 51.9248 20.1691C52.5664 22.1936 41.669 30.3199 40.9946 32.3339C40.3203 34.348 44.1361 47.3723 42.4034 48.6064Z" fill="url(#paint0_linear_80_66)"/>
<defs>
<linearGradient id="paint0_linear_80_66" x1="3.24826" y1="25.5452" x2="51.952" y2="25.5452" gradientUnits="userSpaceOnUse">
<stop stop-color="#01204C"/>
<stop offset="1" stop-color="#FB8B5C"/>
</linearGradient>
</defs>
</svg>
