<svg width="63" height="64" viewBox="0 0 63 64" fill="none" xmlns="http://www.w3.org/2000/svg">
<path d="M19.2131 64C18.2316 63.7023 17.2514 63.3928 16.4972 62.6397C16.1223 62.2658 15.7915 61.8466 15.3732 61.3702L17.2424 60.2635C18.1876 61.8216 19.6786 61.8867 21.2467 61.8814C28.4287 61.8577 35.6106 61.8729 42.7925 61.8696C44.5678 61.8696 45.9882 60.8589 46.1553 59.3028C46.2848 58.0727 46.1818 56.8162 46.1818 55.4915H27.3759V53.3643H46.2284V49.1298H48.3158C48.3313 49.2921 48.3604 49.4524 48.3604 49.6128C48.3604 52.5278 48.374 55.4435 48.3604 58.3585C48.3481 60.6539 47.4106 62.4183 45.344 63.4572C44.8403 63.7109 44.2667 63.8232 43.7255 64H19.2131Z" fill="white"/>
<path d="M36.7669 26.6585V28.7942C35.8501 28.7942 34.9541 28.8093 34.0593 28.787C33.6922 28.7778 33.5517 28.9138 33.5168 29.2759C32.8888 35.7335 27.6899 40.9478 21.2603 41.5209C21.1925 41.5378 21.1261 41.5598 21.0615 41.5866V44.7487H18.9347C18.9347 43.9601 18.8991 43.1578 18.9464 42.3581C18.982 41.7482 18.824 41.5353 18.1695 41.4486C11.9146 40.616 7.22013 35.7401 6.41731 29.3094C6.39919 29.1661 6.37912 29.0229 6.35257 28.8047H3.20541V26.6703H6.35192C6.54615 24.8494 6.96892 23.1685 7.74908 21.592C9.17342 18.7184 11.3099 16.5768 14.1735 15.206C14.5859 15.0089 14.7394 14.7901 14.7355 14.3222C14.7135 11.4475 14.7109 8.57272 14.7277 5.69799C14.7433 2.23688 16.9607 0.00525705 20.3694 0.00262853C24.434 -0.000876176 28.4983 -0.000876176 32.5625 0.00262853C35.9908 0.00262853 39.4188 0.00262853 42.8463 0.00262853C44.3878 0.00262853 45.4774 0.406108 46.5489 1.36683L45.1822 2.93738C44.3017 2.15605 43.2658 2.12385 42.2053 2.12516C34.898 2.13568 27.5902 2.13809 20.282 2.13239C18.5599 2.13239 17.3297 2.99258 16.9562 4.52435C16.817 5.09606 16.8455 5.70719 16.7917 6.37221H33.5874V8.5184H16.8785V14.2085C17.4553 14.1283 18.0225 14.083 18.5702 13.9522C18.7224 13.9154 18.9108 13.6283 18.9179 13.4495C18.9535 12.5571 18.9341 11.6628 18.9341 10.7139H21.0376C21.0376 11.6168 21.0576 12.5059 21.0285 13.393C21.0149 13.8208 21.1612 13.9581 21.5756 14.0048C27.8084 14.704 32.7852 19.7527 33.5038 26.1026C33.5498 26.5113 33.6715 26.6828 34.1027 26.6677C34.9787 26.6362 35.8553 26.6585 36.7669 26.6585ZM16.5315 29.6708C14.246 26.7347 14.169 23.9689 16.2725 21.7984C18.0613 19.9512 21.0518 19.7218 23.088 21.2779C24.1459 22.0869 24.8406 23.1475 25.108 24.4611C25.5236 26.5028 24.849 28.212 23.3962 29.6524C26.0778 31.2368 27.3261 33.5913 27.3584 36.7626C29.7869 34.594 31.1336 32.024 31.4696 28.7843H29.4704V26.646H31.4359C31.0035 20.6438 25.78 16.2811 21.0376 16.1497V18.0915H18.9224V16.1457C13.4795 16.3481 8.68138 21.5092 8.56872 26.6736H10.4586V28.8205H8.47679C8.8387 32.0109 10.1523 34.5914 12.6029 36.7639C12.6333 33.5604 13.8997 31.2328 16.5315 29.6708ZM21.0356 39.3563C22.1078 39.3648 24.1873 38.8043 24.9927 38.2812C25.0602 38.2306 25.1161 38.1659 25.1567 38.0914C25.1973 38.0169 25.2215 37.9344 25.2277 37.8495C25.2232 37.0806 25.2232 36.3072 25.1429 35.5436C24.9111 33.3376 23.1424 31.4477 20.9696 31.033C18.7968 30.6184 16.5269 31.6981 15.4464 33.5853C14.6552 34.9653 14.7167 36.4577 14.7374 37.9553C14.7374 38.0578 14.8164 38.2109 14.9012 38.2529C16.154 38.8838 17.4664 39.2965 18.9444 39.3819V37.3967H21.0356V39.3563ZM19.9868 28.7824C21.7141 28.7771 23.1288 27.3498 23.1333 25.6071C23.1372 23.8815 21.709 22.4187 19.9991 22.3977C18.2679 22.3766 16.8267 23.8473 16.8429 25.6255C16.8431 26.0429 16.9248 26.4561 17.0833 26.8412C17.2418 27.2263 17.474 27.5758 17.7663 27.8693C18.0586 28.1629 18.4054 28.3947 18.7865 28.5514C19.1676 28.7081 19.5756 28.7866 19.9868 28.7824Z" fill="white"/>
<path d="M46.3249 32.21V21.3949H48.3442V30.3772C48.6582 30.1085 48.8525 29.9475 49.0402 29.7799C51.8242 27.288 54.6081 24.7857 57.4018 22.305C59.1123 20.787 61.502 21.1222 62.5968 23.0022C63.2351 24.0996 63.1115 25.9146 62.2549 26.9233C60.58 28.8947 58.8701 30.8359 57.1732 32.7882C53.9965 36.4428 50.8222 40.099 47.6502 43.7571C47.442 44.0046 47.3033 44.3045 47.2488 44.6252C46.626 48.5581 43.7734 51.1262 39.8448 51.1965C37.5263 51.2392 35.2066 51.2044 32.8875 51.2057C32.2899 51.2057 31.7687 51.0591 31.5881 50.3987C31.4152 49.7633 31.7823 49.3788 32.2673 49.0759C33.2572 48.4595 33.656 47.5376 33.634 46.3896C33.6055 44.8459 33.588 43.301 34.2464 41.8553C35.4118 39.2925 37.3832 37.8153 40.1303 37.3868C40.3601 37.3507 40.6269 37.2909 40.7933 37.1444C42.6663 35.495 44.5231 33.8226 46.3249 32.21ZM46.2789 42.1083C46.3378 42.0374 46.4265 41.9283 46.5191 41.8218C51.1483 36.4964 55.7767 31.1702 60.4046 25.843C60.5842 25.644 60.735 25.4201 60.8526 25.178C61.0779 24.6871 60.9471 24.2298 60.5936 23.8578C60.2401 23.4859 59.7688 23.3768 59.2923 23.5785C59.0333 23.687 58.8067 23.8867 58.5931 24.0773C54.5419 27.6968 50.4933 31.3189 46.4473 34.9436C45.1569 36.0989 43.8686 37.2567 42.6171 38.3798L46.2789 42.1083ZM35.1664 49.0148C36.9754 49.0148 38.6911 49.0871 40.3983 48.9977C42.8255 48.8696 44.7614 46.9777 45.1058 44.518C45.1323 44.3301 45.0644 44.0581 44.9381 43.9266C43.5759 42.516 42.1997 41.1189 40.8094 39.7354C40.6668 39.6018 40.4778 39.5309 40.2837 39.5383C38.0074 39.7972 36.1033 41.7863 35.81 44.0883C35.6022 45.7232 36.0567 47.4298 35.1664 49.0148Z" fill="white"/>
<path d="M48.398 4.26014C52.0909 4.26014 55.7839 4.26014 59.4768 4.26014C60.6344 4.26014 60.9659 4.60579 60.9659 5.79586C60.9659 9.75179 60.9659 13.7077 60.9659 17.6637C60.9659 18.8583 60.637 19.2066 59.482 19.2073C52.0551 19.2073 44.628 19.2073 37.2007 19.2073C36.0852 19.2073 35.7317 18.8406 35.731 17.7037C35.7284 13.7268 35.7284 9.75004 35.731 5.77352C35.731 4.61236 36.0864 4.26211 37.2544 4.26211C40.9698 4.25992 44.6843 4.25926 48.398 4.26014ZM37.8727 6.42868V17.0236H58.8332V6.42736L37.8727 6.42868Z" fill="white"/>
<path d="M14.7206 48.0008V42.6984H16.8092V48.0008H17.5415C19.6553 48.0008 21.7698 47.9968 23.8863 48.0008C24.8496 48.0008 25.2381 48.3878 25.2407 49.3617C25.2472 52.0069 25.2472 54.652 25.2407 57.2972C25.2407 58.273 24.8619 58.6535 23.8914 58.6542C16.3813 58.6581 8.86934 58.6581 1.3557 58.6542C0.380027 58.6542 0.00904975 58.2776 0.00710746 57.2998C0.00149641 54.6542 0.00149641 52.0088 0.00710746 49.3637C0.00710746 48.3858 0.391033 48.0014 1.35635 48.0008C5.56421 47.9968 9.77251 47.9968 13.9812 48.0008H14.7206ZM2.13391 56.4889H23.1022V50.1627H2.13391V56.4889Z" fill="white"/>
<path d="M6.34028 4.26013C7.96209 4.26013 9.58391 4.26013 11.2057 4.26013C12.2474 4.26013 12.6113 4.62615 12.6139 5.69005C12.6208 8.2936 12.6208 10.8976 12.6139 13.502C12.6139 14.585 12.2766 14.926 11.2109 14.928C7.94656 14.9337 4.68264 14.9337 1.41917 14.928C0.361913 14.928 0.00453201 14.562 0.00258972 13.5079C-0.00086324 10.9044 -0.00086324 8.30039 0.00258972 5.69596C0.00258972 4.64061 0.374862 4.26341 1.41334 4.26013C3.05587 4.25684 4.6984 4.26013 6.34028 4.26013ZM2.13199 12.7549H10.4696V6.428H2.13328L2.13199 12.7549Z" fill="white"/>
<path d="M32.5586 57.6639V59.7109H30.536V57.6639H32.5586Z" fill="white"/>
<path d="M56.7472 12.843V14.8801H39.9788V12.843H56.7472Z" fill="white"/>
<path d="M46.2945 10.6232V8.57166H56.7284V10.6232H46.2945Z" fill="white"/>
<path d="M39.9833 8.55908H44.1003V10.606H39.9833V8.55908Z" fill="white"/>
<path d="M11.6013 54.354V52.2946H20.9942V54.354H11.6013Z" fill="white"/>
<path d="M4.21866 54.3389V52.3103H9.43889V54.3389H4.21866Z" fill="white"/>
<path d="M4.23483 8.55383H8.35961V10.6231H4.23483V8.55383Z" fill="white"/>
</svg>
