<svg width="100" height="24" viewBox="0 0 100 24" fill="none" xmlns="http://www.w3.org/2000/svg">
<path d="M50.4364 17.8152C50.5297 17.5465 50.9097 17.5465 51.0031 17.8152L51.4741 19.1702C51.5153 19.2887 51.6259 19.3691 51.7513 19.3716L53.1855 19.4009C53.4699 19.4067 53.5873 19.768 53.3607 19.9399L52.2176 20.8065C52.1176 20.8823 52.0753 21.0123 52.1117 21.1324L52.5271 22.5055C52.6094 22.7777 52.302 23.0011 52.0686 22.8386L50.8911 22.0192C50.7881 21.9476 50.6514 21.9476 50.5484 22.0192L49.3709 22.8386C49.1374 23.0011 48.83 22.7777 48.9124 22.5055L49.3278 21.1324C49.3641 21.0123 49.3219 20.8823 49.2219 20.8065L48.0788 19.9399C47.8521 19.768 47.9695 19.4067 48.2539 19.4009L49.6881 19.3716C49.8136 19.3691 49.9242 19.2887 49.9654 19.1702L50.4364 17.8152Z" fill="#909090"/>
<path d="M41.4364 17.8152C41.5297 17.5465 41.9097 17.5465 42.0031 17.8152L42.4741 19.1702C42.5153 19.2887 42.6259 19.3691 42.7513 19.3716L44.1855 19.4009C44.4699 19.4067 44.5873 19.768 44.3607 19.9399L43.2176 20.8065C43.1176 20.8823 43.0753 21.0123 43.1117 21.1324L43.5271 22.5055C43.6094 22.7777 43.302 23.0011 43.0686 22.8386L41.8911 22.0192C41.7881 21.9476 41.6514 21.9476 41.5484 22.0192L40.3709 22.8386C40.1374 23.0011 39.83 22.7777 39.9124 22.5055L40.3278 21.1324C40.3641 21.0123 40.3219 20.8823 40.2219 20.8065L39.0788 19.9399C38.8521 19.768 38.9695 19.4067 39.2539 19.4009L40.6881 19.3716C40.8136 19.3691 40.9242 19.2887 40.9654 19.1702L41.4364 17.8152Z" fill="#909090"/>
<path d="M32.4364 17.8152C32.5297 17.5465 32.9097 17.5465 33.0031 17.8152L33.4741 19.1702C33.5153 19.2887 33.6259 19.3691 33.7513 19.3716L35.1855 19.4009C35.4699 19.4067 35.5873 19.768 35.3607 19.9399L34.2176 20.8065C34.1176 20.8823 34.0753 21.0123 34.1117 21.1324L34.5271 22.5055C34.6094 22.7777 34.302 23.0011 34.0686 22.8386L32.8911 22.0192C32.7881 21.9476 32.6514 21.9476 32.5484 22.0192L31.3709 22.8386C31.1374 23.0011 30.83 22.7777 30.9124 22.5055L31.3278 21.1324C31.3641 21.0123 31.3219 20.8823 31.2219 20.8065L30.0788 19.9399C29.8521 19.768 29.9695 19.4067 30.2539 19.4009L31.6881 19.3716C31.8136 19.3691 31.9242 19.2887 31.9654 19.1702L32.4364 17.8152Z" fill="#909090"/>
<path d="M59.4364 17.8152C59.5297 17.5465 59.9097 17.5465 60.0031 17.8152L60.4741 19.1702C60.5153 19.2887 60.6259 19.3691 60.7513 19.3716L62.1855 19.4009C62.4699 19.4067 62.5873 19.768 62.3607 19.9399L61.2176 20.8065C61.1176 20.8823 61.0753 21.0123 61.1117 21.1324L61.5271 22.5055C61.6094 22.7777 61.302 23.0011 61.0686 22.8386L59.8911 22.0192C59.7881 21.9476 59.6514 21.9476 59.5484 22.0192L58.3709 22.8386C58.1374 23.0011 57.83 22.7777 57.9124 22.5055L58.3278 21.1324C58.3641 21.0123 58.3219 20.8823 58.2219 20.8065L57.0788 19.9399C56.8521 19.768 56.9695 19.4067 57.2539 19.4009L58.6881 19.3716C58.8136 19.3691 58.9242 19.2887 58.9654 19.1702L59.4364 17.8152Z" fill="#909090"/>
<path d="M68.4364 17.8152C68.5297 17.5465 68.9097 17.5465 69.0031 17.8152L69.4741 19.1702C69.5153 19.2887 69.6259 19.3691 69.7513 19.3716L71.1855 19.4009C71.4699 19.4067 71.5873 19.768 71.3607 19.9399L70.2176 20.8065C70.1176 20.8823 70.0753 21.0123 70.1117 21.1324L70.5271 22.5055C70.6094 22.7777 70.302 23.0011 70.0686 22.8386L68.8911 22.0192C68.7881 21.9476 68.6514 21.9476 68.5484 22.0192L67.3709 22.8386C67.1374 23.0011 66.83 22.7777 66.9124 22.5055L67.3278 21.1324C67.3641 21.0123 67.3219 20.8823 67.2219 20.8065L66.0788 19.9399C65.8521 19.768 65.9695 19.4067 66.2539 19.4009L67.6881 19.3716C67.8136 19.3691 67.9242 19.2887 67.9654 19.1702L68.4364 17.8152Z" fill="#909090"/>
<path d="M0.544242 1.36H1.93624L4.46824 8.56H4.49224L7.03624 1.36H8.36824L5.06824 10H3.84424L0.544242 1.36ZM11.3247 9.112C12.2007 9.112 12.7407 8.596 12.9447 8.02L14.1087 8.188C13.7127 9.448 12.6927 10.12 11.3247 10.12C9.47674 10.12 8.21674 8.74 8.21674 6.856C8.21674 4.984 9.47674 3.58 11.2647 3.604C13.1367 3.616 14.3127 4.972 14.3127 7.216H9.41674C9.53674 8.284 10.2087 9.112 11.3247 9.112ZM11.2527 4.612C10.1967 4.612 9.57274 5.512 9.44074 6.292H13.0527C12.9327 5.512 12.3087 4.612 11.2527 4.612ZM15.5846 3.724H16.7006V4.552H16.7246C17.0246 4.012 17.6126 3.652 18.3926 3.652C18.5246 3.652 18.6926 3.676 18.8246 3.7V4.804C18.6806 4.768 18.5126 4.756 18.3806 4.756C17.1806 4.756 16.7006 5.392 16.7006 6.496V10H15.5846V3.724ZM20.6631 2.776C20.2071 2.776 19.8591 2.428 19.8591 1.984C19.8591 1.54 20.2071 1.18 20.6631 1.18C21.1071 1.18 21.4551 1.54 21.4551 1.984C21.4551 2.428 21.1071 2.776 20.6631 2.776ZM20.0991 3.724H21.2151V10H20.0991V3.724ZM28.1991 3.724V10H27.0831V4.72H24.6591V10H23.5431V4.72H22.3791V3.724H23.5431V3.22C23.5431 1.576 24.4671 0.999999 25.6311 0.999999C25.8951 0.999999 26.1831 1.06 26.3631 1.132V2.152C26.1591 2.068 25.9551 2.02 25.7511 2.02C25.1751 2.02 24.6591 2.248 24.6591 3.112V3.724H28.1991ZM27.6471 2.536C27.2031 2.536 26.8791 2.2 26.8791 1.768C26.8791 1.348 27.2031 0.999999 27.6471 0.999999C28.0791 0.999999 28.4031 1.348 28.4031 1.768C28.4031 2.2 28.0791 2.536 27.6471 2.536ZM32.5591 9.112C33.4351 9.112 33.9751 8.596 34.1791 8.02L35.3431 8.188C34.9471 9.448 33.9271 10.12 32.5591 10.12C30.7111 10.12 29.4511 8.74 29.4511 6.856C29.4511 4.984 30.7111 3.58 32.4991 3.604C34.3711 3.616 35.5471 4.972 35.5471 7.216H30.6511C30.7711 8.284 31.4431 9.112 32.5591 9.112ZM32.4871 4.612C31.4311 4.612 30.8071 5.512 30.6751 6.292H34.2871C34.1671 5.512 33.5431 4.612 32.4871 4.612ZM42.6841 1.12V10H41.5681V9.112H41.5441C41.0641 9.736 40.3441 10.12 39.4801 10.12C37.7761 10.12 36.5761 8.812 36.5761 6.856C36.5761 4.9 37.7761 3.604 39.4801 3.604C40.3441 3.604 41.0641 3.988 41.5441 4.6H41.5681V1.12H42.6841ZM39.6721 4.648C38.5321 4.648 37.7401 5.548 37.7401 6.856C37.7401 8.176 38.5321 9.064 39.6721 9.064C40.8841 9.064 41.5921 8.092 41.5921 6.856C41.5921 5.644 40.8841 4.648 39.6721 4.648ZM47.1666 10V1.12H48.2826V4.636H48.3066C48.7626 4 49.5186 3.604 50.3706 3.604C52.0746 3.604 53.2746 4.9 53.2746 6.856C53.2746 8.812 52.0746 10.12 50.3706 10.12C49.5186 10.12 48.7626 9.724 48.3066 9.076H48.2826V10H47.1666ZM50.1906 4.648C48.9666 4.648 48.2586 5.644 48.2586 6.856C48.2586 8.092 48.9666 9.064 50.1906 9.064C51.3186 9.064 52.1106 8.176 52.1106 6.856C52.1106 5.548 51.3186 4.648 50.1906 4.648ZM58.623 3.724H59.883L56.355 12.4H55.059L56.127 10L53.607 3.724H54.915L56.739 8.68H56.763L58.623 3.724Z" fill="#909090"/>
<path d="M73.4658 0H75.1016V10.0994H73.4658V0Z" fill="#909090"/>
<path d="M80.7913 6.90068C80.7913 8.46537 79.5111 8.60762 79.0843 8.60762C78.0886 8.60762 77.9464 7.68303 77.9464 7.18517V3.27344H76.3105V7.11405C76.3105 8.03864 76.595 8.89211 77.164 9.38996C77.6619 9.88782 78.302 10.1012 79.0843 10.1012C79.6533 10.1012 80.3645 9.95894 80.7913 9.53221V10.1012H82.4271V3.27344H80.7913V6.90068Z" fill="#909090"/>
<path d="M85.6271 0.785156H83.9913V3.27444H82.7822V4.83913H83.9913V10.1022H85.6271V4.83913H86.8362V3.27444H85.6271V0.785156Z" fill="#909090"/>
<path d="M91.9564 8.03635C91.6008 8.32084 91.103 8.53421 90.6051 8.53421C89.4672 8.53421 88.6848 7.68074 88.6848 6.54278C88.6848 5.40482 89.4672 4.62248 90.6051 4.62248C91.103 4.62248 91.6008 4.76472 91.9564 5.12033L92.1698 5.3337L93.3078 4.26686L93.0233 4.0535C92.3832 3.48452 91.5297 3.12891 90.6051 3.12891C88.6137 3.12891 87.1201 4.62248 87.1201 6.6139C87.1201 8.60533 88.6137 10.0989 90.6051 10.0989C91.5297 10.0989 92.3832 9.74329 93.0233 9.17431L93.3078 8.96094L92.1698 7.82298L91.9564 8.03635Z" fill="#909090"/>
<path d="M99.0694 3.84061C98.5715 3.34275 98.0737 3.12939 97.2913 3.12939C96.7223 3.12939 96.1534 3.27163 95.7266 3.69836V0H94.0908V10.0994H95.7266V6.32989C95.7266 4.7652 96.7935 4.62296 97.2202 4.62296C98.2159 4.62296 98.1448 5.54755 98.1448 6.0454V10.0283H99.7806V6.11653C99.7806 5.19194 99.5672 4.33847 99.0694 3.84061Z" fill="#909090"/>
<path d="M90.5354 7.74857C91.1639 7.74857 91.6734 7.23909 91.6734 6.61062C91.6734 5.98214 91.1639 5.47266 90.5354 5.47266C89.9069 5.47266 89.3975 5.98214 89.3975 6.61062C89.3975 7.23909 89.9069 7.74857 90.5354 7.74857Z" fill="#525254"/>
<path d="M71.1897 7.61168C70.6207 8.18066 69.7673 8.53627 68.8427 8.53627C67.0646 8.53627 65.7844 7.11382 65.7844 5.19352C65.7844 3.27321 67.0646 1.85077 68.9138 1.85077C69.7673 1.85077 70.6207 2.20638 71.2608 2.84648L71.4742 3.05985L72.541 1.99301L72.3277 1.77964C71.4031 0.855053 70.194 0.357196 68.9138 0.357196C66.2112 0.286074 64.2197 2.41975 64.2197 5.19352C64.2197 7.96729 66.2112 10.101 68.8427 10.101C70.1229 10.101 71.4031 9.60311 72.2566 8.67851L72.4699 8.46515L71.4031 7.39831L71.1897 7.61168Z" fill="#909090"/>
</svg>
